<?xml version="1.0" encoding="iso-8859-1"?>
<!-- Generator: Adobe Illustrator 17.1.0, SVG Export Plug-In . SVG Version: 6.00 Build 0)  -->
<!DOCTYPE svg PUBLIC "-//W3C//DTD SVG 1.1//EN" "http://www.w3.org/Graphics/SVG/1.1/DTD/svg11.dtd">
<svg version="1.1" id="Capa_1" xmlns="http://www.w3.org/2000/svg" xmlns:xlink="http://www.w3.org/1999/xlink" x="0px" y="0px"
	 viewBox="0 0 403.238 403.238" style="enable-background:new 0 0 403.238 403.238;" xml:space="preserve">
<path d="M403.006,223.97L385.698,96.568c-1.609-11.845-11.275-22.189-22.983-24.596l-148.28-30.493
	c-4.574-0.94-9.494-1.139-12.815-1.139s-8.241,0.198-12.816,1.139L40.524,71.972C28.815,74.379,19.149,84.723,17.54,96.568
	L0.232,223.971c-0.917,6.747,0.902,13.123,5.121,17.953c4.069,4.659,10.081,7.331,16.495,7.331c1.47,0,2.966-0.138,4.447-0.41
	l15.405-2.831v72.999c0,7.92,6.091,15.304,13.867,16.811l135.283,26.198c2.915,0.563,6.739,0.875,10.768,0.875
	s7.853-0.312,10.768-0.875l135.284-26.198c7.775-1.507,13.866-8.891,13.866-16.811v-72.999l15.404,2.831
	c1.482,0.272,2.979,0.41,4.449,0.41c6.413,0,12.426-2.673,16.494-7.332C402.103,237.093,403.923,230.717,403.006,223.97z
	 M31.399,217.405l15.779-116.153c0.009-0.009,0.017-0.017,0.024-0.025l139.416-28.671v116.328L31.399,217.405z M216.619,188.883
	V72.555l139.416,28.671c0.008,0.009,0.016,0.017,0.024,0.025l15.779,116.153L216.619,188.883z"/>
<g>
</g>
<g>
</g>
<g>
</g>
<g>
</g>
<g>
</g>
<g>
</g>
<g>
</g>
<g>
</g>
<g>
</g>
<g>
</g>
<g>
</g>
<g>
</g>
<g>
</g>
<g>
</g>
<g>
</g>
</svg>
