<?xml version="1.0" encoding="iso-8859-1"?>
<!-- Generator: Adobe Illustrator 17.1.0, SVG Export Plug-In . SVG Version: 6.00 Build 0)  -->
<!DOCTYPE svg PUBLIC "-//W3C//DTD SVG 1.1//EN" "http://www.w3.org/Graphics/SVG/1.1/DTD/svg11.dtd">
<svg version="1.1" id="Capa_1" xmlns="http://www.w3.org/2000/svg" xmlns:xlink="http://www.w3.org/1999/xlink" x="0px" y="0px"
	 viewBox="0 0 418.18 418.18" style="enable-background:new 0 0 418.18 418.18;" xml:space="preserve">
<g>
	<path d="M373.106,146.831h-99.386c-8.271,0-15,6.729-15,15v28.481c0,2.757-2.243,5-5,5h-89.261c-2.757,0-5-2.243-5-5v-28.481
		c0-8.271-6.729-15-15-15H45.073c-8.271,0-15,6.729-15,15V403.18c0,8.271,6.729,15,15,15h328.033c8.271,0,15-6.729,15-15V161.831
		C388.106,153.56,381.378,146.831,373.106,146.831z M237.882,297.909v63.2h-31.921v-63.198H188.54l33.385-37.646l33.382,37.643
		H237.882z M326.382,297.909v63.2h-31.921v-63.198H277.04l33.385-37.646l33.382,37.643H326.382z"/>
	<path d="M156.1,75.763h20.74v45.168c0,4.963,4.038,9,9,9h46.492c4.963,0,9-4.037,9-9V75.759h20.748c3.03,0,5.498-1.417,6.601-3.79
		c1.104-2.374,0.596-5.174-1.357-7.491L215.492,3.036c-1.628-1.93-3.961-3.036-6.4-3.036c-2.44,0-4.773,1.106-6.401,3.037
		l-51.833,61.444c-1.955,2.315-2.463,5.115-1.36,7.489C150.601,74.346,153.069,75.763,156.1,75.763z"/>
</g>
<g>
</g>
<g>
</g>
<g>
</g>
<g>
</g>
<g>
</g>
<g>
</g>
<g>
</g>
<g>
</g>
<g>
</g>
<g>
</g>
<g>
</g>
<g>
</g>
<g>
</g>
<g>
</g>
<g>
</g>
</svg>
