<?xml version="1.0" encoding="iso-8859-1"?>
<!-- Generator: Adobe Illustrator 17.1.0, SVG Export Plug-In . SVG Version: 6.00 Build 0)  -->
<!DOCTYPE svg PUBLIC "-//W3C//DTD SVG 1.1//EN" "http://www.w3.org/Graphics/SVG/1.1/DTD/svg11.dtd">
<svg version="1.1" id="Capa_1" xmlns="http://www.w3.org/2000/svg" xmlns:xlink="http://www.w3.org/1999/xlink" x="0px" y="0px"
	 viewBox="0 0 413.659 413.659" style="enable-background:new 0 0 413.659 413.659;" xml:space="preserve">
<path d="M367.939,192.509l-39.4-87.64c-4.206-9.354-14.704-16.144-24.961-16.144h-64.506V75.76h20.748
	c3.03,0,5.498-1.417,6.601-3.79c1.104-2.374,0.597-5.174-1.357-7.491L213.232,3.037c-1.628-1.93-3.961-3.037-6.4-3.037
	c-2.44,0-4.773,1.107-6.401,3.038l-51.833,61.444c-1.954,2.316-2.462,5.116-1.359,7.49c1.103,2.374,3.571,3.791,6.602,3.791h20.74
	v12.962h-64.499c-10.257,0-20.755,6.79-24.961,16.146l-39.4,87.637c-0.481,1.069-2.883,5.757-2.883,9.69v198.461
	c0,7.168,5.832,13,13,13h301.986c7.168,0,13-5.832,13-13V202.198C370.823,199.856,368.42,193.577,367.939,192.509z M111.783,118.726
	h62.797v12.205c0,4.963,4.038,9,9,9h46.492c4.963,0,9-4.037,9-9v-12.205h62.805l31.682,70.473H80.1L111.783,118.726z"/>
<g>
</g>
<g>
</g>
<g>
</g>
<g>
</g>
<g>
</g>
<g>
</g>
<g>
</g>
<g>
</g>
<g>
</g>
<g>
</g>
<g>
</g>
<g>
</g>
<g>
</g>
<g>
</g>
<g>
</g>
</svg>
