<?xml version="1.0" encoding="iso-8859-1"?>
<!-- Generator: Adobe Illustrator 17.1.0, SVG Export Plug-In . SVG Version: 6.00 Build 0)  -->
<!DOCTYPE svg PUBLIC "-//W3C//DTD SVG 1.1//EN" "http://www.w3.org/Graphics/SVG/1.1/DTD/svg11.dtd">
<svg version="1.1" id="Capa_1" xmlns="http://www.w3.org/2000/svg" xmlns:xlink="http://www.w3.org/1999/xlink" x="0px" y="0px"
	 viewBox="0 0 353.215 353.215" style="enable-background:new 0 0 353.215 353.215;" xml:space="preserve">
<path d="M349.891,140.531l-14.652-36.687c-2.408-6.028-9.119-10.574-15.61-10.574h-80.273c-1.626,0-3-1.374-3-3v-29.14
	c0-1.626,1.374-3,3-3h57.905c3.865,0,7.092-1.629,8.855-4.469c1.762-2.841,1.789-6.456,0.073-9.919l-9.94-20.06
	c-2.81-5.671-9.703-9.948-16.032-9.948H73c-6.33,0-13.222,4.277-16.032,9.948l-9.94,20.06c-1.716,3.463-1.689,7.079,0.073,9.919
	c1.763,2.841,4.99,4.47,8.855,4.47h57.905c1.626,0,3,1.374,3,3v29.14c0,1.626-1.374,3-3,3H33.587
	c-6.491,0-13.203,4.546-15.611,10.575L3.324,140.531C1.46,145.199,0,152.791,0,157.816V326.48c0,7.168,5.832,13,13,13h327.215
	c7.168,0,13-5.832,13-13V157.816C353.215,152.791,351.755,145.199,349.891,140.531z M240.388,238.663l-0.343,0.009
	c-1.719,0-3.378-0.697-4.551-1.913c-3.775-3.888-8.844-6.036-14.263-6.036c-5.398,0.003-10.45,2.127-14.222,5.981
	c-1.177,1.201-2.811,1.886-4.485,1.886c-1.504,0-2.958-0.541-4.096-1.523c-2.955-2.544-6.313-4.544-9.905-5.948v64.727
	c0,14.55-11.837,26.387-26.387,26.387s-26.387-11.837-26.387-26.387c0-6.627,5.373-12,12-12s12,5.373,12,12
	c0,1.316,1.071,2.387,2.387,2.387c1.316,0,2.387-1.071,2.387-2.387v-64.696c-3.564,1.403-6.898,3.394-9.837,5.922
	c-1.138,0.979-2.591,1.518-4.09,1.518c-1.677,0-3.312-0.688-4.485-1.887c-3.772-3.853-8.824-5.978-14.222-5.98
	c-5.419,0-10.488,2.147-14.271,6.046c-1.163,1.206-2.821,1.903-4.539,1.903l-0.379-0.012c-3.297-0.178-5.904-2.93-5.904-6.263
	c0.02-26.7,23.035-57.154,54.81-64.659v-6.132c0-6.627,5.373-12,12-12s12,5.373,12,12v5.033
	c34.787,4.888,60.692,37.431,60.715,65.754C246.323,235.731,243.716,238.483,240.388,238.663z"/>
<g>
</g>
<g>
</g>
<g>
</g>
<g>
</g>
<g>
</g>
<g>
</g>
<g>
</g>
<g>
</g>
<g>
</g>
<g>
</g>
<g>
</g>
<g>
</g>
<g>
</g>
<g>
</g>
<g>
</g>
</svg>
