<?xml version="1.0" encoding="iso-8859-1"?>
<!-- Generator: Adobe Illustrator 17.1.0, SVG Export Plug-In . SVG Version: 6.00 Build 0)  -->
<!DOCTYPE svg PUBLIC "-//W3C//DTD SVG 1.1//EN" "http://www.w3.org/Graphics/SVG/1.1/DTD/svg11.dtd">
<svg version="1.1" id="Capa_1" xmlns="http://www.w3.org/2000/svg" xmlns:xlink="http://www.w3.org/1999/xlink" x="0px" y="0px"
	 viewBox="0 0 353.215 353.215" style="enable-background:new 0 0 353.215 353.215;" xml:space="preserve">
<path d="M348.812,130.4l-52.396-97.002c-2.976-5.509-9.94-9.663-16.202-9.663h-72.224c-3.539,0-6.856,1.472-9.101,4.037
	c-2.244,2.565-3.262,6.049-2.791,9.557l12.577,93.777c0.552,4.117,1.019,11.107,1.019,15.264v73.421c0,1.626-1.374,3-3,3h-60.174
	c-1.626,0-3-1.374-3-3V146.37c0-4.154,0.466-11.146,1.019-15.264l12.577-93.777c0.471-3.508-0.547-6.991-2.791-9.557
	c-2.245-2.565-5.562-4.037-9.101-4.037H73c-6.261,0-13.226,4.154-16.202,9.663L4.403,130.4C1.934,134.972,0,142.621,0,147.815
	v168.664c0,7.168,5.832,13,13,13h327.215c7.168,0,13-5.832,13-13V147.815C353.215,142.621,351.281,134.972,348.812,130.4z"/>
<g>
</g>
<g>
</g>
<g>
</g>
<g>
</g>
<g>
</g>
<g>
</g>
<g>
</g>
<g>
</g>
<g>
</g>
<g>
</g>
<g>
</g>
<g>
</g>
<g>
</g>
<g>
</g>
<g>
</g>
</svg>
