<?xml version="1.0" encoding="iso-8859-1"?>
<!-- Generator: Adobe Illustrator 17.1.0, SVG Export Plug-In . SVG Version: 6.00 Build 0)  -->
<!DOCTYPE svg PUBLIC "-//W3C//DTD SVG 1.1//EN" "http://www.w3.org/Graphics/SVG/1.1/DTD/svg11.dtd">
<svg version="1.1" id="Capa_1" xmlns="http://www.w3.org/2000/svg" xmlns:xlink="http://www.w3.org/1999/xlink" x="0px" y="0px"
	 viewBox="0 0 436.043 436.043" style="enable-background:new 0 0 436.043 436.043;" xml:space="preserve">
<g>
	<path d="M67.247,235.133h185.379c8.271,0,15-6.729,15-15V58.226c0-8.271-6.729-15-15-15h-56.137c-8.271,0-15,6.729-15,15v13.745
		c0,2.757-2.243,5-5,5h-33.105c-2.757,0-5-2.243-5-5V58.226c0-8.271-6.729-15-15-15H67.247c-8.271,0-15,6.729-15,15v161.907
		C52.247,228.404,58.976,235.133,67.247,235.133z M159.938,117.842l32.626,36.79h-17.03v45.839h-31.197v-45.836H127.31
		L159.938,117.842z"/>
	<path d="M311.268,157.673h54.989v11.392c0,4.711,3.224,7.176,6.409,7.176c1.178,0,2.979-0.335,4.872-1.933l40.195-33.907
		c1.93-1.629,3.037-3.962,3.036-6.402c0-2.439-1.107-4.772-3.037-6.399L377.536,93.69c-1.895-1.599-3.696-1.934-4.873-1.934
		c-3.186,0-6.409,2.464-6.409,7.175v11.388h-54.986c-4.963,0-9,4.037-9,9v29.354C302.268,153.636,306.305,157.673,311.268,157.673z"
		/>
	<path d="M377.428,275.587H58.615C26.295,275.587,0,301.882,0,334.202s26.295,58.615,58.615,58.615h318.813
		c32.32,0,58.615-26.295,58.615-58.615S409.748,275.587,377.428,275.587z M70.279,364.2c-16.568,0-29.998-13.431-29.998-29.998
		c0-16.568,13.431-29.999,29.998-29.999c16.568,0,29.999,13.431,29.999,29.999C100.277,350.77,86.847,364.2,70.279,364.2z
		 M168.774,364.2c-16.568,0-29.999-13.431-29.999-29.998c0-16.568,13.431-29.999,29.999-29.999
		c16.568,0,29.999,13.431,29.999,29.999C198.772,350.77,185.342,364.2,168.774,364.2z M267.269,364.2
		c-16.568,0-29.999-13.431-29.999-29.998c0-16.568,13.431-29.999,29.999-29.999c16.568,0,29.999,13.431,29.999,29.999
		C297.268,350.77,283.837,364.2,267.269,364.2z M365.764,364.2c-16.568,0-29.999-13.431-29.999-29.998
		c0-16.568,13.431-29.999,29.999-29.999c16.568,0,29.999,13.431,29.999,29.999C395.763,350.77,382.332,364.2,365.764,364.2z"/>
</g>
<g>
</g>
<g>
</g>
<g>
</g>
<g>
</g>
<g>
</g>
<g>
</g>
<g>
</g>
<g>
</g>
<g>
</g>
<g>
</g>
<g>
</g>
<g>
</g>
<g>
</g>
<g>
</g>
<g>
</g>
</svg>
