<?xml version="1.0" encoding="iso-8859-1"?>
<!-- Generator: Adobe Illustrator 17.1.0, SVG Export Plug-In . SVG Version: 6.00 Build 0)  -->
<!DOCTYPE svg PUBLIC "-//W3C//DTD SVG 1.1//EN" "http://www.w3.org/Graphics/SVG/1.1/DTD/svg11.dtd">
<svg version="1.1" id="Capa_1" xmlns="http://www.w3.org/2000/svg" xmlns:xlink="http://www.w3.org/1999/xlink" x="0px" y="0px"
	 viewBox="0 0 431.824 431.824" style="enable-background:new 0 0 431.824 431.824;" xml:space="preserve">
<g>
	<path d="M379.929,160.477h-99.386c-8.271,0-15,6.729-15,15v28.481c0,2.757-2.243,5-5,5h-89.262c-2.757,0-5-2.243-5-5v-28.481
		c0-8.271-6.729-15-15-15H51.896c-8.271,0-15,6.729-15,15v241.348c0,8.271,6.729,15,15,15h328.033c8.271,0,15-6.729,15-15V175.477
		C394.929,167.205,388.2,160.477,379.929,160.477z M244.704,311.554v63.2h-31.921v-63.198h-17.421l33.385-37.646l33.382,37.644
		H244.704z M333.204,311.554v63.2h-31.921v-63.198h-17.421l33.385-37.646l33.382,37.644H333.204z"/>
	<path d="M209.51,126.894c1.628,1.93,3.961,3.036,6.4,3.036s4.772-1.106,6.4-3.037l51.835-61.445
		c1.953-2.316,2.461-5.116,1.357-7.49c-1.103-2.373-3.57-3.79-6.601-3.79h-20.74V9c0-4.963-4.037-9-9-9H192.67c-4.963,0-9,4.037-9,9
		v45.172h-20.748c-3.03,0-5.498,1.417-6.601,3.79c-1.104,2.373-0.596,5.173,1.357,7.49L209.51,126.894z"/>
</g>
<g>
</g>
<g>
</g>
<g>
</g>
<g>
</g>
<g>
</g>
<g>
</g>
<g>
</g>
<g>
</g>
<g>
</g>
<g>
</g>
<g>
</g>
<g>
</g>
<g>
</g>
<g>
</g>
<g>
</g>
</svg>
