<?xml version="1.0" encoding="iso-8859-1"?>
<!-- Generator: Adobe Illustrator 17.1.0, SVG Export Plug-In . SVG Version: 6.00 Build 0)  -->
<!DOCTYPE svg PUBLIC "-//W3C//DTD SVG 1.1//EN" "http://www.w3.org/Graphics/SVG/1.1/DTD/svg11.dtd">
<svg version="1.1" id="Capa_1" xmlns="http://www.w3.org/2000/svg" xmlns:xlink="http://www.w3.org/1999/xlink" x="0px" y="0px"
	 viewBox="0 0 388.047 388.047" style="enable-background:new 0 0 388.047 388.047;" xml:space="preserve">
<path d="M372.528,31.288c-2.926,0-5.829,0.841-8.397,2.433c-3.387,2.101-8.303,3.258-13.843,3.258c-4.59,0-9.444-0.764-14.425-2.271
	c-6.559-1.984-14.273-9.038-22.927-20.965c-2.957-4.075-7.816-6.509-12.998-6.509c-5.102,0-9.885,2.412-12.791,6.446
	c-8.612,11.946-16.341,19.021-22.973,21.027c-4.911,1.485-10.157,2.271-15.171,2.271c-5.889,0-11.368-1.126-14.663-3.017
	c-1.718-0.984-5.25-2.636-9.606-2.636c-9.513,0-16.687,7.377-16.687,17.159v7.872H63.826c-10.469,0-20.946,7.031-24.913,16.719
	l-37,90.351C0.883,165.939,0,169.357,0,173.499v194.314c0,7.168,5.832,13,13,13h281.947c7.168,0,13-5.832,13-13V227.954
	c2.691-1.199,6.138-2.931,10.633-5.437c6.684-3.726,16.892-9.924,27.565-18.294c27.413-21.494,41.902-44.968,41.902-67.881V47.511
	C388.047,37.356,380.156,31.288,372.528,31.288z M170.379,133.958h-26.051c-4.962,0-9,4.037-9,9v17.54H35.53l30.362-74.142h69.436
	v13.549c0,4.963,4.038,9,9,9h26.051c4.962,0,9-4.037,9-9V86.357h28.668v49.985c0,8.034,1.737,16.122,5.133,24.156h-33.801v-17.54
	C179.379,137.996,175.341,133.958,170.379,133.958z M358.047,136.342c0,27.868-45.077,55.97-60.328,63.324
	c-14.547-6.714-59.672-34.472-59.672-63.324v-70.16c10.793,1.627,23.437,0.681,34.813-2.76
	c10.881-3.292,19.931-10.472,27.175-18.134c7.256,7.665,16.307,14.856,27.141,18.134c7.801,2.359,15.576,3.556,23.111,3.556
	c2.644,0,5.236-0.149,7.759-0.444V136.342z"/>
<g>
</g>
<g>
</g>
<g>
</g>
<g>
</g>
<g>
</g>
<g>
</g>
<g>
</g>
<g>
</g>
<g>
</g>
<g>
</g>
<g>
</g>
<g>
</g>
<g>
</g>
<g>
</g>
<g>
</g>
</svg>
