<?xml version="1.0" encoding="iso-8859-1"?>
<!-- Generator: Adobe Illustrator 17.1.0, SVG Export Plug-In . SVG Version: 6.00 Build 0)  -->
<!DOCTYPE svg PUBLIC "-//W3C//DTD SVG 1.1//EN" "http://www.w3.org/Graphics/SVG/1.1/DTD/svg11.dtd">
<svg version="1.1" id="Capa_1" xmlns="http://www.w3.org/2000/svg" xmlns:xlink="http://www.w3.org/1999/xlink" x="0px" y="0px"
	 viewBox="0 0 436.043 436.043" style="enable-background:new 0 0 436.043 436.043;" xml:space="preserve">
<g>
	<path d="M286.458,181.777h54.989v11.393c0,4.71,3.224,7.175,6.408,7.175h0c1.178,0,2.979-0.335,4.873-1.933l40.195-33.907
		c1.93-1.629,3.037-3.962,3.037-6.402c0-2.439-1.108-4.771-3.037-6.399l-40.196-33.908c-1.895-1.599-3.696-1.934-4.874-1.934
		c-3.185,0-6.409,2.465-6.409,7.176v11.387h-54.986c-4.962,0-9,4.037-9,9v29.354C277.458,177.74,281.496,181.777,286.458,181.777z"
		/>
	<path d="M61.469,275.889h157.092c8.271,0,15-6.729,15-15V124.037c0-8.271-6.729-15-15-15h-11.38
		c0.033-0.407,0.062-0.815,0.062-1.23V17.574c0-8.271-6.729-15-15-15H87.787c-8.271,0-15,6.729-15,15v90.232
		c0,0.416,0.029,0.824,0.062,1.23h-11.38c-8.271,0-15,6.729-15,15v136.852C46.469,269.16,53.198,275.889,61.469,275.889z
		 M140.016,44.165l22.921,25.846h-11.964v32.204h-21.917V70.013h-11.962L140.016,44.165z M140.016,166.103l32.615,36.777h-17.025
		v45.823H124.42v-45.821h-17.021L140.016,166.103z"/>
	<path d="M377.428,316.238H58.615C26.295,316.238,0,342.533,0,374.854s26.295,58.615,58.615,58.615h318.813
		c32.32,0,58.615-26.295,58.615-58.615S409.748,316.238,377.428,316.238z M70.279,404.852c-16.568,0-29.999-13.431-29.999-29.999
		c0-16.567,13.431-29.999,29.999-29.999c16.568,0,29.998,13.431,29.998,29.999C100.277,391.421,86.847,404.852,70.279,404.852z
		 M168.774,404.852c-16.568,0-29.998-13.431-29.998-29.999c0-16.567,13.431-29.999,29.998-29.999
		c16.568,0,29.999,13.431,29.999,29.999C198.772,391.421,185.342,404.852,168.774,404.852z M267.269,404.852
		c-16.568,0-29.998-13.431-29.998-29.999c0-16.567,13.431-29.999,29.998-29.999c16.568,0,29.999,13.431,29.999,29.999
		C297.268,391.421,283.837,404.852,267.269,404.852z M365.764,404.852c-16.568,0-29.999-13.431-29.999-29.999
		c0-16.567,13.431-29.999,29.999-29.999c16.568,0,29.998,13.431,29.998,29.999C395.763,391.421,382.332,404.852,365.764,404.852z"/>
</g>
<g>
</g>
<g>
</g>
<g>
</g>
<g>
</g>
<g>
</g>
<g>
</g>
<g>
</g>
<g>
</g>
<g>
</g>
<g>
</g>
<g>
</g>
<g>
</g>
<g>
</g>
<g>
</g>
<g>
</g>
</svg>
