<?xml version="1.0" encoding="iso-8859-1"?>
<!-- Generator: Adobe Illustrator 17.1.0, SVG Export Plug-In . SVG Version: 6.00 Build 0)  -->
<!DOCTYPE svg PUBLIC "-//W3C//DTD SVG 1.1//EN" "http://www.w3.org/Graphics/SVG/1.1/DTD/svg11.dtd">
<svg version="1.1" id="Capa_1" xmlns="http://www.w3.org/2000/svg" xmlns:xlink="http://www.w3.org/1999/xlink" x="0px" y="0px"
	 viewBox="0 0 388.008 388.008" style="enable-background:new 0 0 388.008 388.008;" xml:space="preserve">
<path d="M372.474,38.51c-2.932,0-5.838,0.842-8.401,2.433c-3.388,2.101-8.309,3.258-13.856,3.258c-4.595,0-9.451-0.764-14.433-2.271
	c-6.557-1.983-14.271-9.038-22.919-20.953c-2.957-4.082-7.818-6.52-13.006-6.52c-5.11,0-9.897,2.418-12.79,6.446
	c-8.611,11.945-16.341,19.021-22.973,21.026c-4.911,1.485-10.155,2.271-15.164,2.271c-5.882,0.001-11.356-1.126-14.646-3.013
	c-1.719-0.986-5.252-2.64-9.603-2.64c-9.507,0-16.676,7.377-16.676,17.16v25.217H66.707c-6.329,0-13.222,4.276-16.033,9.948
	l-8.152,16.452c-1.716,3.463-1.688,7.078,0.073,9.919c1.763,2.84,4.99,4.469,8.855,4.469h50.152c1.626,0,3,1.374,3,3v24.405
	c0,1.626-1.374,3-3,3H31.428c-6.492,0-13.203,4.547-15.61,10.575L3.324,193.973C1.46,198.641,0,206.232,0,211.257v149.294
	c0,7.168,5.832,13,13,13h291.215c7.168,0,13-5.832,13-13V230.472c0.431-0.237,0.873-0.481,1.325-0.733
	c6.685-3.726,16.892-9.924,27.566-18.294c27.412-21.494,41.901-44.968,41.901-67.881V54.733
	C388.008,44.578,380.109,38.51,372.474,38.51z M183.318,276.536v61.167h-49.426V276.54h-26.975l51.694-58.292l51.69,58.288H183.318z
	 M358.008,143.564c0,27.868-45.077,55.97-60.328,63.324c-14.547-6.714-59.672-34.472-59.672-63.324V73.408
	c10.783,1.624,23.408,0.675,34.773-2.764c10.88-3.291,19.929-10.47,27.176-18.134c7.256,7.665,16.307,14.856,27.141,18.134
	c7.801,2.359,15.579,3.556,23.118,3.556c2.656,0,5.259-0.15,7.792-0.447V143.564z"/>
<g>
</g>
<g>
</g>
<g>
</g>
<g>
</g>
<g>
</g>
<g>
</g>
<g>
</g>
<g>
</g>
<g>
</g>
<g>
</g>
<g>
</g>
<g>
</g>
<g>
</g>
<g>
</g>
<g>
</g>
</svg>
