<?xml version="1.0" encoding="iso-8859-1"?>
<!-- Generator: Adobe Illustrator 17.1.0, SVG Export Plug-In . SVG Version: 6.00 Build 0)  -->
<!DOCTYPE svg PUBLIC "-//W3C//DTD SVG 1.1//EN" "http://www.w3.org/Graphics/SVG/1.1/DTD/svg11.dtd">
<svg version="1.1" id="Capa_1" xmlns="http://www.w3.org/2000/svg" xmlns:xlink="http://www.w3.org/1999/xlink" x="0px" y="0px"
	 viewBox="0 0 407.712 407.712" style="enable-background:new 0 0 407.712 407.712;" xml:space="preserve">
<g>
	<path d="M388.672,241.64c0.251-0.24,0.501-0.482,0.734-0.744c2.26-2.554,3.391-5.835,3.184-9.24s-1.729-6.524-4.282-8.785
		l-10.134-8.969c-2.337-2.068-5.341-3.208-8.46-3.208c-3.657,0-7.143,1.57-9.564,4.306c-0.476,0.538-0.891,1.115-1.265,1.712
		c-5.446-2.851-11.214-5.168-17.236-6.875c0.551-1.617,0.865-3.344,0.865-5.146c0-8.824-7.179-16.002-16.002-16.002h-19.165
		c-4.186,0-7.989,1.628-10.843,4.268v-59.73c0-0.11-0.014-0.216-0.016-0.325c0.307-3.332-0.215-6.801-1.596-10.172l-35.336-86.287
		c-3.967-9.688-14.445-16.719-24.914-16.719H61.93c-10.468,0-20.946,7.031-24.913,16.719L1.681,122.731
		c-1.381,3.372-1.904,6.84-1.596,10.172c-0.003,0.109-0.016,0.215-0.016,0.325v186.188c0,7.168,5.832,13,13,13h220.182
		c13.78,32.62,46.098,55.571,83.676,55.571c50.059,0,90.785-40.726,90.785-90.785C407.712,276.288,400.6,257.006,388.672,241.64z
		 M163.902,94.714h-24.735c-4.962,0-9,4.038-9,9v16.514H35.125l28.872-70.503h66.17v12.291c0,4.962,4.038,9,9,9h24.735
		c4.962,0,9-4.038,9-9V49.725h59.671l28.872,70.503h-88.543v-16.514C172.902,98.752,168.865,94.714,163.902,94.714z
		 M316.927,357.987c-33.517,0-60.785-27.268-60.785-60.785s27.268-60.785,60.785-60.785s60.785,27.268,60.785,60.785
		S350.444,357.987,316.927,357.987z"/>
	<path d="M319.287,254.035l-0.336-0.009c-3.453,0-7.024,2.766-7.024,7.395v32.462c0,5.316,4.164,8.185,8.082,8.185h33.238
		c1.93,0,3.672-0.719,4.907-2.024c0.906-0.958,1.955-2.677,1.801-5.424C358.723,272.672,341.242,255.224,319.287,254.035z"/>
</g>
<g>
</g>
<g>
</g>
<g>
</g>
<g>
</g>
<g>
</g>
<g>
</g>
<g>
</g>
<g>
</g>
<g>
</g>
<g>
</g>
<g>
</g>
<g>
</g>
<g>
</g>
<g>
</g>
<g>
</g>
</svg>
