<?xml version="1.0" encoding="iso-8859-1"?>
<!-- Generator: Adobe Illustrator 17.1.0, SVG Export Plug-In . SVG Version: 6.00 Build 0)  -->
<!DOCTYPE svg PUBLIC "-//W3C//DTD SVG 1.1//EN" "http://www.w3.org/Graphics/SVG/1.1/DTD/svg11.dtd">
<svg version="1.1" id="Capa_1" xmlns="http://www.w3.org/2000/svg" xmlns:xlink="http://www.w3.org/1999/xlink" x="0px" y="0px"
	 viewBox="0 0 402.367 402.367" style="enable-background:new 0 0 402.367 402.367;" xml:space="preserve">
<g>
	<path d="M312.558,189.203V38.678c0-8.271-6.729-15-15-15h-92.162c-8.271,0-15,6.729-15,15v29.711c0,2.757-2.243,5-5,5h-58.233
		c-2.757,0-5-2.243-5-5V38.678c0-8.271-6.729-15-15-15H15c-8.271,0-15,6.729-15,15v247.979c0,8.271,6.729,15,15,15h199.428
		c8.345,43.809,46.927,77.032,93.13,77.032c52.278,0,94.81-42.531,94.81-94.809C402.367,233.28,362.521,191.812,312.558,189.203z
		 M179.255,185.433v67.528h-45.958v-67.525h-25.083l48.067-54.202l48.063,54.198H179.255z M307.558,348.689
		c-35.735,0-64.809-29.073-64.809-64.809c0-35.736,29.073-64.81,64.809-64.81c35.736,0,64.81,29.073,64.81,64.81
		C372.367,319.616,343.294,348.689,307.558,348.689z"/>
	<path d="M331.673,251.995l-28.559,33.445l-12.056-12.056c-5.857-5.856-15.355-5.857-21.213-0.001
		c-5.857,5.858-5.858,15.355,0,21.214l15.753,15.754c4.758,4.757,11.207,7.436,17.825,7.436c0.32,0,0.642-0.006,0.963-0.019
		c6.952-0.274,13.566-3.507,18.146-8.871l31.954-37.422c5.38-6.3,4.633-15.768-1.667-21.147
		C346.522,244.95,337.053,245.695,331.673,251.995z"/>
</g>
<g>
</g>
<g>
</g>
<g>
</g>
<g>
</g>
<g>
</g>
<g>
</g>
<g>
</g>
<g>
</g>
<g>
</g>
<g>
</g>
<g>
</g>
<g>
</g>
<g>
</g>
<g>
</g>
<g>
</g>
</svg>
