<?xml version="1.0" encoding="iso-8859-1"?>
<!-- Generator: Adobe Illustrator 17.1.0, SVG Export Plug-In . SVG Version: 6.00 Build 0)  -->
<!DOCTYPE svg PUBLIC "-//W3C//DTD SVG 1.1//EN" "http://www.w3.org/Graphics/SVG/1.1/DTD/svg11.dtd">
<svg version="1.1" id="Capa_1" xmlns="http://www.w3.org/2000/svg" xmlns:xlink="http://www.w3.org/1999/xlink" x="0px" y="0px"
	 viewBox="0 0 407.024 407.024" style="enable-background:new 0 0 407.024 407.024;" xml:space="preserve">
<g>
	<path d="M317.215,194.819V153.05c0-5.024-1.46-12.616-3.324-17.284l-12.493-31.279c-2.408-6.029-9.119-10.575-15.61-10.575h-70.175
		c-1.626,0-3-1.374-3-3V66.507c0-1.626,1.374-3,3-3h50.152c3.865,0,7.092-1.629,8.854-4.469c1.763-2.841,1.79-6.456,0.074-9.921
		l-8.153-16.45c-2.811-5.672-9.702-9.949-16.032-9.949H66.707c-6.329,0-13.221,4.277-16.032,9.948l-8.153,16.452
		c-1.716,3.463-1.69,7.078,0.073,9.919s4.99,4.47,8.855,4.47h50.153c1.626,0,3,1.374,3,3v24.404c0,1.626-1.374,3-3,3H31.428
		c-6.491,0-13.202,4.546-15.611,10.575L3.324,135.766C1.46,140.433,0,148.025,0,153.05v149.294c0,7.168,5.832,13,13,13h207.987
		c11.28,39.756,47.907,68.962,91.228,68.962c52.277,0,94.809-42.531,94.809-94.81C407.024,238.895,367.177,197.427,317.215,194.819z
		 M183.318,218.33v61.167h-49.427v-61.163h-26.976l51.694-58.291l51.69,58.288H183.318z M312.215,354.306
		c-35.736,0-64.81-29.073-64.81-64.81s29.073-64.81,64.81-64.81c35.735,0,64.809,29.073,64.809,64.81
		S347.951,354.306,312.215,354.306z"/>
	<path d="M336.331,257.611l-28.56,33.445l-12.056-12.055c-5.857-5.859-15.355-5.857-21.213,0c-5.858,5.858-5.857,15.355,0,21.214
		l15.752,15.75c4.757,4.758,11.207,7.438,17.826,7.438c0.319,0,0.64-0.007,0.96-0.02c6.953-0.272,13.568-3.506,18.149-8.871
		l31.955-37.422c5.38-6.3,4.634-15.768-1.667-21.147C351.181,250.566,341.711,251.31,336.331,257.611z"/>
</g>
<g>
</g>
<g>
</g>
<g>
</g>
<g>
</g>
<g>
</g>
<g>
</g>
<g>
</g>
<g>
</g>
<g>
</g>
<g>
</g>
<g>
</g>
<g>
</g>
<g>
</g>
<g>
</g>
<g>
</g>
</svg>
