<?xml version="1.0" encoding="iso-8859-1"?>
<!-- Generator: Adobe Illustrator 17.1.0, SVG Export Plug-In . SVG Version: 6.00 Build 0)  -->
<!DOCTYPE svg PUBLIC "-//W3C//DTD SVG 1.1//EN" "http://www.w3.org/Graphics/SVG/1.1/DTD/svg11.dtd">
<svg version="1.1" id="Capa_1" xmlns="http://www.w3.org/2000/svg" xmlns:xlink="http://www.w3.org/1999/xlink" x="0px" y="0px"
	 viewBox="0 0 407.023 407.023" style="enable-background:new 0 0 407.023 407.023;" xml:space="preserve">
<g>
	<path d="M317.215,194.818V153.05c0-5.024-1.46-12.616-3.324-17.284l-12.493-31.279c-2.408-6.029-9.119-10.575-15.61-10.575h-70.175
		c-1.626,0-3-1.374-3-3V66.507c0-1.626,1.374-3,3-3h50.152c3.865,0,7.092-1.629,8.854-4.469c1.763-2.841,1.79-6.456,0.074-9.921
		l-8.153-16.45c-2.811-5.672-9.702-9.949-16.032-9.949H66.706c-6.33,0-13.222,4.277-16.032,9.949l-8.151,16.45
		c-1.717,3.463-1.69,7.079,0.072,9.92c1.762,2.841,4.989,4.47,8.854,4.47h50.153c1.626,0,3,1.374,3,3v24.404c0,1.626-1.374,3-3,3
		H31.428c-6.492,0-13.203,4.546-15.611,10.575L3.323,135.766C1.46,140.432,0,148.024,0,153.05v149.294c0,7.168,5.832,13,13,13
		h207.987c11.28,39.756,47.907,68.962,91.228,68.962c52.277,0,94.809-42.531,94.809-94.81
		C407.023,238.895,367.177,197.427,317.215,194.818z M183.317,218.33v61.167h-49.427v-61.163h-26.976l51.694-58.291l51.69,58.288
		H183.317z M312.215,354.306c-35.736,0-64.81-29.073-64.81-64.81s29.073-64.81,64.81-64.81c35.735,0,64.809,29.073,64.809,64.81
		S347.95,354.306,312.215,354.306z"/>
	<path d="M344.977,256.733c-5.857-5.857-15.355-5.857-21.213,0l-11.549,11.55l-11.549-11.55c-5.856-5.858-15.354-5.858-21.213,0
		c-5.858,5.857-5.858,15.355,0,21.213l11.55,11.55l-11.55,11.55c-5.858,5.857-5.858,15.355,0,21.213
		c2.929,2.929,6.768,4.394,10.606,4.394s7.678-1.465,10.606-4.394l11.549-11.55l11.549,11.55c2.929,2.93,6.768,4.394,10.606,4.394
		c3.838,0,7.678-1.465,10.606-4.394c5.858-5.857,5.858-15.355,0-21.213l-11.55-11.55l11.55-11.55
		C350.835,272.089,350.835,262.591,344.977,256.733z"/>
</g>
<g>
</g>
<g>
</g>
<g>
</g>
<g>
</g>
<g>
</g>
<g>
</g>
<g>
</g>
<g>
</g>
<g>
</g>
<g>
</g>
<g>
</g>
<g>
</g>
<g>
</g>
<g>
</g>
<g>
</g>
</svg>
