<?xml version="1.0" encoding="iso-8859-1"?>
<!-- Generator: Adobe Illustrator 17.1.0, SVG Export Plug-In . SVG Version: 6.00 Build 0)  -->
<!DOCTYPE svg PUBLIC "-//W3C//DTD SVG 1.1//EN" "http://www.w3.org/Graphics/SVG/1.1/DTD/svg11.dtd">
<svg version="1.1" id="Capa_1" xmlns="http://www.w3.org/2000/svg" xmlns:xlink="http://www.w3.org/1999/xlink" x="0px" y="0px"
	 viewBox="0 0 418.651 418.651" style="enable-background:new 0 0 418.651 418.651;" xml:space="preserve">
<path d="M413.526,332.362l-42.022-42.021c9.615-14.403,14.781-31.319,14.781-49.03c0-23.655-9.212-45.895-25.939-62.621
	c-5.744-5.744-12.15-10.578-19.028-14.48V71.416c0-8.271-6.729-15-15-15h-93.652c-8.271,0-15,6.729-15,15v26.152
	c0,2.757-2.243,5-5,5h-84.013c-2.757,0-5-2.243-5-5V71.416c0-8.271-6.729-15-15-15H15c-8.271,0-15,6.729-15,15V300.21
	c0,8.271,6.729,15,15,15h233.887c14.363,9.534,31.205,14.659,48.838,14.659c17.711,0,34.626-5.166,49.03-14.78l42.021,42.021
	c3.417,3.418,7.896,5.126,12.375,5.126s8.958-1.709,12.375-5.126C420.36,350.276,420.36,339.196,413.526,332.362z M74.788,200.476
	v60.165H44.4v-60.162H27.816l31.781-35.838l31.779,35.835H74.788z M339.133,282.718c-11.061,11.061-25.766,17.151-41.408,17.151
	c-15.642,0-30.347-6.091-41.408-17.151s-17.152-25.767-17.152-41.408s6.091-30.348,17.152-41.408s25.766-17.151,41.408-17.151
	c15.642,0,30.348,6.091,41.408,17.151s17.152,25.767,17.152,41.408S350.194,271.658,339.133,282.718z M158.561,200.476v60.165
	h-30.387v-60.162h-16.585l31.781-35.838l31.779,35.835H158.561z"/>
<g>
</g>
<g>
</g>
<g>
</g>
<g>
</g>
<g>
</g>
<g>
</g>
<g>
</g>
<g>
</g>
<g>
</g>
<g>
</g>
<g>
</g>
<g>
</g>
<g>
</g>
<g>
</g>
<g>
</g>
</svg>
