<?xml version="1.0" encoding="iso-8859-1"?>
<!-- Generator: Adobe Illustrator 17.1.0, SVG Export Plug-In . SVG Version: 6.00 Build 0)  -->
<!DOCTYPE svg PUBLIC "-//W3C//DTD SVG 1.1//EN" "http://www.w3.org/Graphics/SVG/1.1/DTD/svg11.dtd">
<svg version="1.1" id="Capa_1" xmlns="http://www.w3.org/2000/svg" xmlns:xlink="http://www.w3.org/1999/xlink" x="0px" y="0px"
	 viewBox="0 0 408.539 408.539" style="enable-background:new 0 0 408.539 408.539;" xml:space="preserve">
<path d="M408.539,126.443V44.367c0-10.098-7.852-16.131-15.441-16.131c-2.028,0-5.123,0.419-8.348,2.419
	c-2.951,1.831-7.269,2.839-12.157,2.839c-4.116,0-8.484-0.689-12.98-2.05c-5.815-1.759-12.743-8.135-20.6-18.961
	c-2.947-4.052-7.778-6.471-12.924-6.471c-5.08,0-9.845,2.405-12.743,6.43c-7.807,10.829-14.747,17.223-20.631,19.002
	c-4.432,1.341-9.198,2.05-13.785,2.05c-5.348,0-10.256-0.983-13.131-2.633c-1.687-0.967-5.172-2.59-9.568-2.59
	c-9.359,0-16.691,7.465-16.691,16.995v81.177c0,0.534,0.015,1.068,0.031,1.603H81.796c-8.123,0-16.347,4.704-20.464,11.705
	L2.677,239.465c-3.417,5.81-3.571,12.575-0.412,18.097c3.158,5.521,9.067,8.818,15.807,8.818h41.222v76.078
	c0,10.483,7.853,21.104,17.876,24.176l110.451,33.859c4.277,1.312,9.891,2.033,15.808,2.033c5.916,0,11.529-0.722,15.807-2.033
	l110.451-33.859c10.023-3.072,17.875-13.692,17.875-24.176V266.38h41.223c6.739,0,12.648-3.297,15.807-8.818
	c3.159-5.521,3.005-12.287-0.413-18.098l-30.939-52.596C396.351,167.66,408.539,146.846,408.539,126.443z M142.609,239.638H34.886
	l49.911-84.85H192.52L142.609,239.638z M264.525,239.227l-49.428-84.027h32.162c6.409,11.957,16.741,23.697,30.757,34.811
	c12.567,9.965,35.885,24.708,46.022,24.708c2.441,0,5.784,0,19.542-7.647c1.887-1.049,4.079-2.312,6.489-3.774l21.135,35.931
	H264.525z M378.539,126.443c0,24.756-40.429,50.167-54.778,57.227c-5.933-2.817-17.909-9.465-29.623-19.212
	c-15.862-13.199-24.599-26.699-24.599-38.015V62.886c3.012,0.403,6.152,0.608,9.393,0.608c7.489,0,15.26-1.153,22.47-3.335
	c9.871-2.985,18.117-9.329,24.779-16.197c6.672,6.871,14.917,13.225,24.746,16.197c7.314,2.213,14.604,3.335,21.666,3.335
	c2.017,0,4.002-0.093,5.946-0.276V126.443z"/>
<g>
</g>
<g>
</g>
<g>
</g>
<g>
</g>
<g>
</g>
<g>
</g>
<g>
</g>
<g>
</g>
<g>
</g>
<g>
</g>
<g>
</g>
<g>
</g>
<g>
</g>
<g>
</g>
<g>
</g>
</svg>
