<?xml version="1.0" encoding="iso-8859-1"?>
<!-- Generator: Adobe Illustrator 17.1.0, SVG Export Plug-In . SVG Version: 6.00 Build 0)  -->
<!DOCTYPE svg PUBLIC "-//W3C//DTD SVG 1.1//EN" "http://www.w3.org/Graphics/SVG/1.1/DTD/svg11.dtd">
<svg version="1.1" id="Capa_1" xmlns="http://www.w3.org/2000/svg" xmlns:xlink="http://www.w3.org/1999/xlink" x="0px" y="0px"
	 viewBox="0 0 418.184 418.184" style="enable-background:new 0 0 418.184 418.184;" xml:space="preserve">
<g>
	<path d="M318.16,228.697V117.142c0-2.497-0.883-7.559-1.912-10.072l-37.001-90.352C275.279,7.031,264.802,0,254.334,0H74.04
		C63.571,0,53.094,7.031,49.127,16.719L12.126,107.07c-1.029,2.513-1.912,6.688-1.912,10.071v194.314c0,7.168,5.832,13,13,13
		h195.151c0.583,51.781,42.879,93.728,94.795,93.728c52.278,0,94.81-42.531,94.81-94.81
		C407.97,272.774,368.123,231.306,318.16,228.697z M180.593,77.602h-26.051c-4.962,0-9,4.037-9,9v17.54H45.744L76.106,30h69.435
		v13.549c0,4.963,4.038,9,9,9h26.051c4.962,0,9-4.037,9-9V30h62.676l30.362,74.142h-93.038v-17.54
		C189.593,81.639,185.555,77.602,180.593,77.602z M313.16,388.184c-35.735,0-64.809-29.073-64.809-64.81
		c0-35.735,29.073-64.809,64.809-64.809c35.736,0,64.81,29.073,64.81,64.809C377.97,359.11,348.896,388.184,313.16,388.184z"/>
	<path d="M345.923,290.612c-5.857-5.857-15.355-5.857-21.213,0l-11.549,11.549l-11.549-11.549c-5.857-5.857-15.355-5.857-21.213,0
		c-5.858,5.857-5.858,15.355,0,21.213l11.549,11.549l-11.549,11.549c-5.858,5.857-5.858,15.355,0,21.213
		c2.929,2.929,6.768,4.394,10.606,4.394s7.678-1.465,10.606-4.394l11.549-11.549l11.549,11.549
		c2.929,2.929,6.768,4.394,10.606,4.394s7.678-1.465,10.606-4.394c5.858-5.857,5.858-15.355,0-21.213l-11.549-11.549l11.549-11.549
		C351.781,305.968,351.781,296.47,345.923,290.612z"/>
</g>
<g>
</g>
<g>
</g>
<g>
</g>
<g>
</g>
<g>
</g>
<g>
</g>
<g>
</g>
<g>
</g>
<g>
</g>
<g>
</g>
<g>
</g>
<g>
</g>
<g>
</g>
<g>
</g>
<g>
</g>
</svg>
