<?xml version="1.0" encoding="iso-8859-1"?>
<!-- Generator: Adobe Illustrator 17.1.0, SVG Export Plug-In . SVG Version: 6.00 Build 0)  -->
<!DOCTYPE svg PUBLIC "-//W3C//DTD SVG 1.1//EN" "http://www.w3.org/Graphics/SVG/1.1/DTD/svg11.dtd">
<svg version="1.1" id="Capa_1" xmlns="http://www.w3.org/2000/svg" xmlns:xlink="http://www.w3.org/1999/xlink" x="0px" y="0px"
	 viewBox="0 0 365.976 365.976" style="enable-background:new 0 0 365.976 365.976;" xml:space="preserve">
<path d="M350.976,20.342H239.011c-8.271,0-15,6.729-15,15V73.83c0,2.757-2.243,5-5,5h-72.046c-2.757,0-5-2.243-5-5V35.342
	c0-8.271-6.729-15-15-15H15c-8.271,0-15,6.729-15,15v295.292c0,8.271,6.729,15,15,15h335.976c8.271,0,15-6.729,15-15V35.342
	C365.976,27.071,359.247,20.342,350.976,20.342z M260.071,215.187l-0.355,0.01c-1.801,0-3.535-0.729-4.757-1.999
	c-4.756-4.9-11.148-7.607-17.982-7.607c-6.808,0.004-13.178,2.683-17.934,7.543c-1.228,1.251-2.93,1.966-4.676,1.966
	c-1.566,0-3.083-0.563-4.268-1.587c-4.443-3.824-9.618-6.657-15.156-8.378v80.206c0,16.205-13.183,29.388-29.388,29.388
	s-29.388-13.183-29.388-29.388c0-6.627,5.373-12,12-12s12,5.373,12,12c0,2.971,2.417,5.388,5.388,5.388s5.388-2.417,5.388-5.388
	v-80.178c-5.504,1.725-10.649,4.549-15.072,8.355c-1.186,1.02-2.7,1.582-4.263,1.582c-1.748,0-3.452-0.717-4.674-1.967
	c-4.758-4.859-11.128-7.539-17.935-7.542c-6.833,0-13.225,2.708-17.995,7.624c-1.212,1.257-2.943,1.983-4.738,1.983l-0.391-0.012
	c-3.44-0.185-6.159-3.054-6.159-6.529c0.025-32.366,28.389-69.367,67.271-77.553v-8.116c0-6.627,5.373-12,12-12s12,5.373,12,12
	v6.864c42.928,4.429,75.243,44.257,75.271,78.801C266.259,212.132,263.541,215.001,260.071,215.187z"/>
<g>
</g>
<g>
</g>
<g>
</g>
<g>
</g>
<g>
</g>
<g>
</g>
<g>
</g>
<g>
</g>
<g>
</g>
<g>
</g>
<g>
</g>
<g>
</g>
<g>
</g>
<g>
</g>
<g>
</g>
</svg>
