<?xml version="1.0" encoding="iso-8859-1"?>
<!-- Generator: Adobe Illustrator 17.1.0, SVG Export Plug-In . SVG Version: 6.00 Build 0)  -->
<!DOCTYPE svg PUBLIC "-//W3C//DTD SVG 1.1//EN" "http://www.w3.org/Graphics/SVG/1.1/DTD/svg11.dtd">
<svg version="1.1" id="Capa_1" xmlns="http://www.w3.org/2000/svg" xmlns:xlink="http://www.w3.org/1999/xlink" x="0px" y="0px"
	 viewBox="0 0 365.976 365.976" style="enable-background:new 0 0 365.976 365.976;" xml:space="preserve">
<path d="M350.976,20.342H239.011c-8.271,0-15,6.729-15,15V73.83c0,2.757-2.243,5-5,5h-72.046c-2.757,0-5-2.243-5-5V35.342
	c0-8.271-6.729-15-15-15H15c-8.271,0-15,6.729-15,15v295.292c0,8.271,6.729,15,15,15h335.976c8.271,0,15-6.729,15-15V35.342
	C365.976,27.071,359.247,20.342,350.976,20.342z M191.149,244.369c-3.016,7.903-1.833,26.515,1.633,35.755
	c18.914,1.167,33.011,5.61,33.011,10.927c0,6.206-19.165,11.233-42.805,11.233s-42.805-5.027-42.805-11.233
	c0-5.317,14.097-9.76,33.011-10.927c3.463-9.241,4.649-27.852,1.633-35.755c-47.475-3.11-62.057-33.242-62.057-52.509
	c0-24.473,10.499-53.726,17.065-68.19l46.421-0.275l-16.386,45.243l20.638,0.573l-6.168,34.832l33.625-48.506h-17.067l13.964-32.142
	h31.158c6.556,14.37,17.188,43.845,17.188,68.463C253.206,211.126,238.622,241.259,191.149,244.369z"/>
<g>
</g>
<g>
</g>
<g>
</g>
<g>
</g>
<g>
</g>
<g>
</g>
<g>
</g>
<g>
</g>
<g>
</g>
<g>
</g>
<g>
</g>
<g>
</g>
<g>
</g>
<g>
</g>
<g>
</g>
</svg>
