<?xml version="1.0" encoding="iso-8859-1"?>
<!-- Generator: Adobe Illustrator 17.1.0, SVG Export Plug-In . SVG Version: 6.00 Build 0)  -->
<!DOCTYPE svg PUBLIC "-//W3C//DTD SVG 1.1//EN" "http://www.w3.org/Graphics/SVG/1.1/DTD/svg11.dtd">
<svg version="1.1" id="Capa_1" xmlns="http://www.w3.org/2000/svg" xmlns:xlink="http://www.w3.org/1999/xlink" x="0px" y="0px"
	 viewBox="0 0 365.465 365.465" style="enable-background:new 0 0 365.465 365.465;" xml:space="preserve">
<path d="M354.681,121.16L311.024,16.602C307.007,6.982,296.525,0,286.1,0H79.365C68.94,0,58.458,6.982,54.441,16.602L10.784,121.16
	c-0.588,1.408-2.091,7.115-2.091,8.662v222.644c0,7.168,5.832,13,13,13h322.079c7.168,0,13-5.832,13-13V129.821
	C356.772,128.274,355.269,122.567,354.681,121.16z M257.863,250.003l-0.354,0.01c-1.789,0-3.511-0.724-4.726-1.986
	c-4.613-4.751-10.81-7.376-17.435-7.376c-6.6,0.003-12.776,2.601-17.387,7.313c-1.22,1.244-2.912,1.955-4.648,1.955
	c-1.558,0-3.065-0.561-4.244-1.579c-4.225-3.636-9.13-6.352-14.381-8.033v77.94c0,15.961-12.985,28.946-28.945,28.946
	c-15.961,0-28.946-12.985-28.946-28.946c0-6.627,5.373-12,12-12c6.627,0,12,5.373,12,12c0,2.727,2.219,4.946,4.946,4.946
	s4.945-2.219,4.945-4.946v-77.912c-5.219,1.685-10.095,4.393-14.3,8.011c-1.179,1.014-2.684,1.573-4.238,1.573
	c-1.738,0-3.432-0.713-4.647-1.956c-4.612-4.71-10.788-7.308-17.387-7.312c-6.625,0-12.821,2.625-17.446,7.391
	c-1.204,1.249-2.924,1.971-4.709,1.971l-0.385-0.011c-3.423-0.185-6.125-3.036-6.125-6.49c0.024-31.489,27.525-67.471,65.281-75.624
	v-8.155c0-6.627,5.373-12,12-12s12,5.373,12,12v6.871c41.807,4.421,73.253,43.235,73.281,76.904
	C264.013,246.965,261.312,249.817,257.863,250.003z M207.051,116.821V95.707c0-4.962-4.038-9-9-9h-30.638c-4.962,0-9,4.038-9,9
	v21.115H45.105L81.357,30h77.057v17.933c0,4.962,4.038,9,9,9h30.638c4.962,0,9-4.038,9-9V30h77.057l36.252,86.821H207.051z"/>
<g>
</g>
<g>
</g>
<g>
</g>
<g>
</g>
<g>
</g>
<g>
</g>
<g>
</g>
<g>
</g>
<g>
</g>
<g>
</g>
<g>
</g>
<g>
</g>
<g>
</g>
<g>
</g>
<g>
</g>
</svg>
