<?xml version="1.0" encoding="iso-8859-1"?>
<!-- Generator: Adobe Illustrator 17.1.0, SVG Export Plug-In . SVG Version: 6.00 Build 0)  -->
<!DOCTYPE svg PUBLIC "-//W3C//DTD SVG 1.1//EN" "http://www.w3.org/Graphics/SVG/1.1/DTD/svg11.dtd">
<svg version="1.1" id="Capa_1" xmlns="http://www.w3.org/2000/svg" xmlns:xlink="http://www.w3.org/1999/xlink" x="0px" y="0px"
	 viewBox="0 0 397.526 397.526" style="enable-background:new 0 0 397.526 397.526;" xml:space="preserve">
<g>
	<path d="M312.558,193.548V29.869c0-8.271-6.729-15-15-15h-92.162c-8.271,0-15,6.729-15,15v29.712c0,2.757-2.243,5-5,5h-58.233
		c-2.757,0-5-2.243-5-5V29.869c0-8.271-6.729-15-15-15H15c-8.271,0-15,6.729-15,15v247.979c0,8.271,6.729,15,15,15h193.039
		c2.609,49.963,44.077,89.81,94.677,89.81c52.278,0,94.81-42.531,94.81-94.81C397.526,238.894,360.229,198.487,312.558,193.548z
		 M179.256,176.624v67.529h-45.959v-67.525h-25.083l48.067-54.201l48.063,54.198H179.256z M302.717,352.658
		c-35.736,0-64.809-29.073-64.809-64.81c0-35.735,29.073-64.809,64.809-64.809c35.736,0,64.81,29.073,64.81,64.809
		C367.526,323.584,338.453,352.658,302.717,352.658z"/>
	<path d="M335.479,255.086c-5.858-5.858-15.355-5.858-21.213,0l-11.55,11.549l-11.55-11.549c-5.857-5.857-15.355-5.857-21.213,0
		c-5.858,5.857-5.858,15.355,0,21.213l11.549,11.549l-11.549,11.549c-5.858,5.857-5.858,15.355,0,21.213
		c2.929,2.93,6.767,4.394,10.606,4.394c3.838,0,7.678-1.465,10.606-4.394l11.55-11.549l11.55,11.549
		c2.929,2.929,6.768,4.394,10.606,4.394s7.678-1.465,10.606-4.394c5.858-5.857,5.858-15.355,0-21.213l-11.549-11.549l11.549-11.549
		C341.337,270.442,341.337,260.944,335.479,255.086z"/>
</g>
<g>
</g>
<g>
</g>
<g>
</g>
<g>
</g>
<g>
</g>
<g>
</g>
<g>
</g>
<g>
</g>
<g>
</g>
<g>
</g>
<g>
</g>
<g>
</g>
<g>
</g>
<g>
</g>
<g>
</g>
</svg>
