<?xml version="1.0" encoding="iso-8859-1"?>
<!-- Generator: Adobe Illustrator 17.1.0, SVG Export Plug-In . SVG Version: 6.00 Build 0)  -->
<!DOCTYPE svg PUBLIC "-//W3C//DTD SVG 1.1//EN" "http://www.w3.org/Graphics/SVG/1.1/DTD/svg11.dtd">
<svg version="1.1" id="Capa_1" xmlns="http://www.w3.org/2000/svg" xmlns:xlink="http://www.w3.org/1999/xlink" x="0px" y="0px"
	 viewBox="0 0 387.617 387.617" style="enable-background:new 0 0 387.617 387.617;" xml:space="preserve">
<g>
	<path d="M13.713,54.377l133.542,25.86c5.589,1.082,11.604,2.146,13.692,2.422l7.386,0.043l0.326-0.043
		c2.089-0.276,8.102-1.34,13.689-2.422l133.542-25.86c2.008-0.389,8.12-1.571,8.095-6.806c-0.025-5.234-6.147-6.359-8.159-6.729
		L175.541,15.063c-2.905-0.533-6.719-0.827-10.739-0.827c-4.021,0-7.834,0.294-10.739,0.827L13.777,40.842
		c-2.012,0.37-8.133,1.495-8.158,6.729C5.595,52.805,11.706,53.988,13.713,54.377z"/>
	<path d="M382.491,343.507l-44.574-44.574c10.285-15.14,15.826-32.989,15.826-51.696c0-23.246-8.546-45.175-24.14-62.215V99.304
		c0-7.569-5.585-13.277-12.991-13.277c-0.917,0-1.852,0.091-2.777,0.27l-125.661,24.334c-5.304,1.027-13.992,2.36-19.272,2.962
		c-0.037,0.003-0.928,0.072-4.101,0.072c-3.166,0-4.058-0.079-4.006-0.063c-5.376-0.611-14.064-1.944-19.368-2.972L15.768,86.297
		c-0.926-0.179-1.86-0.27-2.777-0.27C5.585,86.027,0,91.735,0,99.304v172.462c0,7.922,6.091,15.306,13.867,16.811l140.167,27.144
		c2.915,0.564,6.739,0.875,10.768,0.875s7.853-0.311,10.769-0.875l20.045-3.882c0.208,0.212,0.402,0.433,0.612,0.643
		c17.427,17.428,40.599,27.026,65.245,27.026c18.706,0,36.556-5.541,51.696-15.826l44.573,44.573
		c3.417,3.417,7.896,5.126,12.375,5.126s8.958-1.709,12.375-5.126C389.325,361.421,389.325,350.341,382.491,343.507z
		 M217.44,291.268c-11.761-11.762-18.239-27.399-18.239-44.032s6.478-32.271,18.239-44.032
		c11.762-11.761,27.399-18.238,44.032-18.238c16.633,0,32.271,6.478,44.032,18.238c11.761,11.762,18.239,27.399,18.239,44.032
		s-6.478,32.271-18.239,44.032c-11.761,11.762-27.398,18.239-44.032,18.239C244.84,309.508,229.202,303.03,217.44,291.268z"/>
</g>
<g>
</g>
<g>
</g>
<g>
</g>
<g>
</g>
<g>
</g>
<g>
</g>
<g>
</g>
<g>
</g>
<g>
</g>
<g>
</g>
<g>
</g>
<g>
</g>
<g>
</g>
<g>
</g>
<g>
</g>
</svg>
