<?xml version="1.0" encoding="iso-8859-1"?>
<!-- Generator: Adobe Illustrator 17.1.0, SVG Export Plug-In . SVG Version: 6.00 Build 0)  -->
<!DOCTYPE svg PUBLIC "-//W3C//DTD SVG 1.1//EN" "http://www.w3.org/Graphics/SVG/1.1/DTD/svg11.dtd">
<svg version="1.1" id="Capa_1" xmlns="http://www.w3.org/2000/svg" xmlns:xlink="http://www.w3.org/1999/xlink" x="0px" y="0px"
	 viewBox="0 0 358.213 358.213" style="enable-background:new 0 0 358.213 358.213;" xml:space="preserve">
<path d="M349.27,124.719c-0.235-2.024-0.763-4.062-1.599-6.065L305.06,16.603C301.043,6.982,290.561,0,280.136,0H78.077
	C67.652,0,57.17,6.982,53.153,16.603L10.542,118.655c-0.836,2.002-1.364,4.04-1.599,6.064c-0.208,0.922-0.327,1.876-0.327,2.86
	v217.634c0,7.168,5.832,13,13,13h314.98c7.168,0,13-5.832,13-13V127.579C349.597,126.596,349.478,125.641,349.27,124.719z
	 M206.743,236.193v81.227h-55.281v-81.222h-30.171l57.817-65.196l57.813,65.192H206.743z M203.02,114.579V94.097
	c0-4.962-4.037-9-9-9h-29.826c-4.963,0-9,4.038-9,9v20.482H44.754L80.069,30h75.124v17.158c0,4.962,4.037,9,9,9h29.826
	c4.963,0,9-4.038,9-9V30h75.124l35.316,84.579H203.02z"/>
<g>
</g>
<g>
</g>
<g>
</g>
<g>
</g>
<g>
</g>
<g>
</g>
<g>
</g>
<g>
</g>
<g>
</g>
<g>
</g>
<g>
</g>
<g>
</g>
<g>
</g>
<g>
</g>
<g>
</g>
</svg>
