<?xml version="1.0" encoding="iso-8859-1"?>
<!-- Generator: Adobe Illustrator 17.1.0, SVG Export Plug-In . SVG Version: 6.00 Build 0)  -->
<!DOCTYPE svg PUBLIC "-//W3C//DTD SVG 1.1//EN" "http://www.w3.org/Graphics/SVG/1.1/DTD/svg11.dtd">
<svg version="1.1" id="Capa_1" xmlns="http://www.w3.org/2000/svg" xmlns:xlink="http://www.w3.org/1999/xlink" x="0px" y="0px"
	 viewBox="0 0 418.08 418.08" style="enable-background:new 0 0 418.08 418.08;" xml:space="preserve">
<path d="M402.726,38.423c-2.932,0-5.737,0.816-8.347,2.433c-3.386,2.101-8.253,3.258-13.704,3.258
	c-4.538,0-9.364-0.765-14.349-2.271c-6.556-1.983-14.27-9.037-22.918-20.953c-2.956-4.082-7.818-6.52-13.005-6.52
	c-5.103,0-9.885,2.412-12.791,6.446C309,32.762,301.271,39.836,294.639,41.842c-4.911,1.486-10.187,2.271-15.254,2.271
	c-5.973,0-11.501-1.126-14.785-3.01c-1.719-0.987-5.268-2.644-9.719-2.644c-9.421,0-16.801,7.538-16.801,17.16v47.41l-57.29-10.527
	c-2.905-0.533-6.719-0.827-10.739-0.827c-4.02,0-7.834,0.294-10.738,0.827l-145.54,26.743c-2.012,0.37-8.134,1.495-8.158,6.729
	c-0.025,5.233,6.085,6.417,8.094,6.807l138.573,26.834c5.588,1.082,11.654,2.152,13.81,2.438l7.597,0.043l0.326-0.043
	c2.154-0.285,8.219-1.355,13.806-2.438l50.62-9.802c1.15,10.245,5.075,20.532,11.635,30.639L193.9,191.331
	c-5.315,1.029-14.004,2.362-19.317,2.966c-0.012,0.001-1.175,0.108-4.531,0.108c-3.292,0-4.475-0.103-4.483-0.103c0,0,0,0,0.001,0
	c-5.364-0.61-14.054-1.942-19.368-2.972L15.769,166.072c-0.927-0.179-1.861-0.27-2.778-0.27C5.585,165.803,0,171.511,0,179.08
	v178.785c0,7.92,6.091,15.304,13.867,16.811l145.416,28.16c2.915,0.563,6.739,0.875,10.768,0.875s7.853-0.312,10.769-0.875
	l145.417-28.16c7.775-1.507,13.866-8.891,13.866-16.811V234.104c2.325-1.113,5.116-2.561,8.51-4.452
	c6.685-3.726,16.892-9.924,27.566-18.294c27.412-21.494,41.901-44.968,41.901-67.881V54.646
	C418.08,44.108,410.169,38.423,402.726,38.423z M388.08,143.478c0,27.868-45.077,55.97-60.328,63.324
	c-14.547-6.714-59.672-34.472-59.672-63.324V73.275c3.599,0.555,7.382,0.838,11.305,0.838c7.972,0,16.25-1.229,23.939-3.557
	c10.882-3.291,19.933-10.471,27.177-18.134c7.257,7.666,16.307,14.857,27.14,18.134c7.802,2.36,15.552,3.557,23.034,3.557
	c2.52,0,4.993-0.138,7.405-0.41V143.478z"/>
<g>
</g>
<g>
</g>
<g>
</g>
<g>
</g>
<g>
</g>
<g>
</g>
<g>
</g>
<g>
</g>
<g>
</g>
<g>
</g>
<g>
</g>
<g>
</g>
<g>
</g>
<g>
</g>
<g>
</g>
</svg>
