<?xml version="1.0" encoding="iso-8859-1"?>
<!-- Generator: Adobe Illustrator 17.1.0, SVG Export Plug-In . SVG Version: 6.00 Build 0)  -->
<!DOCTYPE svg PUBLIC "-//W3C//DTD SVG 1.1//EN" "http://www.w3.org/Graphics/SVG/1.1/DTD/svg11.dtd">
<svg version="1.1" id="Capa_1" xmlns="http://www.w3.org/2000/svg" xmlns:xlink="http://www.w3.org/1999/xlink" x="0px" y="0px"
	 viewBox="0 0 374.51 374.51" style="enable-background:new 0 0 374.51 374.51;" xml:space="preserve">
<g>
	<path d="M13.691,59.653l155.064,30.028c5.495,1.063,11.863,2.18,14.196,2.487l8.285,0.043l0.326-0.043
		c2.331-0.308,8.697-1.424,14.191-2.487l155.065-30.028c2.008-0.389,8.119-1.571,8.094-6.806c-0.024-5.234-6.146-6.359-8.158-6.729
		L197.993,16.21c-2.904-0.533-6.719-0.827-10.738-0.827c-4.02,0-7.834,0.294-10.739,0.827L13.756,46.118
		c-2.012,0.37-8.134,1.495-8.159,6.729C5.573,58.082,11.684,59.265,13.691,59.653z"/>
	<path d="M361.52,97.168c-0.918,0-1.853,0.091-2.777,0.27l-146.077,28.287c-5.302,1.027-13.99,2.36-19.357,2.971
		c-0.021,0.002-2.191,0.235-6.052,0.235c-3.862,0-6.033-0.233-6.044-0.234c-5.376-0.611-14.064-1.944-19.367-2.972L15.768,97.438
		c-0.926-0.179-1.86-0.27-2.777-0.27C5.584,97.168,0,102.876,0,110.445V309.95c0,7.92,6.091,15.304,13.867,16.811l162.62,31.491
		c2.915,0.564,6.739,0.875,10.768,0.875c4.029,0,7.854-0.311,10.768-0.875l162.621-31.491c7.775-1.507,13.866-8.891,13.866-16.811
		V110.445C374.51,102.876,368.925,97.168,361.52,97.168z M260.935,243.329v75.443l-30.34,6.106v-79.104h-16.559l31.732-43.389
		l31.73,40.943H260.935z M336.662,226.229v75.442l-30.34,6.107v-79.104h-16.559l31.732-43.389l31.73,40.943H336.662z"/>
</g>
<g>
</g>
<g>
</g>
<g>
</g>
<g>
</g>
<g>
</g>
<g>
</g>
<g>
</g>
<g>
</g>
<g>
</g>
<g>
</g>
<g>
</g>
<g>
</g>
<g>
</g>
<g>
</g>
<g>
</g>
</svg>
