<?xml version="1.0" encoding="iso-8859-1"?>
<!-- Generator: Adobe Illustrator 17.1.0, SVG Export Plug-In . SVG Version: 6.00 Build 0)  -->
<!DOCTYPE svg PUBLIC "-//W3C//DTD SVG 1.1//EN" "http://www.w3.org/Graphics/SVG/1.1/DTD/svg11.dtd">
<svg version="1.1" id="Capa_1" xmlns="http://www.w3.org/2000/svg" xmlns:xlink="http://www.w3.org/1999/xlink" x="0px" y="0px"
	 viewBox="0 0 369.091 369.091" style="enable-background:new 0 0 369.091 369.091;" xml:space="preserve">
<path d="M358.186,122.412L314.005,16.603C309.989,6.982,299.507,0,289.082,0H80.009C69.584,0,59.102,6.982,55.085,16.603
	l-44.181,105.81c-0.471,1.128-2.173,6.712-2.173,8.53v225.148c0,7.168,5.832,13,13,13h325.627c7.168,0,13-5.832,13-13V130.942
	C360.359,129.124,358.657,123.54,358.186,122.412z M192.439,287.595c-2.917,7.644-1.773,25.645,1.579,34.582
	c18.293,1.128,31.928,5.426,31.928,10.568c0,6.002-18.536,10.865-41.4,10.865s-41.4-4.863-41.4-10.865
	c0-5.142,13.635-9.44,31.928-10.568c3.349-8.938,4.496-26.938,1.579-34.582c-45.917-3.008-60.021-32.152-60.021-50.787
	c0-23.67,10.155-51.964,16.505-65.953l44.898-0.266l-15.848,43.759l19.961,0.554l-5.966,33.689l32.522-46.915h-16.507l13.506-31.087
	h30.136c6.341,13.898,16.624,42.407,16.624,66.217C252.46,255.443,238.354,284.587,192.439,287.595z M209.067,117.942V96.512
	c0-4.962-4.037-9-9-9h-31.043c-4.962,0-9,4.038-9,9v21.431H45.281L82.001,30h78.022v18.32c0,4.962,4.038,9,9,9h31.043
	c4.963,0,9-4.038,9-9V30h78.022l36.72,87.942H209.067z"/>
<g>
</g>
<g>
</g>
<g>
</g>
<g>
</g>
<g>
</g>
<g>
</g>
<g>
</g>
<g>
</g>
<g>
</g>
<g>
</g>
<g>
</g>
<g>
</g>
<g>
</g>
<g>
</g>
<g>
</g>
</svg>
