<?xml version="1.0" encoding="iso-8859-1"?>
<!-- Generator: Adobe Illustrator 17.1.0, SVG Export Plug-In . SVG Version: 6.00 Build 0)  -->
<!DOCTYPE svg PUBLIC "-//W3C//DTD SVG 1.1//EN" "http://www.w3.org/Graphics/SVG/1.1/DTD/svg11.dtd">
<svg version="1.1" id="Capa_1" xmlns="http://www.w3.org/2000/svg" xmlns:xlink="http://www.w3.org/1999/xlink" x="0px" y="0px"
	 viewBox="0 0 397.686 397.686" style="enable-background:new 0 0 397.686 397.686;" xml:space="preserve">
<path d="M382.029,41.505c-2.952,0-5.868,0.839-8.44,2.433c-3.388,2.101-8.345,3.258-13.958,3.258c-4.634,0-9.51-0.764-14.491-2.271
	c-6.558-1.983-14.272-9.038-22.935-20.976c-2.958-4.068-7.813-6.498-12.99-6.498c-5.103,0-9.887,2.412-12.791,6.446
	c-8.612,11.946-16.342,19.021-22.973,21.027c-4.911,1.485-10.134,2.271-15.102,2.271c-5.906,0-11.208-1.098-14.552-3.017
	c-2.099-1.202-5.454-2.636-9.521-2.636c-9.459,0-16.592,7.377-16.592,17.159v43.552h-12.29c-8.271,0-15,6.729-15,15v29.711
	c0,2.757-2.243,5-5,5h-58.233c-2.757,0-5-2.243-5-5v-29.711c0-8.271-6.729-15-15-15H15c-8.271,0-15,6.729-15,15v247.979
	c0,8.271,6.729,15,15,15h282.558c8.271,0,15-6.729,15-15V240.109c2.995-0.912,7.677-2.923,15.66-7.374
	c6.685-3.726,16.892-9.924,27.566-18.294c27.412-21.494,41.901-44.968,41.901-67.881V57.729
	C397.686,48.631,390.809,41.505,382.029,41.505z M179.255,264.009v67.528h-45.958v-67.525h-25.083l48.067-54.202l48.063,54.198
	H179.255z M367.686,146.56c0,27.868-45.077,55.97-60.328,63.324c-14.547-6.714-59.672-34.472-59.672-63.324V76.435
	c10.695,1.581,23.161,0.621,34.451-2.795c10.882-3.291,19.932-10.472,27.176-18.135c7.256,7.666,16.307,14.857,27.142,18.135
	c7.801,2.359,15.599,3.556,23.177,3.556c2.749,0,5.439-0.159,8.055-0.474V146.56z"/>
<g>
</g>
<g>
</g>
<g>
</g>
<g>
</g>
<g>
</g>
<g>
</g>
<g>
</g>
<g>
</g>
<g>
</g>
<g>
</g>
<g>
</g>
<g>
</g>
<g>
</g>
<g>
</g>
<g>
</g>
</svg>
