<?xml version="1.0" encoding="iso-8859-1"?>
<!-- Generator: Adobe Illustrator 17.1.0, SVG Export Plug-In . SVG Version: 6.00 Build 0)  -->
<!DOCTYPE svg PUBLIC "-//W3C//DTD SVG 1.1//EN" "http://www.w3.org/Graphics/SVG/1.1/DTD/svg11.dtd">
<svg version="1.1" id="Capa_1" xmlns="http://www.w3.org/2000/svg" xmlns:xlink="http://www.w3.org/1999/xlink" x="0px" y="0px"
	 viewBox="0 0 353.215 353.215" style="enable-background:new 0 0 353.215 353.215;" xml:space="preserve">
<path d="M349.891,140.531l-14.652-36.686c-2.407-6.028-9.118-10.575-15.61-10.575h-80.273c-1.626,0-3-1.374-3-3v-29.14
	c0-1.626,1.374-3,3-3h57.905c3.865,0,7.093-1.629,8.854-4.47c1.763-2.841,1.789-6.456,0.073-9.919l-9.94-20.059
	c-2.81-5.671-9.702-9.948-16.032-9.948H73c-6.33,0-13.223,4.277-16.032,9.948l-9.939,20.059c-1.717,3.463-1.69,7.079,0.072,9.919
	c1.762,2.841,4.989,4.47,8.854,4.47h57.905c1.626,0,3,1.374,3,3v29.14c0,1.626-1.374,3-3,3H33.587
	c-6.492,0-13.203,4.546-15.61,10.575L3.324,140.531C1.46,145.197,0,152.789,0,157.816V326.48c0,7.168,5.832,13,13,13h327.215
	c7.168,0,13-5.832,13-13V157.816C353.215,152.789,351.755,145.197,349.891,140.531z M183.4,270.038
	c-2.51,6.578-1.525,22.068,1.359,29.759c15.742,0.971,27.475,4.669,27.475,9.094c0,5.165-15.951,9.349-35.626,9.349
	s-35.626-4.184-35.626-9.349c0-4.425,11.733-8.123,27.475-9.094c2.882-7.691,3.869-23.181,1.359-29.759
	c-39.513-2.588-51.65-27.667-51.65-43.703c0-20.369,8.739-44.716,14.203-56.755l38.133-0.229l-13.638,37.656l17.177,0.476
	l-4.631,28.99l28.489-40.371h-14.205l11.623-26.751h25.429c5.457,11.96,14.305,36.492,14.305,56.982
	C235.05,242.37,222.911,267.449,183.4,270.038z"/>
<g>
</g>
<g>
</g>
<g>
</g>
<g>
</g>
<g>
</g>
<g>
</g>
<g>
</g>
<g>
</g>
<g>
</g>
<g>
</g>
<g>
</g>
<g>
</g>
<g>
</g>
<g>
</g>
<g>
</g>
</svg>
