<?xml version="1.0" encoding="iso-8859-1"?>
<!-- Generator: Adobe Illustrator 17.1.0, SVG Export Plug-In . SVG Version: 6.00 Build 0)  -->
<!DOCTYPE svg PUBLIC "-//W3C//DTD SVG 1.1//EN" "http://www.w3.org/Graphics/SVG/1.1/DTD/svg11.dtd">
<svg version="1.1" id="Capa_1" xmlns="http://www.w3.org/2000/svg" xmlns:xlink="http://www.w3.org/1999/xlink" x="0px" y="0px"
	 viewBox="0 0 414.383 414.383" style="enable-background:new 0 0 414.383 414.383;" xml:space="preserve">
<path d="M244.123,62.134c7.72,0,14-6.28,14-14v-6.238H359.02c4.411,0,8-3.589,8-8V8c0-4.411-3.589-8-8-8H55.363
	c-4.411,0-8,3.589-8,8v25.896c0,4.411,3.589,8,8,8H156.26v6.238c0,7.72,6.28,14,14,14h17.014v20.603c0,8.284,6.716,15,15,15
	c0.355,0,0.703-0.029,1.052-0.053c0.349,0.023,0.697,0.053,1.052,0.053c7.794,0,14.151,6.203,14.434,13.93
	c-11.363-6.688-24.175-6.878-32.122,0.058c-0.886,0.773-2.114,1.822-3.545,3.033c-3.871-0.682-8.001,0.14-11.428,2.635
	c-3.958,2.883-6.076,7.34-6.153,11.885l-97.055,78.966h-9.212c-6.065,0-11,4.935-11,11v184.141c0,6.065,4.935,11,11,11h295.79
	c6.065,0,11-4.935,11-11V219.242c0-6.065-4.935-11-11-11h-16.244l-94.524-76.536c2.891-5.894,4.52-12.515,4.52-19.51
	c0-20.032-13.319-37.005-31.564-42.546v-7.517H244.123z M115.904,284.656l36.881-41.587l36.878,41.585h-19.25v43.639h-35.263
	v-43.637H115.904z M308.515,379.556H105.867v-26.664h202.648V379.556z M279.229,284.654v43.639h-35.263v-43.637h-19.245
	l36.88-41.587l36.878,41.585H279.229z M291.169,208.242H116.044l68.929-56.082c5.982,2.906,12.606,4.497,19.405,4.497
	c6.496,0,12.665-1.412,18.233-3.927L291.169,208.242z"/>
<g>
</g>
<g>
</g>
<g>
</g>
<g>
</g>
<g>
</g>
<g>
</g>
<g>
</g>
<g>
</g>
<g>
</g>
<g>
</g>
<g>
</g>
<g>
</g>
<g>
</g>
<g>
</g>
<g>
</g>
</svg>
