<?xml version="1.0" encoding="iso-8859-1"?>
<!-- Generator: Adobe Illustrator 17.1.0, SVG Export Plug-In . SVG Version: 6.00 Build 0)  -->
<!DOCTYPE svg PUBLIC "-//W3C//DTD SVG 1.1//EN" "http://www.w3.org/Graphics/SVG/1.1/DTD/svg11.dtd">
<svg version="1.1" id="Capa_1" xmlns="http://www.w3.org/2000/svg" xmlns:xlink="http://www.w3.org/1999/xlink" x="0px" y="0px"
	 viewBox="0 0 365.975 365.975" style="enable-background:new 0 0 365.975 365.975;" xml:space="preserve">
<path d="M350.975,20.341H239.011c-8.271,0-15,6.729-15,15v38.488c0,2.757-2.243,5-5,5h-72.046c-2.757,0-5-2.243-5-5V35.341
	c0-8.271-6.729-15-15-15H15c-8.271,0-15,6.729-15,15v295.292c0,8.271,6.729,15,15,15h335.975c8.271,0,15-6.729,15-15V35.341
	C365.975,27.07,359.246,20.341,350.975,20.341z M241.523,135.668l39.674,44.738h-20.709v46.948h-37.937v-46.945h-20.705
	L241.523,135.668z M124.455,135.668l39.674,44.738h-20.71v46.948h-37.937v-46.945H84.778L124.455,135.668z M291.994,282.504H73.981
	v-28.837h218.013V282.504z"/>
<g>
</g>
<g>
</g>
<g>
</g>
<g>
</g>
<g>
</g>
<g>
</g>
<g>
</g>
<g>
</g>
<g>
</g>
<g>
</g>
<g>
</g>
<g>
</g>
<g>
</g>
<g>
</g>
<g>
</g>
</svg>
