<?xml version="1.0" encoding="iso-8859-1"?>
<!-- Generator: Adobe Illustrator 17.1.0, SVG Export Plug-In . SVG Version: 6.00 Build 0)  -->
<!DOCTYPE svg PUBLIC "-//W3C//DTD SVG 1.1//EN" "http://www.w3.org/Graphics/SVG/1.1/DTD/svg11.dtd">
<svg version="1.1" id="Capa_1" xmlns="http://www.w3.org/2000/svg" xmlns:xlink="http://www.w3.org/1999/xlink" x="0px" y="0px"
	 viewBox="0 0 405.455 405.455" style="enable-background:new 0 0 405.455 405.455;" xml:space="preserve">
<path d="M363.838,184.305l-39.401-87.639c-4.206-9.354-14.704-16.145-24.961-16.145h-49.245l11.147-15.17
	c1.751-2.383,2.1-5.185,0.93-7.495c-1.169-2.311-3.633-3.689-6.59-3.689h-20.74V9c0-4.963-4.038-9-9-9h-46.492c-4.962,0-9,4.037-9,9
	v45.172h-20.747c-2.958,0-5.421,1.379-6.591,3.689c-1.169,2.31-0.821,5.111,0.93,7.494l11.144,15.166h-49.242
	c-10.257,0-20.755,6.79-24.961,16.146l-39.4,87.637c-0.481,1.069-2.883,4.924-2.883,9.69v198.461c0,7.168,5.832,13,13,13h301.986
	c7.168,0,13-5.832,13-13V193.994C366.721,190.228,364.319,185.374,363.838,184.305z M107.681,110.521h69.584l19.063,25.943
	c1.573,2.141,3.905,3.368,6.397,3.368c2.493,0,4.824-1.228,6.398-3.368l19.063-25.943h69.587l31.683,70.473H75.998L107.681,110.521z
	"/>
<g>
</g>
<g>
</g>
<g>
</g>
<g>
</g>
<g>
</g>
<g>
</g>
<g>
</g>
<g>
</g>
<g>
</g>
<g>
</g>
<g>
</g>
<g>
</g>
<g>
</g>
<g>
</g>
<g>
</g>
</svg>
