<?xml version="1.0" encoding="iso-8859-1"?>
<!-- Generator: Adobe Illustrator 17.1.0, SVG Export Plug-In . SVG Version: 6.00 Build 0)  -->
<!DOCTYPE svg PUBLIC "-//W3C//DTD SVG 1.1//EN" "http://www.w3.org/Graphics/SVG/1.1/DTD/svg11.dtd">
<svg version="1.1" id="Capa_1" xmlns="http://www.w3.org/2000/svg" xmlns:xlink="http://www.w3.org/1999/xlink" x="0px" y="0px"
	 viewBox="0 0 447.608 447.608" style="enable-background:new 0 0 447.608 447.608;" xml:space="preserve">
<g>
	<path d="M360.885,208.697v-10.379h43.294c6.74,0,12.649-3.297,15.808-8.819s3.003-12.288-0.414-18.096l-61.23-104.092
		c-4.117-7.002-12.342-11.707-20.466-11.707H84.374c-8.124,0-16.349,4.705-20.464,11.704L2.678,171.402
		c-3.418,5.809-3.573,12.574-0.415,18.097s9.067,8.819,15.808,8.819h43.294v80.368c0,10.484,7.852,21.104,17.875,24.177
		l116.078,35.583c4.277,1.312,9.891,2.033,15.808,2.033c5.916,0,11.529-0.722,15.807-2.033l40.88-12.531
		c11.118,38.141,46.391,66.09,88.073,66.09c50.576,0,91.723-41.146,91.723-91.723C447.608,251.383,409.145,211.302,360.885,208.697z
		 M147.847,171.101H35.768l51.93-88.28h112.079L147.847,171.101z M223.777,83.522h110.298l51.104,86.878H274.881L223.777,83.522z
		 M355.885,362.004c-34.034,0-61.723-27.688-61.723-61.723s27.688-61.723,61.723-61.723s61.723,27.688,61.723,61.723
		S389.919,362.004,355.885,362.004z"/>
	<path d="M387.791,268.376c-5.857-5.857-15.355-5.857-21.213,0l-10.692,10.692l-10.692-10.692c-5.857-5.858-15.355-5.858-21.213,0
		c-5.858,5.857-5.858,15.355,0,21.213l10.693,10.693l-10.693,10.692c-5.858,5.857-5.858,15.355,0,21.213
		c2.929,2.929,6.768,4.394,10.606,4.394s7.678-1.465,10.606-4.394l10.692-10.692l10.692,10.692c2.929,2.93,6.768,4.394,10.606,4.394
		c3.838,0,7.678-1.465,10.606-4.394c5.858-5.857,5.858-15.355,0-21.213l-10.693-10.692l10.693-10.693
		C393.649,283.732,393.649,274.234,387.791,268.376z"/>
</g>
<g>
</g>
<g>
</g>
<g>
</g>
<g>
</g>
<g>
</g>
<g>
</g>
<g>
</g>
<g>
</g>
<g>
</g>
<g>
</g>
<g>
</g>
<g>
</g>
<g>
</g>
<g>
</g>
<g>
</g>
</svg>
