<?xml version="1.0" encoding="iso-8859-1"?>
<!-- Generator: Adobe Illustrator 17.1.0, SVG Export Plug-In . SVG Version: 6.00 Build 0)  -->
<!DOCTYPE svg PUBLIC "-//W3C//DTD SVG 1.1//EN" "http://www.w3.org/Graphics/SVG/1.1/DTD/svg11.dtd">
<svg version="1.1" id="Capa_1" xmlns="http://www.w3.org/2000/svg" xmlns:xlink="http://www.w3.org/1999/xlink" x="0px" y="0px"
	 viewBox="0 0 374.51 374.51" style="enable-background:new 0 0 374.51 374.51;" xml:space="preserve">
<g>
	<path d="M13.691,59.653l155.063,30.028c5.494,1.063,11.861,2.18,14.195,2.487l8.285,0.043l0.326-0.043
		c2.331-0.308,8.697-1.424,14.191-2.487l155.065-30.028c2.008-0.389,8.119-1.571,8.094-6.806c-0.024-5.234-6.146-6.359-8.158-6.729
		L197.993,16.21c-2.904-0.533-6.719-0.827-10.738-0.827s-7.834,0.294-10.738,0.827L13.755,46.118
		c-2.011,0.37-8.133,1.495-8.157,6.729C5.572,58.082,11.684,59.265,13.691,59.653z"/>
	<path d="M275.912,207.668l85.026-20.051c7.61-1.81,13.571-9.355,13.571-17.178v-59.994c0-7.569-5.585-13.277-12.99-13.277
		c-0.918,0-1.853,0.091-2.777,0.27l-146.077,28.287c-5.302,1.027-13.99,2.36-19.357,2.971c-0.021,0.002-2.191,0.235-6.053,0.235
		c-3.86,0-6.032-0.233-6.044-0.234c-5.374-0.611-14.063-1.944-19.368-2.972L15.769,97.438c-0.926-0.179-1.86-0.27-2.778-0.27
		C5.585,97.168,0,102.876,0,110.445v59.994c0,7.822,5.961,15.368,13.581,17.18l85.024,20.051c3.075,0.721,5.876,4.254,5.876,7.413
		v37.438c0,0.882-0.246,2.932-2.522,2.932c-0.324,0-0.672-0.044-1.032-0.13l-85.036-20.438c-1.124-0.271-2.258-0.407-3.369-0.407
		C5.383,234.479,0,240.038,0,247.41v62.54c0,7.92,6.091,15.304,13.867,16.811l162.619,31.491c2.915,0.564,6.739,0.875,10.769,0.875
		s7.854-0.311,10.768-0.875l162.621-31.491c7.775-1.507,13.866-8.891,13.866-16.811v-62.54c0-7.372-5.383-12.932-12.521-12.932
		c-1.111,0-2.245,0.137-3.369,0.407l-85.036,20.438c-0.36,0.086-0.708,0.13-1.033,0.13c-2.275,0-2.521-2.05-2.521-2.932v-37.438
		C270.028,211.924,272.829,208.391,275.912,207.668z"/>
</g>
<g>
</g>
<g>
</g>
<g>
</g>
<g>
</g>
<g>
</g>
<g>
</g>
<g>
</g>
<g>
</g>
<g>
</g>
<g>
</g>
<g>
</g>
<g>
</g>
<g>
</g>
<g>
</g>
<g>
</g>
</svg>
