<?xml version="1.0" encoding="iso-8859-1"?>
<!-- Generator: Adobe Illustrator 17.1.0, SVG Export Plug-In . SVG Version: 6.00 Build 0)  -->
<!DOCTYPE svg PUBLIC "-//W3C//DTD SVG 1.1//EN" "http://www.w3.org/Graphics/SVG/1.1/DTD/svg11.dtd">
<svg version="1.1" id="Capa_1" xmlns="http://www.w3.org/2000/svg" xmlns:xlink="http://www.w3.org/1999/xlink" x="0px" y="0px"
	 viewBox="0 0 417.76 417.76" style="enable-background:new 0 0 417.76 417.76;" xml:space="preserve">
<path d="M356.86,189.563c-12.377-12.378-27.659-20.78-44.302-24.626V51.808c0-8.271-6.729-15-15-15h-92.162c-8.271,0-15,6.729-15,15
	V81.52c0,2.757-2.243,5-5,5h-58.234c-2.757,0-5-2.243-5-5V51.808c0-8.271-6.729-15-15-15H15c-8.271,0-15,6.729-15,15v247.98
	c0,8.271,6.729,15,15,15h206.535c1.54,1.797,3.134,3.563,4.835,5.265c17.427,17.428,40.599,27.026,65.245,27.026
	s47.818-9.599,65.245-27.026c17.428-17.427,27.026-40.599,27.026-65.245S374.288,206.989,356.86,189.563z M179.256,266.092h-45.959
	v-67.525h-25.083l48.067-54.201l48.063,54.198h-25.089V266.092z M335.647,298.84c-11.762,11.762-27.399,18.239-44.032,18.239
	s-32.271-6.478-44.032-18.239c-24.279-24.279-24.279-63.785,0-88.064c11.762-11.761,27.399-18.238,44.032-18.238
	s32.271,6.478,44.032,18.238c11.762,11.762,18.239,27.399,18.239,44.032S347.409,287.078,335.647,298.84z"/>
<path d="M400.26,380.952c-4.479,0-8.957-1.709-12.374-5.126l-47.159-47.159c-6.835-6.834-6.835-17.914,0-24.748
	c6.834-6.834,17.914-6.834,24.748,0l47.159,47.159c6.835,6.834,6.835,17.914,0,24.748
	C409.217,379.243,404.738,380.952,400.26,380.952z"/>
<g>
</g>
<g>
</g>
<g>
</g>
<g>
</g>
<g>
</g>
<g>
</g>
<g>
</g>
<g>
</g>
<g>
</g>
<g>
</g>
<g>
</g>
<g>
</g>
<g>
</g>
<g>
</g>
<g>
</g>
</svg>
