<?xml version="1.0" encoding="iso-8859-1"?>
<!-- Generator: Adobe Illustrator 17.1.0, SVG Export Plug-In . SVG Version: 6.00 Build 0)  -->
<!DOCTYPE svg PUBLIC "-//W3C//DTD SVG 1.1//EN" "http://www.w3.org/Graphics/SVG/1.1/DTD/svg11.dtd">
<svg version="1.1" id="Capa_1" xmlns="http://www.w3.org/2000/svg" xmlns:xlink="http://www.w3.org/1999/xlink" x="0px" y="0px"
	 viewBox="0 0 429.913 429.913" style="enable-background:new 0 0 429.913 429.913;" xml:space="preserve">
<g>
	<path d="M13.708,72.813l138.574,26.835c5.592,1.083,11.658,2.153,13.812,2.437l7.593,0.043l0.325-0.043
		c2.15-0.283,8.215-1.354,13.809-2.437l138.575-26.835c2.008-0.389,8.119-1.571,8.094-6.806c-0.025-5.234-6.147-6.359-8.159-6.729
		l-145.54-26.744c-2.905-0.533-6.719-0.827-10.739-0.827s-7.834,0.294-10.739,0.827L13.772,59.278
		c-2.012,0.37-8.134,1.495-8.158,6.729S11.701,72.424,13.708,72.813z"/>
	<path d="M340.104,208.719v-89.607c0-7.569-5.585-13.277-12.991-13.277c-0.917,0-1.852,0.091-2.778,0.27l-130.434,25.258
		c-5.303,1.027-13.991,2.36-19.321,2.967c-0.011,0.001-1.173,0.108-4.527,0.108c-3.294,0-4.476-0.104-4.483-0.104h0
		c-5.376-0.611-14.064-1.944-19.367-2.972L15.769,106.104c-0.926-0.179-1.86-0.27-2.778-0.27C5.585,105.834,0,111.542,0,119.112
		v178.785c0,7.92,6.091,15.304,13.867,16.811l145.417,28.159c2.915,0.564,6.739,0.875,10.768,0.875s7.853-0.311,10.769-0.875
		l63.451-12.287c11.714,39.072,47.998,67.627,90.832,67.627c52.278,0,94.809-42.531,94.809-94.81
		C429.913,252.795,390.066,211.327,340.104,208.719z M335.104,368.206c-35.736,0-64.81-29.073-64.81-64.81s29.073-64.81,64.81-64.81
		c35.736,0,64.809,29.073,64.809,64.81S370.839,368.206,335.104,368.206z"/>
	<path d="M367.866,270.634c-5.857-5.857-15.355-5.857-21.213,0l-11.55,11.55l-11.55-11.55c-5.858-5.859-15.355-5.857-21.213,0
		s-5.858,15.355,0,21.213l11.55,11.55l-11.55,11.55c-5.858,5.857-5.858,15.355,0,21.213c2.929,2.929,6.768,4.394,10.606,4.394
		s7.678-1.465,10.606-4.394l11.55-11.55l11.55,11.55c2.929,2.93,6.767,4.394,10.606,4.394c3.838,0,7.678-1.465,10.606-4.394
		c5.858-5.857,5.858-15.355,0-21.213l-11.55-11.55l11.55-11.55C373.724,285.99,373.724,276.491,367.866,270.634z"/>
</g>
<g>
</g>
<g>
</g>
<g>
</g>
<g>
</g>
<g>
</g>
<g>
</g>
<g>
</g>
<g>
</g>
<g>
</g>
<g>
</g>
<g>
</g>
<g>
</g>
<g>
</g>
<g>
</g>
<g>
</g>
</svg>
