<?xml version="1.0" encoding="iso-8859-1"?>
<!-- Generator: Adobe Illustrator 17.1.0, SVG Export Plug-In . SVG Version: 6.00 Build 0)  -->
<!DOCTYPE svg PUBLIC "-//W3C//DTD SVG 1.1//EN" "http://www.w3.org/Graphics/SVG/1.1/DTD/svg11.dtd">
<svg version="1.1" id="Capa_1" xmlns="http://www.w3.org/2000/svg" xmlns:xlink="http://www.w3.org/1999/xlink" x="0px" y="0px"
	 viewBox="0 0 374.51 374.51" style="enable-background:new 0 0 374.51 374.51;" xml:space="preserve">
<g>
	<path d="M13.691,59.654l155.064,30.028c5.495,1.063,11.863,2.18,14.196,2.487l8.284,0.043l0.326-0.043
		c2.333-0.308,8.699-1.424,14.192-2.487l155.065-30.028c2.008-0.389,8.119-1.571,8.095-6.806c-0.025-5.234-6.147-6.359-8.159-6.729
		L197.994,16.21c-2.905-0.533-6.719-0.827-10.739-0.827s-7.834,0.294-10.739,0.827L13.756,46.118
		c-2.012,0.37-8.134,1.495-8.159,6.729C5.573,58.082,11.684,59.265,13.691,59.654z"/>
	<path d="M361.519,97.168c-0.917,0-1.852,0.091-2.777,0.27l-146.076,28.287c-5.303,1.027-13.991,2.36-19.357,2.971
		c-0.021,0.002-2.192,0.235-6.053,0.235c-3.862,0-6.033-0.233-6.044-0.234c-5.376-0.611-14.064-1.944-19.367-2.972L15.768,97.438
		c-0.926-0.179-1.86-0.27-2.777-0.27C5.584,97.168,0,102.876,0,110.446V309.95c0,7.92,6.091,15.304,13.867,16.811l162.62,31.491
		c2.915,0.564,6.739,0.875,10.768,0.875s7.853-0.311,10.769-0.875l162.62-31.491c7.776-1.507,13.867-8.891,13.867-16.811V110.446
		C374.51,102.876,368.925,97.168,361.519,97.168z"/>
</g>
<g>
</g>
<g>
</g>
<g>
</g>
<g>
</g>
<g>
</g>
<g>
</g>
<g>
</g>
<g>
</g>
<g>
</g>
<g>
</g>
<g>
</g>
<g>
</g>
<g>
</g>
<g>
</g>
<g>
</g>
</svg>
