<?xml version="1.0" encoding="iso-8859-1"?>
<!-- Generator: Adobe Illustrator 17.1.0, SVG Export Plug-In . SVG Version: 6.00 Build 0)  -->
<!DOCTYPE svg PUBLIC "-//W3C//DTD SVG 1.1//EN" "http://www.w3.org/Graphics/SVG/1.1/DTD/svg11.dtd">
<svg version="1.1" id="Capa_1" xmlns="http://www.w3.org/2000/svg" xmlns:xlink="http://www.w3.org/1999/xlink" x="0px" y="0px"
	 viewBox="0 0 436.043 436.043" style="enable-background:new 0 0 436.043 436.043;" xml:space="preserve">
<g>
	<path d="M68.603,225.344h182.668c8.271,0,15-6.729,15-15V68.155c0-8.271-6.729-15-15-15h-49.521c-8.271,0-15,6.729-15,15v8.231
		c0,2.757-2.243,5-5,5h-43.625c-2.757,0-5-2.243-5-5v-8.231c0-8.271-6.729-15-15-15H68.603c-8.271,0-15,6.729-15,15v142.188
		C53.603,218.615,60.331,225.344,68.603,225.344z M215.633,121.038l22.753,25.657h-11.877v43.076h-21.756v-43.074h-11.874
		L215.633,121.038z M156.938,121.038l22.753,25.657h-11.877v43.076h-21.756v-43.074h-11.874L156.938,121.038z"/>
	<path d="M311.268,162.925h54.989v11.392c0,4.711,3.224,7.176,6.409,7.176c1.177,0,2.978-0.336,4.872-1.934l40.193-33.906
		c1.931-1.628,3.038-3.96,3.038-6.399c0.001-2.44-1.106-4.773-3.037-6.403l-40.196-33.908c-1.895-1.599-3.696-1.934-4.873-1.934
		c-3.186,0-6.409,2.465-6.409,7.176v11.387h-54.986c-4.963,0-9,4.037-9,9v29.354C302.268,158.888,306.305,162.925,311.268,162.925z"
		/>
	<path d="M377.428,265.657H58.615C26.295,265.657,0,291.952,0,324.272s26.295,58.615,58.615,58.615h318.813
		c32.32,0,58.615-26.295,58.615-58.615S409.748,265.657,377.428,265.657z M70.279,354.271c-16.568,0-29.999-13.431-29.999-29.999
		c0-16.568,13.431-29.999,29.999-29.999c16.568,0,29.999,13.431,29.999,29.999C100.277,340.84,86.847,354.271,70.279,354.271z
		 M168.774,354.271c-16.568,0-29.999-13.431-29.999-29.999c0-16.568,13.431-29.999,29.999-29.999
		c16.568,0,29.999,13.431,29.999,29.999C198.772,340.84,185.342,354.271,168.774,354.271z M267.269,354.271
		c-16.568,0-29.999-13.431-29.999-29.999c0-16.568,13.431-29.999,29.999-29.999c16.568,0,29.999,13.431,29.999,29.999
		C297.268,340.84,283.837,354.271,267.269,354.271z M365.764,354.271c-16.568,0-29.999-13.431-29.999-29.999
		c0-16.568,13.431-29.999,29.999-29.999c16.568,0,29.999,13.431,29.999,29.999C395.763,340.84,382.332,354.271,365.764,354.271z"/>
</g>
<g>
</g>
<g>
</g>
<g>
</g>
<g>
</g>
<g>
</g>
<g>
</g>
<g>
</g>
<g>
</g>
<g>
</g>
<g>
</g>
<g>
</g>
<g>
</g>
<g>
</g>
<g>
</g>
<g>
</g>
</svg>
