<?xml version="1.0" encoding="iso-8859-1"?>
<!-- Generator: Adobe Illustrator 17.1.0, SVG Export Plug-In . SVG Version: 6.00 Build 0)  -->
<!DOCTYPE svg PUBLIC "-//W3C//DTD SVG 1.1//EN" "http://www.w3.org/Graphics/SVG/1.1/DTD/svg11.dtd">
<svg version="1.1" id="Capa_1" xmlns="http://www.w3.org/2000/svg" xmlns:xlink="http://www.w3.org/1999/xlink" x="0px" y="0px"
	 viewBox="0 0 447.483 447.483" style="enable-background:new 0 0 447.483 447.483;" xml:space="preserve">
<g>
	<path d="M360.601,208.634v-10.463h42.405c6.74,0,12.649-3.297,15.808-8.819s3.003-12.288-0.414-18.096L357.03,66.927
		c-4.118-7.002-12.342-11.706-20.465-11.706H217.911h-14.744H84.512c-8.123,0-16.347,4.704-20.464,11.705L2.677,171.257
		c-3.417,5.809-3.571,12.574-0.413,18.096c3.159,5.521,9.067,8.818,15.807,8.818h42.405v80.598c0,10.484,7.852,21.104,17.876,24.177
		l116.38,35.676c4.277,1.312,9.89,2.033,15.807,2.033s11.53-0.722,15.807-2.033l41.026-12.576
		c11.134,38.213,46.47,66.217,88.229,66.217c50.664,0,91.883-41.219,91.883-91.883C447.483,251.393,408.949,211.24,360.601,208.634z
		 M145.702,168.835H38.704L88.28,84.557h106.998L145.702,168.835z M225.833,84.576h106.952l49.554,84.241H275.387L225.833,84.576z
		 M355.601,362.262c-34.122,0-61.882-27.761-61.882-61.883s27.76-61.883,61.882-61.883s61.883,27.761,61.883,61.883
		S389.723,362.262,355.601,362.262z"/>
	<path d="M378.414,269.305l-27.126,31.767l-11.192-11.192c-5.857-5.857-15.355-5.857-21.213,0c-5.858,5.857-5.858,15.355,0,21.213
		l14.889,14.889c4.757,4.758,11.207,7.438,17.826,7.438c0.319,0,0.64-0.007,0.96-0.02c6.953-0.272,13.568-3.506,18.149-8.871
		l30.521-35.743c5.379-6.3,4.634-15.768-1.667-21.147C393.265,262.26,383.795,263.004,378.414,269.305z"/>
</g>
<g>
</g>
<g>
</g>
<g>
</g>
<g>
</g>
<g>
</g>
<g>
</g>
<g>
</g>
<g>
</g>
<g>
</g>
<g>
</g>
<g>
</g>
<g>
</g>
<g>
</g>
<g>
</g>
<g>
</g>
</svg>
