<?xml version="1.0" encoding="iso-8859-1"?>
<!-- Generator: Adobe Illustrator 17.1.0, SVG Export Plug-In . SVG Version: 6.00 Build 0)  -->
<!DOCTYPE svg PUBLIC "-//W3C//DTD SVG 1.1//EN" "http://www.w3.org/Graphics/SVG/1.1/DTD/svg11.dtd">
<svg version="1.1" id="Capa_1" xmlns="http://www.w3.org/2000/svg" xmlns:xlink="http://www.w3.org/1999/xlink" x="0px" y="0px"
	 viewBox="0 0 372.42 372.42" style="enable-background:new 0 0 372.42 372.42;" xml:space="preserve">
<path d="M367.294,327.848l-44.574-44.572c10.285-15.141,15.827-32.991,15.827-51.697c0-21.809-7.528-42.453-21.332-58.994v-27.555
	c0-5.025-1.46-12.618-3.323-17.284l-12.493-31.279c-2.408-6.029-9.119-10.575-15.611-10.575h-70.175c-1.626,0-3-1.374-3-3V58.486
	c0-1.626,1.374-3,3-3h50.153c3.865,0,7.092-1.629,8.854-4.47c1.763-2.84,1.789-6.456,0.073-9.919l-8.152-16.451
	c-2.81-5.672-9.702-9.948-16.032-9.948H66.707c-6.33,0-13.223,4.276-16.032,9.947l-8.153,16.453
	c-1.716,3.464-1.688,7.079,0.074,9.919s4.989,4.469,8.854,4.469h50.152c1.626,0,3,1.374,3,3v24.404c0,1.626-1.374,3-3,3H31.428
	c-6.491,0-13.202,4.546-15.61,10.575L3.324,127.745C1.46,132.413,0,140.005,0,145.029v149.295c0,7.168,5.832,13,13,13h180.588
	c15.351,10.726,33.568,16.524,52.687,16.524c18.707,0,36.556-5.541,51.697-15.826l44.574,44.573
	c3.417,3.418,7.896,5.126,12.374,5.126s8.957-1.709,12.374-5.126C374.129,345.762,374.129,334.682,367.294,327.848z M202.243,275.61
	c-24.279-24.279-24.279-63.785,0-88.064c11.762-11.761,27.399-18.238,44.032-18.238s32.271,6.478,44.032,18.238
	c11.762,11.762,18.239,27.399,18.239,44.032s-6.478,32.271-18.239,44.032c-11.762,11.761-27.399,18.238-44.032,18.238
	S214.005,287.371,202.243,275.61z"/>
<g>
</g>
<g>
</g>
<g>
</g>
<g>
</g>
<g>
</g>
<g>
</g>
<g>
</g>
<g>
</g>
<g>
</g>
<g>
</g>
<g>
</g>
<g>
</g>
<g>
</g>
<g>
</g>
<g>
</g>
</svg>
