<?xml version="1.0" encoding="iso-8859-1"?>
<!-- Generator: Adobe Illustrator 17.1.0, SVG Export Plug-In . SVG Version: 6.00 Build 0)  -->
<!DOCTYPE svg PUBLIC "-//W3C//DTD SVG 1.1//EN" "http://www.w3.org/Graphics/SVG/1.1/DTD/svg11.dtd">
<svg version="1.1" id="Capa_1" xmlns="http://www.w3.org/2000/svg" xmlns:xlink="http://www.w3.org/1999/xlink" x="0px" y="0px"
	 viewBox="0 0 401.335 401.335" style="enable-background:new 0 0 401.335 401.335;" xml:space="preserve">
<g>
	<path d="M130.136,229.846h224.959c8.271,0,15-6.729,15-15V17.883c0-8.271-6.729-15-15-15H130.136c-8.271,0-15,6.729-15,15v196.964
		C115.136,223.117,121.865,229.846,130.136,229.846z M242.617,79.902l45.114,50.872h-23.549v63.385h-43.138v-63.381H197.5
		L242.617,79.902z"/>
	<path d="M400.009,302.608c-2.506-6.225-8.252-10.091-14.996-10.091c-3.342,0-6.721,0.929-10.042,2.762
		c-28.717,15.849-65.512,28.393-98.425,33.554c-4.862,0.763-10.511,1.149-16.789,1.149c-16.126,0-34.774-2.522-49.885-6.748
		c-15.385-4.302-24.639-9.797-24.845-14.734c0.169-0.065,0.589-0.172,1.522-0.172c3.033,0,8.821,1.085,16.148,2.459
		c12.749,2.391,30.21,5.665,46.403,5.665c7.785,0,14.633-0.774,20.355-2.301c14.143-3.774,19.037-12.852,18.901-20.089
		c-0.133-7.063-4.742-13.02-11.209-14.487c-3.479-0.79-11.674-3.423-22.048-6.759c-29.216-9.392-78.115-25.111-102.751-25.84
		c-0.183-0.005-0.377-0.008-0.581-0.008c-13.825,0-77.591,12.801-115.69,20.45c-10.13,2.034-18.131,3.64-23.179,4.604
		C7.455,273.06,0,274.484,0,281.917c0,14.391,0.38,28.241,0.783,42.904c0.41,14.942,0.834,30.392,0.834,46.741v0.376
		c-0.001,3.645-0.002,6.278,0.895,8.159c1.004,2.107,3.009,3.047,6.499,3.047c1.892,0,4.308-0.262,7.604-0.825
		c14.416-2.463,59.184-9.224,75.904-9.224c2.256,0,3.931,0.12,4.979,0.357c14.222,3.23,132.103,24.998,166.32,24.999
		c0.001,0,0.001,0,0.001,0c3.106,0,5.381-0.178,6.955-0.544c26.393-6.134,104.064-51.619,119.448-66.399
		C399.894,322.213,403.552,311.409,400.009,302.608z"/>
</g>
<g>
</g>
<g>
</g>
<g>
</g>
<g>
</g>
<g>
</g>
<g>
</g>
<g>
</g>
<g>
</g>
<g>
</g>
<g>
</g>
<g>
</g>
<g>
</g>
<g>
</g>
<g>
</g>
<g>
</g>
</svg>
