<?xml version="1.0" encoding="iso-8859-1"?>
<!-- Generator: Adobe Illustrator 17.1.0, SVG Export Plug-In . SVG Version: 6.00 Build 0)  -->
<!DOCTYPE svg PUBLIC "-//W3C//DTD SVG 1.1//EN" "http://www.w3.org/Graphics/SVG/1.1/DTD/svg11.dtd">
<svg version="1.1" id="Capa_1" xmlns="http://www.w3.org/2000/svg" xmlns:xlink="http://www.w3.org/1999/xlink" x="0px" y="0px"
	 viewBox="0 0 426.559 426.559" style="enable-background:new 0 0 426.559 426.559;" xml:space="preserve">
<g>
	<path d="M365.642,338.983H129.678V43.131C129.678,19.349,110.33,0,86.547,0s-43.13,19.349-43.13,43.131
		c0,9.665,7.835,17.5,17.5,17.5s17.5-7.835,17.5-17.5c0-4.483,3.647-8.131,8.13-8.131s8.13,3.647,8.13,8.131v298.353
		c0,17.921,14.58,32.5,32.5,32.5h18.727c-2.023,4.607-3.154,9.691-3.154,15.037c0,20.698,16.839,37.538,37.538,37.538
		c20.698,0,37.538-16.84,37.538-37.538c0-5.346-1.131-10.43-3.154-15.037h67.225c-2.023,4.607-3.154,9.691-3.154,15.037
		c0,20.698,16.839,37.538,37.538,37.538s37.538-16.84,37.538-37.538c0-5.346-1.131-10.43-3.154-15.037h14.976
		c9.665,0,17.5-7.835,17.5-17.5S375.307,338.983,365.642,338.983z"/>
	<path d="M176.547,313.113h164.03c8.271,0,15-6.729,15-15V155.115c0-8.271-6.729-15-15-15h-12.404
		c0.026-0.359,0.055-0.717,0.055-1.082V44.481c0-8.271-6.729-15-15-15H203.896c-8.271,0-15,6.729-15,15v94.552
		c0,0.365,0.029,0.723,0.055,1.082h-12.404c-8.271,0-15,6.729-15,15v142.998C161.547,306.385,168.276,313.113,176.547,313.113z
		 M258.563,72.506l23.819,26.859h-12.433v33.465h-22.776V99.367h-12.43L258.563,72.506z M258.563,199.221l33.893,38.218h-17.692
		v47.619h-32.408v-47.617h-17.688L258.563,199.221z"/>
</g>
<g>
</g>
<g>
</g>
<g>
</g>
<g>
</g>
<g>
</g>
<g>
</g>
<g>
</g>
<g>
</g>
<g>
</g>
<g>
</g>
<g>
</g>
<g>
</g>
<g>
</g>
<g>
</g>
<g>
</g>
</svg>
