<?xml version="1.0" encoding="iso-8859-1"?>
<!-- Generator: Adobe Illustrator 17.1.0, SVG Export Plug-In . SVG Version: 6.00 Build 0)  -->
<!DOCTYPE svg PUBLIC "-//W3C//DTD SVG 1.1//EN" "http://www.w3.org/Graphics/SVG/1.1/DTD/svg11.dtd">
<svg version="1.1" id="Capa_1" xmlns="http://www.w3.org/2000/svg" xmlns:xlink="http://www.w3.org/1999/xlink" x="0px" y="0px"
	 viewBox="0 0 442.045 442.045" style="enable-background:new 0 0 442.045 442.045;" xml:space="preserve">
<g>
	<path d="M291.54,256.335h110.368c8.271,0,15-6.729,15-15v-95.469c0-8.271-6.729-15-15-15h-28.329c-8.271,0-15,6.729-15,15v1.42
		c0,2.757-2.243,5-5,5h-13.71c-2.757,0-5-2.243-5-5v-1.42c0-8.271-6.729-15-15-15H291.54c-8.271,0-15,6.729-15,15v95.469
		C276.54,249.606,283.269,256.335,291.54,256.335z"/>
	<path d="M427.545,274.937H251.167v-36.435c0-35.645-14.391-54.31-23.913-66.661c-0.676-0.876-1.328-1.723-1.951-2.543
		c-7.762-10.228-14.036-21.74-19.573-31.898c-5.428-9.959-10.555-19.365-16.153-25.87c-12.487-14.513-24.239-21.567-35.925-21.567
		l-57.701,0c-0.055,0-5.567,0.068-12.2,0.068H14.34c-6.725,0-12.589,4.566-14.262,11.104L0,101.44v189.264
		c0,12.184,9.916,16.687,17.344,17.677c-0.063,0.928-0.107,1.861-0.107,2.804c0,22.551,18.35,40.897,40.903,40.897
		c22.555,0,40.904-18.346,40.904-40.897c0-0.868-0.036-1.727-0.09-2.582h45.372c-0.054,0.855-0.09,1.714-0.09,2.582
		c0,22.551,18.35,40.897,40.903,40.897c22.555,0,40.904-18.346,40.904-40.897c0-0.503-0.02-1.002-0.038-1.5h201.538
		c7.995,0,14.5-6.505,14.5-14.5v-5.747C442.045,281.442,435.54,274.937,427.545,274.937z M58.141,296.99
		c7.829,0,14.198,6.367,14.198,14.194c0,7.826-6.369,14.193-14.198,14.193c-7.826,0-14.193-6.367-14.193-14.193
		C43.947,303.358,50.314,296.99,58.141,296.99z M201.373,191.146c-0.45,0.745-1.727,1.067-3.695,0.941l-99.196-0.005v-80.914h42.886
		c11.539,0,19.716,5.023,28.224,17.337c5.657,8.189,20.634,33.971,21.401,35.293c0.532,1.026,1.078,2.069,1.63,3.123
		C196.946,175.182,203.48,187.665,201.373,191.146z M185.141,296.99c7.829,0,14.198,6.367,14.198,14.194
		c0,7.826-6.369,14.193-14.198,14.193c-7.826,0-14.193-6.367-14.193-14.193C170.947,303.358,177.314,296.99,185.141,296.99z"/>
</g>
<g>
</g>
<g>
</g>
<g>
</g>
<g>
</g>
<g>
</g>
<g>
</g>
<g>
</g>
<g>
</g>
<g>
</g>
<g>
</g>
<g>
</g>
<g>
</g>
<g>
</g>
<g>
</g>
<g>
</g>
</svg>
