<?xml version="1.0" encoding="iso-8859-1"?>
<!-- Generator: Adobe Illustrator 17.1.0, SVG Export Plug-In . SVG Version: 6.00 Build 0)  -->
<!DOCTYPE svg PUBLIC "-//W3C//DTD SVG 1.1//EN" "http://www.w3.org/Graphics/SVG/1.1/DTD/svg11.dtd">
<svg version="1.1" id="Capa_1" xmlns="http://www.w3.org/2000/svg" xmlns:xlink="http://www.w3.org/1999/xlink" x="0px" y="0px"
	 viewBox="0 0 445.08 445.08" style="enable-background:new 0 0 445.08 445.08;" xml:space="preserve">
<g>
	<path d="M125.763,185.206h124.158c8.284,0,15-6.716,15-15s-6.716-15-15-15H125.763c-8.284,0-15,6.716-15,15
		S117.479,185.206,125.763,185.206z"/>
	<path d="M125.763,247.319h124.158c8.284,0,15-6.716,15-15s-6.716-15-15-15H125.763c-8.284,0-15,6.716-15,15
		S117.479,247.319,125.763,247.319z"/>
	<path d="M371.831,295.74c-12.436-14.051-28.864-23.722-46.834-27.924V97.655c0-15.164-12.337-27.5-27.5-27.5h-14.121v-9.819
		c0-6.893-5.607-12.5-12.5-12.5h-32.761C236.807,21.237,214.759,0,187.842,0s-48.964,21.237-50.271,47.836H104.81
		c-6.893,0-12.5,5.607-12.5,12.5v9.819H78.188c-15.163,0-27.5,12.336-27.5,27.5v257.714c0,15.164,12.337,27.5,27.5,27.5h140.895
		c3.754,11.637,9.886,22.488,18.234,31.92c17.037,19.25,41.563,30.291,67.289,30.291c21.927,0,43.055-8.012,59.492-22.559
		c17.965-15.899,28.663-37.843,30.123-61.789C395.682,336.786,387.73,313.705,371.831,295.74z M215.091,347.869H85.688V105.155
		h6.622v8.485c0,6.893,5.607,12.5,12.5,12.5h166.065c6.893,0,12.5-5.607,12.5-12.5v-8.485h6.621v161.502
		c-12.478,2.049-22.872,5.716-33.439,12.701c-2.722,0-4.836,0.073-6.636,0.073H125.763c-8.284,0-15,6.716-15,15s6.716,15,15,15
		h101.56C220.438,321.021,216.223,334.087,215.091,347.869z M344.779,370.721c6.835,6.834,6.835,17.915,0,24.749
		c-3.417,3.417-7.896,5.125-12.374,5.125s-8.957-1.708-12.374-5.125l-15.457-15.457l-15.457,15.457
		c-3.417,3.417-7.896,5.125-12.374,5.125s-8.957-1.708-12.374-5.125c-6.835-6.834-6.835-17.915,0-24.749l15.457-15.457
		l-15.457-15.457c-6.835-6.834-6.835-17.915,0-24.749c6.834-6.834,17.914-6.834,24.748,0l15.457,15.457l15.457-15.457
		c6.834-6.834,17.914-6.834,24.748,0c6.835,6.834,6.835,17.915,0,24.749l-15.457,15.457L344.779,370.721z"/>
</g>
<g>
</g>
<g>
</g>
<g>
</g>
<g>
</g>
<g>
</g>
<g>
</g>
<g>
</g>
<g>
</g>
<g>
</g>
<g>
</g>
<g>
</g>
<g>
</g>
<g>
</g>
<g>
</g>
<g>
</g>
</svg>
