<?xml version="1.0" encoding="iso-8859-1"?>
<!-- Generator: Adobe Illustrator 17.1.0, SVG Export Plug-In . SVG Version: 6.00 Build 0)  -->
<!DOCTYPE svg PUBLIC "-//W3C//DTD SVG 1.1//EN" "http://www.w3.org/Graphics/SVG/1.1/DTD/svg11.dtd">
<svg version="1.1" id="Capa_1" xmlns="http://www.w3.org/2000/svg" xmlns:xlink="http://www.w3.org/1999/xlink" x="0px" y="0px"
	 viewBox="0 0 446.65 446.65" style="enable-background:new 0 0 446.65 446.65;" xml:space="preserve">
<g>
	<path d="M249.923,155.206H125.765c-8.284,0-15,6.716-15,15s6.716,15,15,15h124.158c8.284,0,15-6.716,15-15
		S258.207,155.206,249.923,155.206z"/>
	<path d="M249.923,217.318H125.765c-8.284,0-15,6.716-15,15s6.716,15,15,15h124.158c8.284,0,15-6.716,15-15
		S258.207,217.318,249.923,217.318z"/>
	<path d="M324.998,266.181V97.654c0-15.164-12.337-27.5-27.5-27.5h-14.122v-9.819c0-6.893-5.607-12.5-12.5-12.5h-32.761
		C236.808,21.237,214.76,0,187.844,0s-48.965,21.237-50.272,47.835h-32.761c-6.893,0-12.5,5.607-12.5,12.5v9.819H78.189
		c-15.163,0-27.5,12.336-27.5,27.5v257.714c0,15.164,12.337,27.5,27.5,27.5h139.264c11.731,36.94,46.349,63.782,87.122,63.782
		c50.391,0,91.386-40.996,91.386-91.386C395.961,311.893,365.59,275.483,324.998,266.181z M249.923,279.431H125.765
		c-8.284,0-15,6.716-15,15s6.716,15,15,15h99.775c-6.678,11.471-10.93,24.519-12.051,38.438H85.689V105.154h6.621v8.485
		c0,6.893,5.607,12.5,12.5,12.5h166.065c6.893,0,12.5-5.607,12.5-12.5v-8.485h6.622v159.892
		c-13.504,2.174-25.614,7.068-36.465,14.488C252.011,279.468,251.021,279.431,249.923,279.431z M357.446,341.964l-36.401,42.629
		c-5.032,5.893-12.304,9.445-19.95,9.746c-0.354,0.014-0.707,0.021-1.06,0.021c-7.279,0-14.369-2.943-19.595-8.169l-18.429-18.429
		c-6.834-6.834-6.833-17.915,0.001-24.749c6.834-6.834,17.913-6.835,24.749,0l12.817,12.818l31.25-36.596
		c6.278-7.35,17.323-8.22,24.673-1.944C362.852,323.568,363.722,334.614,357.446,341.964z"/>
</g>
<g>
</g>
<g>
</g>
<g>
</g>
<g>
</g>
<g>
</g>
<g>
</g>
<g>
</g>
<g>
</g>
<g>
</g>
<g>
</g>
<g>
</g>
<g>
</g>
<g>
</g>
<g>
</g>
<g>
</g>
</svg>
