<?xml version="1.0" encoding="iso-8859-1"?>
<!-- Generator: Adobe Illustrator 17.1.0, SVG Export Plug-In . SVG Version: 6.00 Build 0)  -->
<!DOCTYPE svg PUBLIC "-//W3C//DTD SVG 1.1//EN" "http://www.w3.org/Graphics/SVG/1.1/DTD/svg11.dtd">
<svg version="1.1" id="Capa_1" xmlns="http://www.w3.org/2000/svg" xmlns:xlink="http://www.w3.org/1999/xlink" x="0px" y="0px"
	 viewBox="0 0 422.26 422.26" style="enable-background:new 0 0 422.26 422.26;" xml:space="preserve">
<g>
	<path d="M421.504,188.429C421.504,84.529,336.975,0,233.076,0C155.933,0,89.481,46.604,60.364,113.131
		c-1.128-0.124-2.259-0.208-3.393-0.208c-16.799,0-29.661,13.523-41.008,25.454c-1.976,2.077-3.842,4.04-5.674,5.872
		c-12.758,12.753-12.708,40.694,0.135,74.742c14.147,37.505,42.087,78.313,78.675,114.904
		c65.223,65.217,127.184,88.362,160.426,88.366c0.003,0,0.006,0,0.009,0c12.854,0,22.952-3.303,29.203-9.553
		c1.834-1.835,3.798-3.703,5.878-5.681c12.258-11.658,26.151-24.871,25.427-42.272c-0.058-1.386-0.219-2.766-0.462-4.143
		C375.463,331.222,421.504,265.105,421.504,188.429z M289.567,331.079c-0.766-0.649-1.544-1.299-2.354-1.951
		c-17.747-14.262-31.56-20.905-43.471-20.905c-14.505,0-24.029,9.665-34.112,19.898c-1.068,1.084-2.154,2.186-3.266,3.297
		c-1.38,1.381-3.122,2.025-5.479,2.025c-0.001,0-0.001,0-0.002,0c-8.453,0-26.58-8.053-64.93-46.407
		c-17.347-17.348-30.04-32.138-37.727-43.958c-4.873-7.493-12.216-20.894-6.656-26.456c1.107-1.107,2.206-2.189,3.288-3.255
		c18.378-18.104,34.251-33.74-1.008-77.585c-1.125-1.401-2.248-2.713-3.369-3.983C113.059,75.146,168.465,35,233.076,35
		c84.601,0,153.428,68.828,153.428,153.429C386.504,253.091,346.294,308.535,289.567,331.079z"/>
	<path d="M202.057,196.907c7.885-8.545,13.637-15.577,17.097-20.897c3.65-5.614,5.501-11.832,5.501-18.482
		c0-9.829-3.314-17.831-9.852-23.784c-6.469-5.891-15.397-8.877-26.537-8.877c-11.332,0-20.506,3.479-27.267,10.342
		c-6.77,6.871-10.075,15.371-9.823,25.266l0.009,0.374l0.829,2.484h24.268v-2.5c0-4.755,1.068-8.56,3.176-11.31
		c1.979-2.582,4.86-3.837,8.808-3.837c3.525,0,6.132,1.056,7.97,3.228c1.944,2.297,2.889,5.229,2.889,8.966
		c0,2.803-0.918,5.943-2.729,9.333c-1.917,3.589-5.239,8.105-9.817,13.358l-33.787,36.225v16.914h74.885V212.89h-40.3
		L202.057,196.907z"/>
	<path d="M303.707,126.341h-24.555l-43.635,69.714l1.146,15.436h41.584v22.217h25.459v-22.217h11.601v-20.819h-11.601V126.341z
		 M261.724,190.672l16.524-26.241v26.241H261.724z"/>
</g>
<g>
</g>
<g>
</g>
<g>
</g>
<g>
</g>
<g>
</g>
<g>
</g>
<g>
</g>
<g>
</g>
<g>
</g>
<g>
</g>
<g>
</g>
<g>
</g>
<g>
</g>
<g>
</g>
<g>
</g>
</svg>
