<?xml version="1.0" encoding="iso-8859-1"?>
<!-- Generator: Adobe Illustrator 17.1.0, SVG Export Plug-In . SVG Version: 6.00 Build 0)  -->
<!DOCTYPE svg PUBLIC "-//W3C//DTD SVG 1.1//EN" "http://www.w3.org/Graphics/SVG/1.1/DTD/svg11.dtd">
<svg version="1.1" id="Capa_1" xmlns="http://www.w3.org/2000/svg" xmlns:xlink="http://www.w3.org/1999/xlink" x="0px" y="0px"
	 viewBox="0 0 426.949 426.949" style="enable-background:new 0 0 426.949 426.949;" xml:space="preserve">
<g>
	<path d="M210.47,29.347c2.47,5.196,8.669,9.201,14.42,9.314l14.158,0.281c-0.822,3.595-1.271,7.33-1.271,11.17
		c0,27.633,22.48,50.114,50.112,50.114c27.633,0,50.114-22.481,50.114-50.114C338.004,22.48,315.523,0,287.89,0
		c-9.826,0-18.992,2.854-26.736,7.76l-46.105-0.106c-3.579,0-6.594,1.522-8.271,4.178c-1.68,2.657-1.761,6.038-0.223,9.274
		L210.47,29.347z"/>
	<path d="M391.928,178.833l-38.361-53.447c-4.178-5.82-11.435-10.208-19.902-10.208c-2.164,0-8.657,0-8.657,0s-56.8,0-75.733,0
		c-14.392,0-21.669,2.777-26.185,5.07l-31.834,16.167c-1.428,0.725-3.452,1.251-5.628,1.504c0.01-0.219,0.033-0.435,0.033-0.657
		V29.637c0-8.271-6.729-15-15-15H46.568c-8.271,0-15,6.729-15,15v107.625c0,8.271,6.729,15,15,15h71.192
		c1.984,2.105,4.365,3.783,6.955,4.741l49.44,18.285c3.166,1.171,7.296,1.816,11.628,1.816c0.001,0,0,0,0.001,0
		c3.917,0,7.669-0.543,10.563-1.53l38.772-13.215v246.591c0,9.925,8.075,18,18,18h12.311c9.925,0,18-8.075,18-18V284.003h8.925
		v124.946c0,9.925,8.075,18,18,18h12.309c9.925,0,18-8.075,18-18V258.208h2.188c7.255,0,15.69-4.598,19.621-10.694l30.006-46.527
		C396.552,194.67,396.31,184.939,391.928,178.833z M121.3,91.926v37.285H95.925V91.927H82.076l26.539-29.926l26.537,29.924H121.3z
		 M356.432,199.047L340.665,221.3v-55.555l15.809,22.687C358.415,191.218,358.395,196.277,356.432,199.047z"/>
</g>
<g>
</g>
<g>
</g>
<g>
</g>
<g>
</g>
<g>
</g>
<g>
</g>
<g>
</g>
<g>
</g>
<g>
</g>
<g>
</g>
<g>
</g>
<g>
</g>
<g>
</g>
<g>
</g>
<g>
</g>
</svg>
