<?xml version="1.0" encoding="iso-8859-1"?>
<!-- Generator: Adobe Illustrator 17.1.0, SVG Export Plug-In . SVG Version: 6.00 Build 0)  -->
<!DOCTYPE svg PUBLIC "-//W3C//DTD SVG 1.1//EN" "http://www.w3.org/Graphics/SVG/1.1/DTD/svg11.dtd">
<svg version="1.1" id="Capa_1" xmlns="http://www.w3.org/2000/svg" xmlns:xlink="http://www.w3.org/1999/xlink" x="0px" y="0px"
	 viewBox="0 0 397.889 397.889" style="enable-background:new 0 0 397.889 397.889;" xml:space="preserve">
<g>
	<path d="M294.581,85.457c23.562,0,42.73-19.169,42.73-42.731c0-1.896-0.137-3.761-0.378-5.593l4.949-0.098
		c5.751-0.115,11.95-4.119,14.419-9.314l4.089-8.605c1.538-3.237,1.457-6.618-0.223-9.274c-1.678-2.655-4.693-4.178-8.302-4.178
		l-35.922,0.083C309.654,2.1,302.361,0,294.581,0c-23.56,0-42.727,19.167-42.727,42.726
		C251.854,66.288,271.022,85.457,294.581,85.457z"/>
	<path d="M394.074,196.466l-49.845-90.621c-3.501-6.366-7.88-11.353-19.201-11.353h-50.819c-7.069,0-12.763,5.234-14.108,6.649
		l-27.261,28.671c-4.413,4.641-8.897,13.188-10.208,19.458l-11.22,53.662c-0.157,0.751-0.237,1.502-0.278,2.25l-28.412,109.637
		H18.536c-8.284,0-15,6.716-15,15c0,3.561,1.247,6.828,3.32,9.4c-3.121,5.273-4.92,11.417-4.92,17.977
		c0,19.526,15.887,35.412,35.415,35.412c19.529,0,35.417-15.886,35.417-35.412c0-4.353-0.794-8.522-2.237-12.377h66.272
		c-1.443,3.855-2.237,8.024-2.237,12.377c0,19.526,15.887,35.412,35.415,35.412c19.529,0,35.417-15.886,35.417-35.412
		c0-5.971-1.492-11.598-4.113-16.538c4.362-3.051,7.692-7.568,9.07-12.884l29.858-115.216c0.759-1.207,1.368-2.51,1.776-3.896
		l12.157-41.379c0.833-2.834,2.836-6.565,5.062-9.687v68.899l-33.192,142.32c-2.859,12.259,4.701,24.905,16.852,28.189l0.354,0.096
		c1.939,0.524,3.928,0.79,5.913,0.79c0.001,0,0,0,0,0c10.413,0,19.348-7.12,21.725-17.313l30.292-129.885l11.816,32.095
		c3.254,8.839,6.822,24.218,7.791,33.584l6.332,61.148c1.119,10.805,9.642,18.646,20.266,18.646c1.735,0,3.496-0.213,5.23-0.633
		l0.357-0.086c12.041-2.916,20.576-15.288,19.027-27.58l-9.407-74.593c-1.284-10.178-5.314-26.251-8.985-35.831l-13.466-35.137
		c-0.115-0.3-0.254-0.587-0.38-0.881v-52.365l25.389,45.333c2.554,4.561,7.341,7.393,12.494,7.393c2.774,0,5.494-0.812,7.867-2.347
		l3.349-2.168C395.618,212.878,397.968,203.546,394.074,196.466z M169.981,345.388c6.514,0,11.813,5.297,11.813,11.808
		s-5.299,11.809-11.813,11.809c-6.51,0-11.807-5.297-11.807-11.809S163.471,345.388,169.981,345.388z M37.35,369.005
		c-6.511,0-11.808-5.297-11.808-11.809s5.297-11.808,11.808-11.808c6.513,0,11.813,5.297,11.813,11.808
		S43.863,369.005,37.35,369.005z"/>
	<path d="M15.311,291.438h148.671c6.065,0,11-4.935,11-11V179.575c0-6.065-4.935-11-11-11H15.311c-6.065,0-11,4.935-11,11v100.863
		C4.311,286.504,9.246,291.438,15.311,291.438z"/>
</g>
<g>
</g>
<g>
</g>
<g>
</g>
<g>
</g>
<g>
</g>
<g>
</g>
<g>
</g>
<g>
</g>
<g>
</g>
<g>
</g>
<g>
</g>
<g>
</g>
<g>
</g>
<g>
</g>
<g>
</g>
</svg>
