<?xml version="1.0" encoding="iso-8859-1"?>
<!-- Generator: Adobe Illustrator 17.1.0, SVG Export Plug-In . SVG Version: 6.00 Build 0)  -->
<!DOCTYPE svg PUBLIC "-//W3C//DTD SVG 1.1//EN" "http://www.w3.org/Graphics/SVG/1.1/DTD/svg11.dtd">
<svg version="1.1" id="Capa_1" xmlns="http://www.w3.org/2000/svg" xmlns:xlink="http://www.w3.org/1999/xlink" x="0px" y="0px"
	 viewBox="0 0 412.138 412.138" style="enable-background:new 0 0 412.138 412.138;" xml:space="preserve">
<path d="M397.138,234.923H237.101c-8.271,0-15,6.729-15,15v20.72h-15.649V18.754c0-6.065-4.935-11-11-11H39.649
	c-6.065,0-11,4.935-11,11v251.889H13c-7.168,0-13,5.832-13,13v17.342c0,7.168,5.832,13,13,13h209.101v75.399c0,8.271,6.729,15,15,15
	h160.037c8.271,0,15-6.729,15-15V249.923C412.138,241.652,405.409,234.923,397.138,234.923z M84.664,200.192H49.997v-16.756h34.667
	V200.192z M177.368,136.768H57.733V37.914h119.635V136.768z M332.97,330.244v46.585h-31.705v-46.583h-17.304l33.159-37.391
	l33.157,37.389H332.97z"/>
<g>
</g>
<g>
</g>
<g>
</g>
<g>
</g>
<g>
</g>
<g>
</g>
<g>
</g>
<g>
</g>
<g>
</g>
<g>
</g>
<g>
</g>
<g>
</g>
<g>
</g>
<g>
</g>
<g>
</g>
</svg>
