<?xml version="1.0" encoding="iso-8859-1"?>
<!-- Generator: Adobe Illustrator 17.1.0, SVG Export Plug-In . SVG Version: 6.00 Build 0)  -->
<!DOCTYPE svg PUBLIC "-//W3C//DTD SVG 1.1//EN" "http://www.w3.org/Graphics/SVG/1.1/DTD/svg11.dtd">
<svg version="1.1" id="Capa_1" xmlns="http://www.w3.org/2000/svg" xmlns:xlink="http://www.w3.org/1999/xlink" x="0px" y="0px"
	 viewBox="0 0 437.334 437.334" style="enable-background:new 0 0 437.334 437.334;" xml:space="preserve">
<g>
	<path d="M313.309,283.687l-19.889-16.778c-1.524-1.287-3.044-1.558-4.05-1.558c-3.252,0-5.704,2.617-5.704,6.088v3.103H258.96
		c-3.859,0-7,3.141-7,7v14.509c0,3.859,3.141,7,7,7h24.707v3.104c0,3.471,2.452,6.088,5.703,6.088c0.001,0,0.001,0,0.001,0
		c1.006,0,2.525-0.271,4.048-1.556l19.889-16.777c1.53-1.29,2.408-3.153,2.408-5.111
		C315.716,286.839,314.838,284.976,313.309,283.687z"/>
	<path d="M427.334,248.828h-83.396c-5.514,0-10,4.486-10,10V340.2c0,5.514,4.486,10,10,10h83.396c5.514,0,10-4.486,10-10v-81.372
		C437.334,253.315,432.848,248.828,427.334,248.828z M393.47,307.277v23.024H377.8v-23.023h-8.552l16.389-18.48l16.388,18.479
		H393.47z"/>
	<path d="M254.164,191.607c0.828-2.326,1.233-7.03-5.348-12.392l-28.983-23.633v-39.774c0-6.065-4.935-11-11-11h-17
		c-6.065,0-11,4.935-11,11v7.975l-38.737-31.586c-4.007-3.265-9.284-5.063-14.86-5.063c-5.529,0-10.754,1.776-14.716,5.004
		L5.803,179.214c-6.583,5.363-6.177,10.066-5.35,12.394c0.824,2.315,3.463,6.2,11.879,6.2h10.501V330.2
		c0,10.812,9.117,19.607,20.323,19.607H84.81c11.041,0,20.023-8.796,20.023-19.607v-42.461c0-5.477,4.476-9.932,9.977-9.932h25.773
		c5.556,0,10.25,4.548,10.25,9.932V330.2c0,10.995,8.675,19.607,19.75,19.607h40.879c11.232,0,20.371-8.796,20.371-19.607V197.808
		h10.452C250.702,197.808,253.34,193.923,254.164,191.607z"/>
</g>
<g>
</g>
<g>
</g>
<g>
</g>
<g>
</g>
<g>
</g>
<g>
</g>
<g>
</g>
<g>
</g>
<g>
</g>
<g>
</g>
<g>
</g>
<g>
</g>
<g>
</g>
<g>
</g>
<g>
</g>
</svg>
