<?xml version="1.0" encoding="iso-8859-1"?>
<!-- Generator: Adobe Illustrator 17.1.0, SVG Export Plug-In . SVG Version: 6.00 Build 0)  -->
<!DOCTYPE svg PUBLIC "-//W3C//DTD SVG 1.1//EN" "http://www.w3.org/Graphics/SVG/1.1/DTD/svg11.dtd">
<svg version="1.1" id="Capa_1" xmlns="http://www.w3.org/2000/svg" xmlns:xlink="http://www.w3.org/1999/xlink" x="0px" y="0px"
	 viewBox="0 0 419.977 419.977" style="enable-background:new 0 0 419.977 419.977;" xml:space="preserve">
<g>
	<path d="M351.267,141.996h-92.162c-8.271,0-15,6.729-15,15v29.712c0,2.757-2.243,5-5,5h-58.234c-2.757,0-5-2.243-5-5v-29.712
		c0-8.271-6.729-15-15-15H68.709c-8.271,0-15,6.729-15,15v247.98c0,8.271,6.729,15,15,15h282.558c8.271,0,15-6.729,15-15v-247.98
		C366.267,148.725,359.538,141.996,351.267,141.996z M232.965,303.751v67.529h-45.959v-67.525h-25.083l48.067-54.201l48.063,54.198
		H232.965z"/>
	<path d="M203.585,126.894c1.628,1.931,3.961,3.037,6.401,3.037s4.773-1.106,6.401-3.037l51.833-61.444
		c1.955-2.316,2.463-5.116,1.36-7.49s-3.571-3.791-6.602-3.791h-20.74V9c0-4.963-4.038-9-9-9h-46.492c-4.962,0-9,4.037-9,9v45.172
		h-20.747c-3.031,0-5.499,1.417-6.602,3.791c-1.104,2.374-0.595,5.174,1.359,7.49L203.585,126.894z"/>
</g>
<g>
</g>
<g>
</g>
<g>
</g>
<g>
</g>
<g>
</g>
<g>
</g>
<g>
</g>
<g>
</g>
<g>
</g>
<g>
</g>
<g>
</g>
<g>
</g>
<g>
</g>
<g>
</g>
<g>
</g>
</svg>
