<?xml version="1.0" encoding="iso-8859-1"?>
<!-- Generator: Adobe Illustrator 17.1.0, SVG Export Plug-In . SVG Version: 6.00 Build 0)  -->
<!DOCTYPE svg PUBLIC "-//W3C//DTD SVG 1.1//EN" "http://www.w3.org/Graphics/SVG/1.1/DTD/svg11.dtd">
<svg version="1.1" id="Capa_1" xmlns="http://www.w3.org/2000/svg" xmlns:xlink="http://www.w3.org/1999/xlink" x="0px" y="0px"
	 viewBox="0 0 432.17 432.17" style="enable-background:new 0 0 432.17 432.17;" xml:space="preserve">
<g>
	<path d="M216.085,181.969c19.972,0,36.22-16.248,36.22-36.22s-16.248-36.221-36.22-36.221s-36.22,16.249-36.22,36.221
		S196.113,181.969,216.085,181.969z"/>
	<path d="M291.002,0H141.168c-6.065,0-11,4.935-11,11v79.431c0,6.065,4.935,11,11,11c0,0-1.673,4.113-1.688,6.523l-0.433,67.942
		c-0.033,5.082,2.481,11.784,5.85,15.589l31.179,35.233V411.17c0,11.579,7.714,21,17.196,21s17.196-9.421,17.196-21v-92.948h11.229
		v92.948c0,11.579,7.714,21,17.195,21c9.482,0,17.196-9.421,17.196-21V228.298c0.039-0.043,0.081-0.08,0.12-0.124l32.467-36.688
		c3.367-3.805,5.883-10.507,5.851-15.589l-0.434-67.942c-0.016-2.433-0.769-4.694-2.042-6.577c5.575-0.53,9.952-5.235,9.952-10.947
		V11C302.002,4.935,297.067,0,291.002,0z M247.306,33.421l18.036,20.338h-9.415v25.34h-17.246V53.76h-9.412L247.306,33.421z
		 M184.865,33.421l18.036,20.338h-9.415v25.34h-17.246V53.76h-9.412L184.865,33.421z M267.972,108.01l-2.731,56.642
		c-0.129,2.67-1.953,7.064-3.754,9.041l-16.525,18.141H188.61l-16.526-18.141c-1.8-1.977-3.624-6.37-3.753-9.041l-2.732-56.64
		c-0.116-2.425-0.97-4.69-2.331-6.581h107.036C268.942,103.32,268.089,105.586,267.972,108.01z"/>
</g>
<g>
</g>
<g>
</g>
<g>
</g>
<g>
</g>
<g>
</g>
<g>
</g>
<g>
</g>
<g>
</g>
<g>
</g>
<g>
</g>
<g>
</g>
<g>
</g>
<g>
</g>
<g>
</g>
<g>
</g>
</svg>
