<?xml version="1.0" encoding="iso-8859-1"?>
<!-- Generator: Adobe Illustrator 17.1.0, SVG Export Plug-In . SVG Version: 6.00 Build 0)  -->
<!DOCTYPE svg PUBLIC "-//W3C//DTD SVG 1.1//EN" "http://www.w3.org/Graphics/SVG/1.1/DTD/svg11.dtd">
<svg version="1.1" id="Capa_1" xmlns="http://www.w3.org/2000/svg" xmlns:xlink="http://www.w3.org/1999/xlink" x="0px" y="0px"
	 viewBox="0 0 413.228 413.228" style="enable-background:new 0 0 413.228 413.228;" xml:space="preserve">
<path d="M398.228,222.468H351.86c-8.271,0-15,6.729-15,15v9.415c0,2.757-2.243,5-5,5h-26.292c-2.757,0-5-2.243-5-5v-9.415
	c0-8.271-6.729-15-15-15H239.2c-8.271,0-15,6.729-15,15v47.798c-0.685-0.112-1.383-0.186-2.099-0.186h-15.649V33.192
	c0-6.065-4.935-11-11-11H39.648c-6.065,0-11,4.935-11,11v251.889H13c-7.168,0-13,5.832-13,13v17.342c0,7.168,5.832,13,13,13h209.101
	c0.716,0,1.414-0.073,2.099-0.185v47.798c0,8.271,6.729,15,15,15h159.028c8.271,0,15-6.729,15-15V237.468
	C413.228,229.197,406.5,222.468,398.228,222.468z M84.663,210.738H49.997v-16.756h34.667V210.738z M177.368,151.206H57.732V52.352
	h119.635V151.206z M293.259,306.552v48.322h-24.406v-48.32h-13.32l25.525-28.783l25.524,28.781H293.259z M368.572,306.552v48.322
	h-24.406v-48.32h-13.32l25.526-28.783l25.524,28.781H368.572z"/>
<g>
</g>
<g>
</g>
<g>
</g>
<g>
</g>
<g>
</g>
<g>
</g>
<g>
</g>
<g>
</g>
<g>
</g>
<g>
</g>
<g>
</g>
<g>
</g>
<g>
</g>
<g>
</g>
<g>
</g>
</svg>
