<?xml version="1.0" encoding="iso-8859-1"?>
<!-- Generator: Adobe Illustrator 17.1.0, SVG Export Plug-In . SVG Version: 6.00 Build 0)  -->
<!DOCTYPE svg PUBLIC "-//W3C//DTD SVG 1.1//EN" "http://www.w3.org/Graphics/SVG/1.1/DTD/svg11.dtd">
<svg version="1.1" id="Capa_1" xmlns="http://www.w3.org/2000/svg" xmlns:xlink="http://www.w3.org/1999/xlink" x="0px" y="0px"
	 viewBox="0 0 436.016 436.016" style="enable-background:new 0 0 436.016 436.016;" xml:space="preserve">
<g>
	<path d="M309.565,157.136c2.469,5.195,8.668,9.2,14.42,9.314l5.134,0.102c-0.319,1.897-0.493,3.843-0.493,5.83
		c0,19.356,15.747,35.104,35.103,35.104c19.356,0,35.104-15.748,35.104-35.104c0-19.356-15.748-35.103-35.104-35.103
		c-6.711,0-12.987,1.896-18.325,5.177l-27.958-0.064c-3.579,0-6.595,1.523-8.272,4.178c-1.68,2.657-1.761,6.037-0.222,9.275
		L309.565,157.136z"/>
	<path d="M432.563,254.603l-21.718-30.259c-3.113-4.336-9.055-10.208-17.238-10.208h-59.755c-5.812,0-12.993,2.993-17.084,5.07
		l-15.31,7.775c-1.14,0.579-2.665,1.029-4.338,1.318c0.026-0.361,0.055-0.722,0.055-1.09v-65.162c0-8.271-6.729-15-15-15h-56.869
		c-8.271,0-15,6.729-15,15v65.162c0,8.271,6.729,15,15,15h25.587c1.889,1.846,4.1,3.329,6.494,4.214l26.75,9.894
		c3.166,1.171,7.296,1.816,11.628,1.816c0.001,0,0.001,0,0.001,0c3.917,0,7.669-0.543,10.563-1.53l20.522-6.995v171.537
		c0,7.72,6.28,14,14,14h2.744c7.72,0,14-6.28,14-14v-91.026h12.269v91.026c0,7.72,6.28,14,14,14h2.742c7.72,0,14-6.28,14-14V312.617
		c6.203-1.081,12.727-5.189,16.091-10.406l16.416-25.455C437.188,270.439,436.945,260.708,432.563,254.603z M400.607,254.837
		l5.619,8.064c1.94,2.786,1.921,7.846-0.042,10.616l-5.577,7.872V254.837z"/>
	<path d="M176.297,0.873H11c-6.065,0-11,4.935-11,11v276.419c0,6.065,4.935,11,11,11h165.297c6.065,0,11-4.935,11-11V11.873
		C187.297,5.807,182.362,0.873,176.297,0.873z M57.921,196.965H23.254v-16.756h34.667V196.965z M156.85,136.902H30.447V32.456
		H156.85V136.902z"/>
</g>
<g>
</g>
<g>
</g>
<g>
</g>
<g>
</g>
<g>
</g>
<g>
</g>
<g>
</g>
<g>
</g>
<g>
</g>
<g>
</g>
<g>
</g>
<g>
</g>
<g>
</g>
<g>
</g>
<g>
</g>
</svg>
