<?xml version="1.0" encoding="iso-8859-1"?>
<!-- Generator: Adobe Illustrator 17.1.0, SVG Export Plug-In . SVG Version: 6.00 Build 0)  -->
<!DOCTYPE svg PUBLIC "-//W3C//DTD SVG 1.1//EN" "http://www.w3.org/Graphics/SVG/1.1/DTD/svg11.dtd">
<svg version="1.1" id="Capa_1" xmlns="http://www.w3.org/2000/svg" xmlns:xlink="http://www.w3.org/1999/xlink" x="0px" y="0px"
	 viewBox="0 0 433.607 433.607" style="enable-background:new 0 0 433.607 433.607;" xml:space="preserve">
<g>
	<path d="M306.937,272.157h-24.431v-3.017c0-3.471-2.452-6.088-5.705-6.088c-1.006,0-2.525,0.271-4.048,1.556l-19.688,16.609
		c-1.53,1.29-2.408,3.153-2.408,5.112c0,1.958,0.878,3.821,2.407,5.111l19.692,16.61c1.524,1.285,3.042,1.555,4.047,1.556
		c0,0,0,0,0.001,0c1.874,0,3.617-0.934,4.665-2.498c0.68-1.015,1.04-2.256,1.04-3.59v-3.015h24.43c3.86,0,7-3.141,7-7v-14.348
		C313.937,275.298,310.797,272.157,306.937,272.157z"/>
	<path d="M423.607,246.666h-82.584c-5.514,0-10,4.486-10,10v80.576c0,5.514,4.486,10,10,10h82.584c5.514,0,10-4.486,10-10v-80.576
		C433.607,251.152,429.121,246.666,423.607,246.666z M390.081,304.648v22.825h-15.534V304.65h-8.478l16.246-18.32l16.245,18.318
		H390.081z"/>
	<path d="M246.551,177.484l-28.583-23.299v-39.209c0-6.065-4.935-11-11-11h-17c-6.065,0-11,4.935-11,11v7.419l-38.006-30.98
		c-3.997-3.257-9.263-5.05-14.829-5.05c-5.54,0-10.775,1.781-14.746,5.016L5.801,177.484c-6.57,5.354-6.174,10.023-5.353,12.331
		c0.819,2.301,3.452,6.161,11.883,6.161h10.638v131.266c0,10.882,8.935,19.734,19.917,19.734h41.029
		c11.058,0,20.053-8.853,20.053-19.734v-41.829c0-5.657,4.555-10.437,9.947-10.437h25.288c5.293,0,9.765,4.779,9.765,10.437v41.829
		c0,10.882,9.077,19.734,20.235,19.734h40.262c10.937,0,19.503-8.668,19.503-19.734V195.976h11.052
		c8.432,0,11.064-3.86,11.883-6.161C252.725,187.508,253.121,182.838,246.551,177.484z"/>
</g>
<g>
</g>
<g>
</g>
<g>
</g>
<g>
</g>
<g>
</g>
<g>
</g>
<g>
</g>
<g>
</g>
<g>
</g>
<g>
</g>
<g>
</g>
<g>
</g>
<g>
</g>
<g>
</g>
<g>
</g>
</svg>
