<?xml version="1.0" encoding="iso-8859-1"?>
<!-- Generator: Adobe Illustrator 17.1.0, SVG Export Plug-In . SVG Version: 6.00 Build 0)  -->
<!DOCTYPE svg PUBLIC "-//W3C//DTD SVG 1.1//EN" "http://www.w3.org/Graphics/SVG/1.1/DTD/svg11.dtd">
<svg version="1.1" id="Capa_1" xmlns="http://www.w3.org/2000/svg" xmlns:xlink="http://www.w3.org/1999/xlink" x="0px" y="0px"
	 viewBox="0 0 413.138 413.138" style="enable-background:new 0 0 413.138 413.138;" xml:space="preserve">
<path d="M398.138,235.423h-18.733V160.84c0-8.271-6.729-15-15-15h-92.571c-8.271,0-15,6.729-15,15v74.583h-18.733
	c-8.271,0-15,6.729-15,15v20.771c-0.331-0.025-0.662-0.051-1-0.051h-15.649V19.254c0-6.065-4.935-11-11-11H39.649
	c-6.065,0-11,4.935-11,11v251.889H13c-7.168,0-13,5.832-13,13v17.342c0,7.168,5.832,13,13,13h209.101c0.338,0,0.669-0.025,1-0.051
	v75.45c0,8.271,6.729,15,15,15h160.037c8.271,0,15-6.729,15-15V250.423C413.138,242.152,406.409,235.423,398.138,235.423z
	 M88.236,200.692H53.569v-16.756h34.667V200.692z M177.368,137.268H57.733V38.414h119.635V137.268z M318.12,183.936l20.732,23.378
	H328.03v29.128h-19.824v-29.127h-10.819L318.12,183.936z M333.97,330.744v46.585h-31.705v-46.583h-17.304l33.159-37.391
	l33.157,37.389H333.97z"/>
<g>
</g>
<g>
</g>
<g>
</g>
<g>
</g>
<g>
</g>
<g>
</g>
<g>
</g>
<g>
</g>
<g>
</g>
<g>
</g>
<g>
</g>
<g>
</g>
<g>
</g>
<g>
</g>
<g>
</g>
</svg>
