<?xml version="1.0" encoding="iso-8859-1"?>
<!-- Generator: Adobe Illustrator 17.1.0, SVG Export Plug-In . SVG Version: 6.00 Build 0)  -->
<!DOCTYPE svg PUBLIC "-//W3C//DTD SVG 1.1//EN" "http://www.w3.org/Graphics/SVG/1.1/DTD/svg11.dtd">
<svg version="1.1" id="Capa_1" xmlns="http://www.w3.org/2000/svg" xmlns:xlink="http://www.w3.org/1999/xlink" x="0px" y="0px"
	 viewBox="0 0 434.786 434.786" style="enable-background:new 0 0 434.786 434.786;" xml:space="preserve">
<g>
	<path d="M424.786,253.619h-110.08c-5.514,0-10,4.486-10,10v96.356c0,5.514,4.486,10,10,10h110.08c5.514,0,10-4.486,10-10v-96.356
		C434.786,258.106,430.3,253.619,424.786,253.619z M378.866,320.832v26.801h-18.24v-26.799h-9.955l19.077-21.512l19.075,21.51
		H378.866z"/>
	<path d="M291.446,173.844l-35.887-29.253V97.363c0-6.065-4.935-11-11-11h-22c-6.065,0-11,4.935-11,11v11.361L163.41,69.477
		c-3.999-3.259-9.269-5.054-14.838-5.054c-5.536,0-10.77,1.78-14.737,5.013L5.801,173.844c-6.573,5.355-6.175,10.034-5.352,12.347
		c0.82,2.306,3.454,6.173,11.882,6.173h16.228v157.612c0,11.242,8.815,20.388,19.651,20.388h53.403
		c10.812,0,19.945-9.336,19.945-20.388v-54.344c0-5.566,4.604-10.269,10.055-10.269h34.921c5.434,0,10.024,4.702,10.024,10.269
		v54.344c0,11.052,9.147,20.388,19.976,20.388h52.502c10.765,0,19.522-9.146,19.522-20.388V192.363h16.356
		c8.427,0,11.062-3.867,11.882-6.172C297.62,183.879,298.019,179.199,291.446,173.844z"/>
</g>
<g>
</g>
<g>
</g>
<g>
</g>
<g>
</g>
<g>
</g>
<g>
</g>
<g>
</g>
<g>
</g>
<g>
</g>
<g>
</g>
<g>
</g>
<g>
</g>
<g>
</g>
<g>
</g>
<g>
</g>
</svg>
