<?xml version="1.0" encoding="iso-8859-1"?>
<!-- Generator: Adobe Illustrator 17.1.0, SVG Export Plug-In . SVG Version: 6.00 Build 0)  -->
<!DOCTYPE svg PUBLIC "-//W3C//DTD SVG 1.1//EN" "http://www.w3.org/Graphics/SVG/1.1/DTD/svg11.dtd">
<svg version="1.1" id="Capa_1" xmlns="http://www.w3.org/2000/svg" xmlns:xlink="http://www.w3.org/1999/xlink" x="0px" y="0px"
	 viewBox="0 0 422.723 422.723" style="enable-background:new 0 0 422.723 422.723;" xml:space="preserve">
<g>
	<path d="M196.883,335.135h150.029c8.271,0,15-6.729,15-15V189.537c0-8.271-6.729-15-15-15h-10.337
		c0.042-0.455,0.07-0.915,0.07-1.38V87.319c0-8.271-6.729-15-15-15h-99.494c-8.271,0-15,6.729-15,15v85.837
		c0,0.466,0.028,0.925,0.07,1.38h-10.338c-8.271,0-15,6.729-15,15v130.598C181.883,328.406,188.612,335.135,196.883,335.135z
		 M271.898,112.451l22.007,24.816h-11.487v30.919h-21.043v-30.918H249.89L271.898,112.451z M271.899,229.526l31.314,35.311h-16.346
		v43.996h-29.943v-43.994h-16.342L271.899,229.526z"/>
	<path d="M113.717,79.918V57.29c0-8.284-6.716-15-15-15s-15,6.716-15,15v22.628c0,8.284,6.716,15,15,15
		S113.717,88.202,113.717,79.918z"/>
	<path d="M389.925,359.239l-276.208-0.07V158.394c36.917-7.043,64.918-39.538,64.918-78.476C178.635,35.851,142.784,0,98.717,0
		S18.799,35.851,18.799,79.918c0,38.938,28.001,71.434,64.919,78.476l0.099,250.252c0,7.719,6.279,14,13.999,14.002l292.106,0.074
		l0.004-5v5c7.718,0,13.997-6.279,13.997-13.998v-35.484C403.924,365.522,397.645,359.241,389.925,359.239z M48.799,79.918
		C48.799,52.393,71.193,30,98.717,30s49.918,22.393,49.918,49.918s-22.394,49.918-49.918,49.918S48.799,107.443,48.799,79.918z"/>
</g>
<g>
</g>
<g>
</g>
<g>
</g>
<g>
</g>
<g>
</g>
<g>
</g>
<g>
</g>
<g>
</g>
<g>
</g>
<g>
</g>
<g>
</g>
<g>
</g>
<g>
</g>
<g>
</g>
<g>
</g>
</svg>
