<?xml version="1.0" encoding="iso-8859-1"?>
<!-- Generator: Adobe Illustrator 17.1.0, SVG Export Plug-In . SVG Version: 6.00 Build 0)  -->
<!DOCTYPE svg PUBLIC "-//W3C//DTD SVG 1.1//EN" "http://www.w3.org/Graphics/SVG/1.1/DTD/svg11.dtd">
<svg version="1.1" id="Capa_1" xmlns="http://www.w3.org/2000/svg" xmlns:xlink="http://www.w3.org/1999/xlink" x="0px" y="0px"
	 viewBox="0 0 422.723 422.723" style="enable-background:new 0 0 422.723 422.723;" xml:space="preserve">
<g>
	<path d="M162.385,171.029v149.085c0,8.271,6.729,15,15,15h192.229c8.271,0,15-6.729,15-15V171.029c0-8.271-6.729-15-15-15h-50.771
		c-8.271,0-15,6.729-15,15v11.366c0,2.757-2.243,5-5,5h-50.688c-2.757,0-5-2.243-5-5v-11.366c0-8.271-6.729-15-15-15h-50.77
		C169.114,156.029,162.385,162.758,162.385,171.029z M315.833,214.668l27.217,30.69h-14.207v51.527h-26.025V245.36h-14.204
		L315.833,214.668z M231.167,214.668l27.217,30.69h-14.207v51.527h-26.025V245.36h-14.203L231.167,214.668z"/>
	<path d="M98.717,42.29c-8.284,0-15,6.716-15,15v22.628c0,8.284,6.716,15,15,15s15-6.716,15-15V57.29
		C113.717,49.005,107.001,42.29,98.717,42.29z"/>
	<path d="M389.925,359.239l-276.208-0.07V158.394c36.917-7.043,64.918-39.538,64.918-78.476C178.635,35.851,142.784,0,98.717,0
		S18.799,35.851,18.799,79.918c0,38.94,28.003,71.436,64.923,78.477l0.095,250.251c0,7.719,6.28,14,13.999,14.002l292.107,0.074
		l0.004-5v5c7.718,0,13.997-6.279,13.997-13.998v-35.484C403.924,365.522,397.645,359.241,389.925,359.239z M84.02,158.458
		c0.015,0.002,0.029,0.006,0.043,0.009C84.048,158.535,84.034,158.525,84.02,158.458z M48.799,79.918
		C48.799,52.393,71.192,30,98.717,30s49.918,22.393,49.918,49.918s-22.393,49.918-49.918,49.918S48.799,107.443,48.799,79.918z
		 M113.371,158.466c0.014-0.003,0.029-0.006,0.043-0.009C113.4,158.525,113.386,158.535,113.371,158.466z"/>
</g>
<g>
</g>
<g>
</g>
<g>
</g>
<g>
</g>
<g>
</g>
<g>
</g>
<g>
</g>
<g>
</g>
<g>
</g>
<g>
</g>
<g>
</g>
<g>
</g>
<g>
</g>
<g>
</g>
<g>
</g>
</svg>
