<?xml version="1.0" encoding="iso-8859-1"?>
<!-- Generator: Adobe Illustrator 17.1.0, SVG Export Plug-In . SVG Version: 6.00 Build 0)  -->
<!DOCTYPE svg PUBLIC "-//W3C//DTD SVG 1.1//EN" "http://www.w3.org/Graphics/SVG/1.1/DTD/svg11.dtd">
<svg version="1.1" id="Capa_1" xmlns="http://www.w3.org/2000/svg" xmlns:xlink="http://www.w3.org/1999/xlink" x="0px" y="0px"
	 viewBox="0 0 422.723 422.723" style="enable-background:new 0 0 422.723 422.723;" xml:space="preserve">
<g>
	<path d="M172.246,171.644v148.491c0,8.271,6.729,15,15,15h170.232c8.271,0,15-6.729,15-15V171.644c0-8.271-6.729-15-15-15H187.246
		C178.975,156.644,172.246,163.373,172.246,171.644z M272.363,217.573l35.035,39.506H289.11v49.224h-33.5v-49.221h-18.284
		L272.363,217.573z"/>
	<path d="M117.16,42.29c-8.284,0-15,6.716-15,15v22.628c0,8.284,6.716,15,15,15s15-6.716,15-15V57.29
		C132.16,49.005,125.444,42.29,117.16,42.29z"/>
	<path d="M371.482,359.239l-239.323-0.069V158.394c36.917-7.043,64.918-39.538,64.918-78.476C197.078,35.851,161.227,0,117.16,0
		S37.242,35.851,37.242,79.918c0,38.939,28.002,71.435,64.921,78.477l0.098,250.252c0,7.719,6.28,14,13.999,14.002l255.221,0.074
		h0.004c7.718,0,13.997-6.279,13.997-13.997v-35.484C385.481,365.522,379.201,359.24,371.482,359.239z M67.242,79.918
		C67.242,52.393,89.635,30,117.16,30s49.918,22.393,49.918,49.918s-22.393,49.918-49.918,49.918S67.242,107.443,67.242,79.918z"/>
</g>
<g>
</g>
<g>
</g>
<g>
</g>
<g>
</g>
<g>
</g>
<g>
</g>
<g>
</g>
<g>
</g>
<g>
</g>
<g>
</g>
<g>
</g>
<g>
</g>
<g>
</g>
<g>
</g>
<g>
</g>
</svg>
