<?xml version="1.0" encoding="iso-8859-1"?>
<!-- Generator: Adobe Illustrator 17.1.0, SVG Export Plug-In . SVG Version: 6.00 Build 0)  -->
<!DOCTYPE svg PUBLIC "-//W3C//DTD SVG 1.1//EN" "http://www.w3.org/Graphics/SVG/1.1/DTD/svg11.dtd">
<svg version="1.1" id="Capa_1" xmlns="http://www.w3.org/2000/svg" xmlns:xlink="http://www.w3.org/1999/xlink" x="0px" y="0px"
	 viewBox="0 0 468.986 468.986" style="enable-background:new 0 0 468.986 468.986;" xml:space="preserve">
<g>
	<path d="M467.63,263.31c-3.725-8.918-13.978-13.125-22.893-9.404l-201.738,84.256c-6.97-4.588-14.957-7.63-23.449-8.791
		L107.489,61.057C95.612,32.622,62.819,19.153,34.38,31.025C20.604,36.778,9.894,47.551,4.222,61.36
		c-5.673,13.809-5.628,28.999,0.125,42.774c3.726,8.917,13.976,13.124,22.894,9.403c8.918-3.726,13.128-13.975,9.403-22.894
		c-2.15-5.147-2.167-10.825-0.048-15.985c2.12-5.161,6.123-9.188,11.271-11.337c10.632-4.44,22.887,0.598,27.324,11.224
		l109.169,261.39c-11.279,6.211-20.047,15.992-25.01,28.072c-5.756,14.012-5.711,29.426,0.127,43.403
		c8.846,21.18,29.393,34.865,52.346,34.865c7.516,0,14.863-1.478,21.839-4.391c27.836-11.626,41.533-43.005,31.647-71.111
		l192.916-80.571C467.144,282.478,471.354,272.228,467.63,263.31z M220.175,405.589c-2.681,1.12-5.49,1.688-8.351,1.688
		c-8.791,0-16.661-5.241-20.049-13.354c-2.235-5.352-2.252-11.252-0.049-16.616c2.203-5.363,6.364-9.549,11.715-11.783
		c2.681-1.12,5.49-1.688,8.351-1.688c8.791,0,16.661,5.241,20.049,13.354C236.454,388.235,231.22,400.975,220.175,405.589z"/>
	<path d="M236.024,301.67c1.715,4.104,5.706,6.757,10.166,6.757c1.456,0,2.876-0.285,4.223-0.847l179.958-75.159
		c5.597-2.339,8.248-8.794,5.91-14.389L369.818,58.895c-1.715-4.105-5.705-6.758-10.167-6.758c-1.456,0-2.876,0.285-4.223,0.847
		l-179.957,75.159c-5.596,2.339-8.247,8.793-5.911,14.389L236.024,301.67z M295.464,162.426l46.32,22.356l-16.437,6.865
		l17.247,41.296l-30.111,12.575l-17.246-41.293l-16.433,6.863L295.464,162.426z"/>
</g>
<g>
</g>
<g>
</g>
<g>
</g>
<g>
</g>
<g>
</g>
<g>
</g>
<g>
</g>
<g>
</g>
<g>
</g>
<g>
</g>
<g>
</g>
<g>
</g>
<g>
</g>
<g>
</g>
<g>
</g>
</svg>
