<?xml version="1.0" encoding="iso-8859-1"?>
<!-- Generator: Adobe Illustrator 17.1.0, SVG Export Plug-In . SVG Version: 6.00 Build 0)  -->
<!DOCTYPE svg PUBLIC "-//W3C//DTD SVG 1.1//EN" "http://www.w3.org/Graphics/SVG/1.1/DTD/svg11.dtd">
<svg version="1.1" id="Capa_1" xmlns="http://www.w3.org/2000/svg" xmlns:xlink="http://www.w3.org/1999/xlink" x="0px" y="0px"
	 viewBox="0 0 424.336 424.336" style="enable-background:new 0 0 424.336 424.336;" xml:space="preserve">
<g>
	<path d="M155.672,301.63h209.265c8.271,0,15-6.729,15-15V123.973c0-8.271-6.729-15-15-15h-56.451c-8.271,0-15,6.729-15,15v13.884
		c0,2.757-2.243,5-5,5h-56.363c-2.757,0-5-2.243-5-5v-13.884c0-8.271-6.729-15-15-15h-56.45c-8.271,0-15,6.729-15,15V286.63
		C140.672,294.901,147.4,301.63,155.672,301.63z M304.972,171.917l29.401,33.154h-15.347v55.663h-28.114v-55.661h-15.344
		L304.972,171.917z M215.638,171.917l29.401,33.154h-15.347v55.663h-28.114v-55.661h-15.344L215.638,171.917z"/>
	<path d="M387.277,333.748H108.192V44.317C108.192,19.88,88.312,0,63.875,0S19.559,19.88,19.559,44.317
		c0,9.665,7.835,17.5,17.5,17.5s17.5-7.835,17.5-17.5c0-5.137,4.18-9.317,9.316-9.317c5.138,0,9.317,4.18,9.317,9.317v291.931
		c0,17.92,14.579,32.5,32.5,32.5h20.91c-2.362,5.027-3.689,10.632-3.689,16.544c0,21.529,17.515,39.044,39.044,39.044
		s39.044-17.515,39.044-39.044c0-5.912-1.328-11.517-3.689-16.544h102.966c-2.362,5.027-3.689,10.632-3.689,16.544
		c0,21.529,17.515,39.044,39.044,39.044s39.044-17.515,39.044-39.044c0-5.912-1.328-11.517-3.689-16.544h16.29
		c9.665,0,17.5-7.835,17.5-17.5S396.942,333.748,387.277,333.748z"/>
</g>
<g>
</g>
<g>
</g>
<g>
</g>
<g>
</g>
<g>
</g>
<g>
</g>
<g>
</g>
<g>
</g>
<g>
</g>
<g>
</g>
<g>
</g>
<g>
</g>
<g>
</g>
<g>
</g>
<g>
</g>
</svg>
