<?xml version="1.0" encoding="iso-8859-1"?>
<!-- Generator: Adobe Illustrator 17.1.0, SVG Export Plug-In . SVG Version: 6.00 Build 0)  -->
<!DOCTYPE svg PUBLIC "-//W3C//DTD SVG 1.1//EN" "http://www.w3.org/Graphics/SVG/1.1/DTD/svg11.dtd">
<svg version="1.1" id="Capa_1" xmlns="http://www.w3.org/2000/svg" xmlns:xlink="http://www.w3.org/1999/xlink" x="0px" y="0px"
	 viewBox="0 0 419.197 419.197" style="enable-background:new 0 0 419.197 419.197;" xml:space="preserve">
<g>
	<path d="M123.675,298.005h105.518c8.271,0,15-6.729,15-15v-91.173c0-8.271-6.729-15-15-15H123.675c-8.271,0-15,6.729-15,15v91.173
		C108.675,291.276,115.404,298.005,123.675,298.005z M176.435,218.735l23.117,26.067h-12.067v32.479H165.38v-32.477h-12.064
		L176.435,218.735z"/>
	<path d="M272.74,191.832v91.173c0,8.271,6.729,15,15,15h105.519c8.271,0,15-6.729,15-15v-91.173c0-8.271-6.729-15-15-15H287.74
		C279.469,176.832,272.74,183.561,272.74,191.832z M340.5,218.735l23.117,26.067H351.55v32.479h-22.104v-32.477h-12.064
		L340.5,218.735z"/>
	<path d="M205.708,158.26h105.518c8.271,0,15-6.729,15-15V52.087c0-8.271-6.729-15-15-15H205.708c-8.271,0-15,6.729-15,15v91.173
		C190.708,151.531,197.437,158.26,205.708,158.26z M258.467,78.99l23.117,26.067h-12.067v32.479h-22.104v-32.477h-12.064
		L258.467,78.99z"/>
	<path d="M401.697,321.309H84.649V54.683c0-23.338-18.987-42.324-42.325-42.324S0,31.345,0,54.683c0,9.665,7.835,17.5,17.5,17.5
		S35,64.348,35,54.683c0-4.039,3.286-7.324,7.324-7.324c4.039,0,7.325,3.286,7.325,7.324v269.125c0,17.92,14.58,32.5,32.5,32.5
		h17.256c-1.802,4.318-2.801,9.051-2.801,14.015c0,20.134,16.38,36.514,36.515,36.514c20.134,0,36.514-16.38,36.514-36.514
		c0-4.963-0.999-9.697-2.801-14.015h153.345c-1.802,4.318-2.801,9.051-2.801,14.015c0,20.134,16.38,36.514,36.515,36.514
		c20.134,0,36.514-16.38,36.514-36.514c0-4.963-0.999-9.697-2.801-14.015h14.094c9.665,0,17.5-7.835,17.5-17.5
		S411.362,321.309,401.697,321.309z"/>
</g>
<g>
</g>
<g>
</g>
<g>
</g>
<g>
</g>
<g>
</g>
<g>
</g>
<g>
</g>
<g>
</g>
<g>
</g>
<g>
</g>
<g>
</g>
<g>
</g>
<g>
</g>
<g>
</g>
<g>
</g>
</svg>
