<?xml version="1.0" encoding="iso-8859-1"?>
<!-- Generator: Adobe Illustrator 17.1.0, SVG Export Plug-In . SVG Version: 6.00 Build 0)  -->
<!DOCTYPE svg PUBLIC "-//W3C//DTD SVG 1.1//EN" "http://www.w3.org/Graphics/SVG/1.1/DTD/svg11.dtd">
<svg version="1.1" id="Capa_1" xmlns="http://www.w3.org/2000/svg" xmlns:xlink="http://www.w3.org/1999/xlink" x="0px" y="0px"
	 viewBox="0 0 430.97 430.97" style="enable-background:new 0 0 430.97 430.97;" xml:space="preserve">
<path d="M396.758,194.356c-1.701-0.357-3.308-0.694-4.743-1.067c-15.852-4.122-23.718-6.579-29.241-17.244l-20.639-41.785
	c-6.569-12.683-23.533-23.001-37.813-23.001h-61.1c-4.316,0-10.737,2.798-10.737,10.506v136.229h-30.299V86.966
	c0-9.721-7.909-17.63-17.63-17.63H17.63C7.909,69.335,0,77.244,0,86.966v201.107c0,9.721,7.909,17.63,17.63,17.63H33.76
	c1.315,31.063,26.99,55.932,58.375,55.932c31.386,0,57.063-24.869,58.378-55.932h23.352h10.691h58.162l6.511,0
	c1.315,31.063,26.99,55.931,58.374,55.931c29.471,0,53.903-21.928,57.866-50.319h38.616c14.824,0,26.884-12.059,26.884-26.882
	v-46.327C430.97,201.533,410.382,197.214,396.758,194.356z M256.745,191.037V133.21h38.912c10.934,0,24.42,8.204,29.43,17.871
	l18.366,37.184c0.508,0.981,1.04,1.903,1.601,2.772H256.745z M329.427,303.203c0,12.03-9.79,21.816-21.824,21.816
	c-12.028,0-21.814-9.787-21.814-21.816s9.786-21.816,21.814-21.816C319.637,281.387,329.427,291.174,329.427,303.203z
	 M92.134,281.387c12.033,0,21.823,9.787,21.823,21.816s-9.79,21.816-21.823,21.816c-12.029,0-21.815-9.787-21.815-21.816
	S80.105,281.387,92.134,281.387z"/>
<g>
</g>
<g>
</g>
<g>
</g>
<g>
</g>
<g>
</g>
<g>
</g>
<g>
</g>
<g>
</g>
<g>
</g>
<g>
</g>
<g>
</g>
<g>
</g>
<g>
</g>
<g>
</g>
<g>
</g>
</svg>
