<?xml version="1.0" encoding="iso-8859-1"?>
<!-- Generator: Adobe Illustrator 17.1.0, SVG Export Plug-In . SVG Version: 6.00 Build 0)  -->
<!DOCTYPE svg PUBLIC "-//W3C//DTD SVG 1.1//EN" "http://www.w3.org/Graphics/SVG/1.1/DTD/svg11.dtd">
<svg version="1.1" id="Capa_1" xmlns="http://www.w3.org/2000/svg" xmlns:xlink="http://www.w3.org/1999/xlink" x="0px" y="0px"
	 viewBox="0 0 419.129 419.129" style="enable-background:new 0 0 419.129 419.129;" xml:space="preserve">
<g>
	<path d="M394.293,289.733c-1.198-0.251-2.329-0.489-3.33-0.749c-11.323-2.945-16.489-4.555-20.266-11.846l-14.641-29.643
		c-4.771-9.209-17.089-16.702-27.459-16.702h-25.632v-19.557c0-6.381-5.191-11.572-11.575-11.572l-25.311,0.026
		c6.597-16.111,10.244-33.729,10.244-52.187c0-76.183-61.979-138.162-138.163-138.162C61.979,9.342,0,71.321,0,147.504
		c0,65.142,45.319,119.89,106.082,134.394v80.637c0,6.381,5.191,11.572,11.572,11.572h18.507
		c3.127,20.182,20.62,35.681,41.666,35.681c21.048,0,38.542-15.499,41.669-35.681h68.92c0.274,0,0.557-0.024,0.836-0.037
		c3.111,20.2,20.613,35.717,41.673,35.717c21.048,0,38.542-15.499,41.669-35.681h26.746c10.912,0,19.79-8.877,19.79-19.789v-32.85
		C419.129,294.944,403.583,291.682,394.293,289.733z M302.966,287.364v-39.55h19.486c7.514,0,16.781,5.637,20.217,12.267
		l13.029,26.38c0.159,0.309,0.323,0.61,0.49,0.904H302.966z M345.672,367.628c0,8.129-6.616,14.742-14.748,14.742
		c-8.128,0-14.741-6.613-14.741-14.742s6.613-14.743,14.741-14.743C339.056,352.885,345.672,359.499,345.672,367.628z
		 M177.827,352.885c8.132,0,14.748,6.614,14.748,14.743s-6.616,14.742-14.748,14.742c-8.128,0-14.741-6.613-14.741-14.742
		S169.699,352.885,177.827,352.885z M30,147.504C30,87.863,78.521,39.342,138.162,39.342c59.641,0,108.163,48.521,108.163,108.162
		c0,18.927-4.892,36.73-13.47,52.222L117,199.846c-6.225,0-10.919,4.937-10.919,11.484v39.479C62.055,237.109,30,195.979,30,147.504
		z"/>
	<path d="M104.149,141.365l-24.533,26.303v13.161h55.356V164.43h-28.147l9.5-10.344c5.707-6.185,9.876-11.282,12.392-15.15
		c2.705-4.16,4.077-8.769,4.077-13.698c0-7.288-2.465-13.228-7.327-17.655c-4.794-4.365-11.386-6.578-19.591-6.578
		c-8.359,0-15.137,2.577-20.145,7.66c-5.016,5.091-7.465,11.387-7.278,18.713l0.009,0.373l0.788,2.368h18.69v-2.5
		c0-3.269,0.721-5.868,2.144-7.725c1.285-1.676,3.179-2.491,5.792-2.491c2.322,0,4.025,0.68,5.209,2.078
		c1.289,1.524,1.916,3.489,1.916,6.009c0,1.904-0.634,4.056-1.883,6.396C109.762,134.426,107.398,137.635,104.149,141.365z"/>
	<path d="M170.013,164.82v16.008h19.742V164.82h8.359v-16.398h-8.359v-46.354h-18.778l-31.768,50.754l0.891,11.998H170.013z
		 M160.07,148.422l9.942-15.788v15.788H160.07z"/>
</g>
<g>
</g>
<g>
</g>
<g>
</g>
<g>
</g>
<g>
</g>
<g>
</g>
<g>
</g>
<g>
</g>
<g>
</g>
<g>
</g>
<g>
</g>
<g>
</g>
<g>
</g>
<g>
</g>
<g>
</g>
</svg>
