<?xml version="1.0" encoding="iso-8859-1"?>
<!-- Generator: Adobe Illustrator 17.1.0, SVG Export Plug-In . SVG Version: 6.00 Build 0)  -->
<!DOCTYPE svg PUBLIC "-//W3C//DTD SVG 1.1//EN" "http://www.w3.org/Graphics/SVG/1.1/DTD/svg11.dtd">
<svg version="1.1" id="Capa_1" xmlns="http://www.w3.org/2000/svg" xmlns:xlink="http://www.w3.org/1999/xlink" x="0px" y="0px"
	 viewBox="0 0 433.531 433.531" style="enable-background:new 0 0 433.531 433.531;" xml:space="preserve">
<path d="M405.978,176.594c-1.072-0.256-2.147-0.513-3.219-0.792c-17.225-4.479-25.801-7.156-31.862-18.774l-22.345-56.594
	l-0.105-0.232c-7.103-13.711-25.44-24.865-40.88-24.865L18.934,75.307C8.493,75.307,0,83.801,0,94.241v184.3
	c0,10.44,8.493,18.933,18.934,18.933h19.333c1.319,33.72,29.151,60.75,63.192,60.75c34.044,0,61.877-27.03,63.196-60.75
	l83.283,0.001c1.319,33.72,29.151,60.749,63.192,60.749c31.965,0,58.451-23.831,62.66-54.653h30.756
	c15.982,0,28.984-13.001,28.984-28.982v-50.317C433.531,183.183,419.523,179.833,405.978,176.594z M101.459,271.065
	c13.188,0,23.919,10.726,23.919,23.911s-10.73,23.911-23.919,23.911c-13.184,0-23.909-10.726-23.909-23.911
	S88.275,271.065,101.459,271.065z M176.331,152.766v63.857h-32.002v-26.8H116.48v26.8H83.657v-63.857H69.252l60.741-49.493
	l60.742,49.493H176.331z M311.131,271.065c13.188,0,23.919,10.726,23.919,23.911s-10.73,23.911-23.919,23.911
	c-13.184,0-23.909-10.726-23.909-23.911S297.947,271.065,311.131,271.065z M255.676,98.748h42.479
	c21.951,0,25.547,2.166,32.066,19.322l19.925,51.718l0.112,0.25c0.294,0.568,0.273,1.203-0.055,1.743
	c-0.612,1.005-2.179,1.582-4.298,1.582h-90.229V98.748z"/>
<g>
</g>
<g>
</g>
<g>
</g>
<g>
</g>
<g>
</g>
<g>
</g>
<g>
</g>
<g>
</g>
<g>
</g>
<g>
</g>
<g>
</g>
<g>
</g>
<g>
</g>
<g>
</g>
<g>
</g>
</svg>
