<?xml version="1.0" encoding="iso-8859-1"?>
<!-- Generator: Adobe Illustrator 17.1.0, SVG Export Plug-In . SVG Version: 6.00 Build 0)  -->
<!DOCTYPE svg PUBLIC "-//W3C//DTD SVG 1.1//EN" "http://www.w3.org/Graphics/SVG/1.1/DTD/svg11.dtd">
<svg version="1.1" id="Capa_1" xmlns="http://www.w3.org/2000/svg" xmlns:xlink="http://www.w3.org/1999/xlink" x="0px" y="0px"
	 viewBox="0 0 422.91 422.91" style="enable-background:new 0 0 422.91 422.91;" xml:space="preserve">
<path d="M404.91,91.106h-70.569V69.755c0-16.817-13.683-30.5-30.5-30.5H119.07c-16.818,0-30.5,13.683-30.5,30.5v21.352H18
	c-9.925,0-18,8.075-18,18v204.966c0,9.925,8.075,18,18,18h76.468c2.911,3.968,6.755,7.208,11.208,9.395v19.188
	c0,12.683,10.318,23,23,23h24.658c12.682,0,23-10.317,23-23v-16.083h70.24v16.083c0,12.683,10.317,23,23,23h24.658
	c12.683,0,23-10.317,23-23v-19.188c4.454-2.187,8.298-5.427,11.209-9.395h76.468c9.925,0,18-8.075,18-18V109.106
	C422.91,99.182,414.835,91.106,404.91,91.106z M189.504,240.467l21.952-24.754l21.951,24.753h-11.458v29.251h-20.989v-29.25H189.504
	z M299.341,74.255v195.462h-23.292v-79.045c0-8.271-6.729-15-15-15h-2.713v-37.445c0-8.271-6.729-15-15-15h-63.762
	c-8.271,0-15,6.729-15,15v37.445h-2.713c-8.271,0-15,6.729-15,15v79.045H123.57V74.255H299.341z"/>
<g>
</g>
<g>
</g>
<g>
</g>
<g>
</g>
<g>
</g>
<g>
</g>
<g>
</g>
<g>
</g>
<g>
</g>
<g>
</g>
<g>
</g>
<g>
</g>
<g>
</g>
<g>
</g>
<g>
</g>
</svg>
