<?xml version="1.0" encoding="iso-8859-1"?>
<!-- Generator: Adobe Illustrator 17.1.0, SVG Export Plug-In . SVG Version: 6.00 Build 0)  -->
<!DOCTYPE svg PUBLIC "-//W3C//DTD SVG 1.1//EN" "http://www.w3.org/Graphics/SVG/1.1/DTD/svg11.dtd">
<svg version="1.1" id="Capa_1" xmlns="http://www.w3.org/2000/svg" xmlns:xlink="http://www.w3.org/1999/xlink" x="0px" y="0px"
	 viewBox="0 0 433.691 433.691" style="enable-background:new 0 0 433.691 433.691;" xml:space="preserve">
<path d="M410.721,196.72c-0.648-0.841-1.274-1.653-1.872-2.44c-7.444-9.81-13.465-20.855-18.776-30.6
	c-5.212-9.563-10.135-18.594-15.515-24.846c-12.006-13.951-23.309-20.733-34.554-20.733l-55.377,0
	c-0.053,0-5.343,0.065-11.708,0.065h-9.03c-6.5,0-12.168,4.413-13.785,10.733l-0.078,0.305v122.28l0.018,0.299
	c0.002,0.016,0.137,1.693-1.164,3.16c-1.49,1.68-4.406,2.568-8.434,2.568H213.9V71.377c0-9.098-7.402-16.5-16.5-16.5H16.5
	c-9.098,0-16.5,7.402-16.5,16.5v194.208c0,0.904,0.093,1.786,0.233,2.651C0.088,268.992,0,269.767,0,270.562v44.519
	c0,7.197,6.221,13.052,13.868,13.052h8.889c2.529,28.366,26.419,50.682,55.437,50.682c24.951,0,46.12-16.496,53.172-39.153
	c7.052,22.657,28.22,39.153,53.171,39.153c29.018,0,52.909-22.316,55.438-50.682h24.576c2.529,28.366,26.419,50.682,55.436,50.682
	c29.018,0,52.909-22.316,55.438-50.682h33.393c13.715,0,24.874-11.157,24.874-24.872v-42.505
	C433.691,226.513,419.868,208.584,410.721,196.72z M340.606,323.152c0,11.366-9.25,20.612-20.619,20.612
	c-11.366,0-20.612-9.247-20.612-20.612c0-11.366,9.247-20.613,20.612-20.613C331.356,302.538,340.606,311.785,340.606,323.152z
	 M385.718,215.256c-0.411,0.678-1.617,0.974-3.454,0.855l-95.105-0.005v-77.452h41.057c11.037,0,18.86,4.808,27.004,16.595
	c5.424,7.851,19.781,32.565,20.534,33.862c0.511,0.985,1.036,1.988,1.565,3C381.457,200.017,387.71,211.964,385.718,215.256z
	 M184.537,302.538c11.37,0,20.619,9.247,20.619,20.613c0,11.366-9.25,20.612-20.619,20.612c-11.366,0-20.612-9.247-20.612-20.612
	C163.924,311.785,173.171,302.538,184.537,302.538z M78.194,302.538c11.37,0,20.619,9.247,20.619,20.613
	c0,11.366-9.25,20.612-20.619,20.612c-11.366,0-20.612-9.247-20.612-20.612C57.582,311.785,66.828,302.538,78.194,302.538z"/>
<g>
</g>
<g>
</g>
<g>
</g>
<g>
</g>
<g>
</g>
<g>
</g>
<g>
</g>
<g>
</g>
<g>
</g>
<g>
</g>
<g>
</g>
<g>
</g>
<g>
</g>
<g>
</g>
<g>
</g>
</svg>
