<?xml version="1.0" encoding="iso-8859-1"?>
<!-- Generator: Adobe Illustrator 17.1.0, SVG Export Plug-In . SVG Version: 6.00 Build 0)  -->
<!DOCTYPE svg PUBLIC "-//W3C//DTD SVG 1.1//EN" "http://www.w3.org/Graphics/SVG/1.1/DTD/svg11.dtd">
<svg version="1.1" id="Capa_1" xmlns="http://www.w3.org/2000/svg" xmlns:xlink="http://www.w3.org/1999/xlink" x="0px" y="0px"
	 viewBox="0 0 453.322 453.322" style="enable-background:new 0 0 453.322 453.322;" xml:space="preserve">
<g>
	<path d="M420.806,255.459c-1.61-0.338-3.132-0.657-4.488-1.009c-14.98-3.896-22.413-6.216-27.62-16.269l-19.555-39.592
		c-6.244-12.055-22.368-21.863-35.942-21.863h-35.087v-26.971c0-8.063-6.56-14.622-14.625-14.622l-83.815,0.088
		c-1.991-53.33-45.989-96.104-99.798-96.104C44.804,39.116,0,83.921,0,138.993c0,31.138,14.326,58.99,36.729,77.321V351.91
		c0,8.063,6.56,14.622,14.622,14.622h25.463c3.813,26.908,26.99,47.674,54.937,47.674c27.949,0,51.127-20.766,54.939-47.674h92.821
		c0.606,0,1.227-0.034,1.851-0.081c3.777,26.948,26.971,47.755,54.946,47.755c27.949,0,51.128-20.766,54.94-47.674h36.472
		c14.117,0,25.602-11.484,25.602-25.6v-43.892C453.322,262.281,433.754,258.176,420.806,255.459z M99.876,69.116
		c38.529,0,69.876,31.346,69.876,69.876s-31.347,69.876-69.876,69.876S30,177.522,30,138.993S61.347,69.116,99.876,69.116z
		 M131.751,379.252c-11.324,0-20.537-9.213-20.537-20.538c0-11.325,9.213-20.538,20.537-20.538c11.328,0,20.545,9.213,20.545,20.538
		C152.296,370.039,143.079,379.252,131.751,379.252z M336.309,379.252c-11.323,0-20.536-9.213-20.536-20.538
		c0-11.325,9.213-20.538,20.536-20.538c11.329,0,20.546,9.213,20.546,20.538C356.854,370.039,347.638,379.252,336.309,379.252z
		 M298.113,252.312v-54.525h26.876c10.315,0,23.04,7.74,27.766,16.859l17.401,35.232c0.443,0.857,0.907,1.667,1.394,2.435H298.113z"
		/>
	<path d="M100.933,156.728l26.065,8.259c1.507,0.478,3.033,0.705,4.534,0.705c6.364,0,12.271-4.083,14.296-10.473
		c2.502-7.897-1.872-16.328-9.77-18.83l-21.021-6.66l-2.201-2.798v-19.065c0-8.284-6.716-15-15-15s-15,6.716-15,15v24.147
		C82.837,143.011,90.447,153.406,100.933,156.728z"/>
</g>
<g>
</g>
<g>
</g>
<g>
</g>
<g>
</g>
<g>
</g>
<g>
</g>
<g>
</g>
<g>
</g>
<g>
</g>
<g>
</g>
<g>
</g>
<g>
</g>
<g>
</g>
<g>
</g>
<g>
</g>
</svg>
