<?xml version="1.0" encoding="iso-8859-1"?>
<!-- Generator: Adobe Illustrator 17.1.0, SVG Export Plug-In . SVG Version: 6.00 Build 0)  -->
<!DOCTYPE svg PUBLIC "-//W3C//DTD SVG 1.1//EN" "http://www.w3.org/Graphics/SVG/1.1/DTD/svg11.dtd">
<svg version="1.1" id="Capa_1" xmlns="http://www.w3.org/2000/svg" xmlns:xlink="http://www.w3.org/1999/xlink" x="0px" y="0px"
	 viewBox="0 0 433.534 433.534" style="enable-background:new 0 0 433.534 433.534;" xml:space="preserve">
<g>
	<polygon points="120.526,172.031 133.933,172.031 133.933,152.686 	"/>
	<path d="M399.76,196.866c-1.678-0.352-3.263-0.684-4.677-1.052c-15.627-4.064-23.381-6.485-28.823-16.993l-20.359-41.219
		c-6.485-12.521-23.232-22.707-37.331-22.707h-36.634V86.711c0-8.338-6.783-15.121-15.123-15.121L14.212,71.844
		C6.11,71.844,0,78.292,0,86.842v210.344c0,8.338,6.783,15.121,15.121,15.121h26.601c3.924,28.009,28.031,49.636,57.107,49.636
		c29.078,0,53.186-21.628,57.11-49.636h96.732c0.661,0,1.336-0.034,2.017-0.088c3.886,28.052,28.011,49.725,57.118,49.725
		c29.078,0,53.187-21.628,57.111-49.636h38.063c14.641,0,26.553-11.911,26.553-26.551v-45.699
		C433.534,203.952,413.209,199.688,399.76,196.866z M47.185,197.972v-9.874l23.243-22.642c3.218-3.354,5.547-6.233,6.898-8.531
		c1.298-2.209,1.956-4.264,1.956-6.109c0-2.475-0.701-4.431-2.143-5.979c-1.423-1.528-3.422-2.271-6.111-2.271
		c-2.997,0-5.192,0.875-6.712,2.676c-1.54,1.826-2.321,4.326-2.321,7.431v1H46.463L46.07,152.6l-0.004-0.163
		c-0.171-6.086,2.06-11.308,6.629-15.521c4.537-4.184,10.705-6.305,18.333-6.305c7.511,0,13.518,1.819,17.854,5.407
		c4.394,3.635,6.622,8.54,6.622,14.578c0,4.089-1.251,7.91-3.718,11.358c-2.377,3.322-6.339,7.72-11.776,13.074l-11.106,10.988
		h28.695v11.957H47.185z M98.83,325.758c-11.847,0-21.485-9.639-21.485-21.487s9.638-21.486,21.485-21.486
		c11.852,0,21.494,9.639,21.494,21.486S110.681,325.758,98.83,325.758z M158.143,183.988h-8.037v13.984h-16.173v-13.984H105.08
		l-0.737-9.018l29.918-43.431h15.845v40.492h8.037V183.988z M226.705,197.972h-16.222v-29.564c0-3.447-0.639-5.881-1.899-7.236
		c-1.242-1.334-3.167-2.01-5.721-2.01c-1.804,0-3.409,0.294-4.771,0.874c-1.223,0.521-2.262,1.24-3.093,2.141v35.795h-16.222
		v-71.035h16.222v25.56c1.364-1.35,2.916-2.47,4.634-3.346c2.534-1.291,5.374-1.945,8.442-1.945c5.748,0,10.343,1.78,13.658,5.292
		c3.3,3.496,4.973,8.901,4.973,16.065V197.972z M311.807,325.758c-11.847,0-21.485-9.639-21.485-21.487s9.638-21.486,21.485-21.486
		c11.852,0,21.494,9.639,21.494,21.486S323.659,325.758,311.807,325.758z M271.936,193.592v-56.975h28.086
		c10.774,0,24.064,8.084,29,17.61l18.117,36.681c0.491,0.949,1.005,1.842,1.546,2.685H271.936z"/>
</g>
<g>
</g>
<g>
</g>
<g>
</g>
<g>
</g>
<g>
</g>
<g>
</g>
<g>
</g>
<g>
</g>
<g>
</g>
<g>
</g>
<g>
</g>
<g>
</g>
<g>
</g>
<g>
</g>
<g>
</g>
</svg>
