<?xml version="1.0" encoding="iso-8859-1"?>
<!-- Generator: Adobe Illustrator 17.1.0, SVG Export Plug-In . SVG Version: 6.00 Build 0)  -->
<!DOCTYPE svg PUBLIC "-//W3C//DTD SVG 1.1//EN" "http://www.w3.org/Graphics/SVG/1.1/DTD/svg11.dtd">
<svg version="1.1" id="Capa_1" xmlns="http://www.w3.org/2000/svg" xmlns:xlink="http://www.w3.org/1999/xlink" x="0px" y="0px"
	 viewBox="0 0 434.104 434.104" style="enable-background:new 0 0 434.104 434.104;" xml:space="preserve">
<g>
	<path d="M401.351,215.022c-1.623-0.341-3.156-0.662-4.523-1.017c-15.046-3.913-22.539-6.25-27.807-16.336l-19.638-49.733
		l-0.105-0.232c-6.289-12.142-22.529-22.021-36.202-22.021h-58.334c-4.166,0-10.364,2.701-10.364,10.144v119.949H9.5
		c-5.238,0-9.5,4.262-9.5,9.5v46.776c0,5.238,4.262,9.5,9.5,9.5h45.149c1.313,29.667,25.854,53.4,55.842,53.4
		c29.99,0,54.533-23.733,55.846-53.4h87.917c0.002,0,0.004,0,0.006,0l6.106,0c1.313,29.667,25.854,53.4,55.842,53.4
		c28.161,0,51.513-20.927,55.347-48.041h36.768c14.215,0,25.78-11.564,25.78-25.778v-44.23
		C434.104,221.894,414.394,217.759,401.351,215.022z M336.931,319.054c0,11.423-9.296,20.716-20.723,20.716
		c-11.422,0-20.714-9.293-20.714-20.716s9.292-20.716,20.714-20.716C327.635,298.338,336.931,307.631,336.931,319.054z
		 M267.765,211.851v-64.983h37.037c10.356,0,23.122,7.737,27.956,16.923l17.463,45.328l0.112,0.25
		c0.452,0.874,0.926,1.7,1.422,2.482H267.765z M110.491,298.338c11.426,0,20.723,9.293,20.723,20.716s-9.296,20.716-20.723,20.716
		c-11.422,0-20.714-9.293-20.714-20.716S99.069,298.338,110.491,298.338z"/>
	<path d="M40.875,233.218h165.237c8.271,0,15-6.729,15-15V74.15c0-8.271-6.729-15-15-15h-48.67c-8.271,0-15,6.729-15,15v10.435
		c0,2.757-2.243,5-5,5h-27.897c-2.757,0-5-2.243-5-5V74.15c0-8.271-6.729-15-15-15h-48.67c-8.271,0-15,6.729-15,15v144.068
		C25.875,226.489,32.604,233.218,40.875,233.218z M123.494,126.94l29.426,33.182h-15.36v41.344h-28.138v-41.341H94.066
		L123.494,126.94z"/>
</g>
<g>
</g>
<g>
</g>
<g>
</g>
<g>
</g>
<g>
</g>
<g>
</g>
<g>
</g>
<g>
</g>
<g>
</g>
<g>
</g>
<g>
</g>
<g>
</g>
<g>
</g>
<g>
</g>
<g>
</g>
</svg>
