<?xml version="1.0" encoding="iso-8859-1"?>
<!-- Generator: Adobe Illustrator 17.1.0, SVG Export Plug-In . SVG Version: 6.00 Build 0)  -->
<!DOCTYPE svg PUBLIC "-//W3C//DTD SVG 1.1//EN" "http://www.w3.org/Graphics/SVG/1.1/DTD/svg11.dtd">
<svg version="1.1" id="Capa_1" xmlns="http://www.w3.org/2000/svg" xmlns:xlink="http://www.w3.org/1999/xlink" x="0px" y="0px"
	 viewBox="0 0 446.49 446.49" style="enable-background:new 0 0 446.49 446.49;" xml:space="preserve">
<g>
	<path d="M337.992,138.369c-28.516-28.695-63.858-45.908-100.747-49.361V71.48c0-8.284-6.716-15-15-15s-15,6.716-15,15v17.719
		c-36.165,3.878-70.745,20.994-98.747,49.17c-29.729,29.915-47.494,68.831-47.521,104.104c0,4.301,3.363,7.851,7.631,8.082
		c0.16,0.01,0.32,0.014,0.481,0.014c2.246,0,4.4-0.898,5.898-2.453c10.544-10.866,24.673-16.85,39.782-16.85
		c15.044,0.008,29.123,5.93,39.641,16.673c1.535,1.569,3.589,2.433,5.783,2.433c1.934,0,3.807-0.695,5.273-1.958
		c12.207-10.503,26.99-17.512,42.687-20.422v168.559c0,10.993-8.943,19.937-19.937,19.937s-19.937-8.944-19.937-19.937
		c0-8.284-6.716-15-15-15s-15,6.716-15,15c0,27.535,22.401,49.937,49.937,49.937s49.937-22.401,49.937-49.937v-168.59
		c15.766,2.888,30.614,9.907,42.86,20.447c1.466,1.267,3.341,1.964,5.28,1.964c2.192,0,4.246-0.862,5.788-2.433
		c10.512-10.744,24.59-16.665,39.64-16.673c15.107,0,29.236,5.984,39.771,16.835c1.608,1.671,3.98,2.586,6.363,2.454
		c4.293-0.232,7.656-3.783,7.656-8.088C385.484,207.198,367.719,168.282,337.992,138.369z"/>
	<path d="M95.518,92.75c2.878,1.63,6.138,2.73,9.427,2.73c0.001,0,0.001,0,0.002,0c6.897,0,13.292-3.96,16.689-9.957
		c3.592-6.343,1.715-15.932,0.06-24.185c-0.718-3.578-1.396-6.95-1.56-9.725c-0.075-1.27-1.004-2.613-3.387-2.613
		c-6.146,0-24.021,9.613-28.461,17.454c-2.523,4.454-3.16,9.683-1.795,14.616C87.86,86.002,91.065,90.228,95.518,92.75z"/>
	<path d="M332.518,92.75c2.878,1.63,6.138,2.73,9.427,2.73c0.001,0,0.001,0,0.002,0c6.897,0,13.292-3.96,16.689-9.957
		c3.592-6.343,1.715-15.932,0.06-24.185c-0.718-3.578-1.396-6.95-1.56-9.725c-0.075-1.27-1.004-2.613-3.387-2.613
		c-6.146,0-24.021,9.613-28.461,17.454c-2.523,4.454-3.16,9.683-1.795,14.616C324.86,86.002,328.065,90.228,332.518,92.75z"/>
	<path d="M174.518,43.75c2.878,1.63,6.138,2.73,9.427,2.73c0.001,0,0.001,0,0.002,0c6.897,0,13.292-3.96,16.689-9.957
		c3.592-6.343,1.715-15.932,0.06-24.185c-0.718-3.578-1.396-6.95-1.56-9.725C199.061,1.343,198.132,0,195.75,0
		c-6.146,0-24.021,9.613-28.461,17.454c-2.523,4.454-3.16,9.683-1.795,14.616C166.86,37.002,170.065,41.228,174.518,43.75z"/>
	<path d="M253.518,43.75c2.878,1.63,6.138,2.73,9.427,2.73c0.001,0,0.001,0,0.002,0c6.897,0,13.292-3.96,16.689-9.957
		c3.592-6.343,1.715-15.932,0.06-24.185c-0.718-3.578-1.396-6.95-1.56-9.725C278.061,1.343,277.132,0,274.75,0
		c-6.146,0-24.021,9.613-28.461,17.454c-2.523,4.454-3.16,9.683-1.795,14.616C245.86,37.002,249.065,41.228,253.518,43.75z"/>
</g>
<g>
</g>
<g>
</g>
<g>
</g>
<g>
</g>
<g>
</g>
<g>
</g>
<g>
</g>
<g>
</g>
<g>
</g>
<g>
</g>
<g>
</g>
<g>
</g>
<g>
</g>
<g>
</g>
<g>
</g>
</svg>
